0
SECTION
2
HEADER
9
$INSUNITS
70
4
9
$ACADVER
1
AC1014
9
$HANDSEED
5
FFFF
0
ENDSEC
0
SECTION
2
TABLES
0
TABLE
2
VPORT
5
8
100
AcDbSymbolTable
0
ENDTAB
0
TABLE
2
LTYPE
5
5
100
AcDbSymbolTable
0
LTYPE
5
14
100
AcDbSymbolTableRecord
100
AcDbLinetypeTableRecord
2
BYBLOCK
70
0
0
LTYPE
5
15
100
AcDbSymbolTableRecord
100
AcDbLinetypeTableRecord
2
BYLAYER
70
0
0
ENDTAB
0
TABLE
2
LAYER
5
2
100
AcDbSymbolTable
70
2
0
LAYER
5
50
100
AcDbSymbolTableRecord
100
AcDbLayerTableRecord
2
0
70
0
6
CONTINUOUS
0
ENDTAB
0
TABLE
2
STYLE
5
3
100
AcDbSymbolTable
70
1
0
STYLE
5
11
100
AcDbSymbolTableRecord
100
AcDbTextStyleTableRecord
2
STANDARD
70
0
0
ENDTAB
0
TABLE
2
VIEW
5
6
100
AcDbSymbolTable
70
0
0
ENDTAB
0
TABLE
2
UCS
5
7
100
AcDbSymbolTable
70
0
0
ENDTAB
0
TABLE
2
APPID
5
9
100
AcDbSymbolTable
70
2
0
APPID
5
12
100
AcDbSymbolTableRecord
100
AcDbRegAppTableRecord
2
ACAD
70
0
0
ENDTAB
0
TABLE
2
DIMSTYLE
5
A
100
AcDbSymbolTable
70
1
0
ENDTAB
0
TABLE
2
BLOCK_RECORD
5
1
100
AcDbSymbolTable
70
1
0
BLOCK_RECORD
5
1F
100
AcDbSymbolTableRecord
100
AcDbBlockTableRecord
2
*MODEL_SPACE
0
BLOCK_RECORD
5
1B
100
AcDbSymbolTableRecord
100
AcDbBlockTableRecord
2
*PAPER_SPACE
0
ENDTAB
0
ENDSEC
0
SECTION
2
BLOCKS
0
BLOCK
5
20
100
AcDbEntity
100
AcDbBlockBegin
2
*MODEL_SPACE
0
ENDBLK
5
21
100
AcDbEntity
100
AcDbBlockEnd
0
BLOCK
5
1C
100
AcDbEntity
100
AcDbBlockBegin
2
*PAPER_SPACE
0
ENDBLK
5
1D
100
AcDbEntity
100
AcDbBlockEnd
0
ENDSEC
0
SECTION
2
ENTITIES
0
CIRCLE
5
100
100
AcDbEntity
8
0
100
AcDbCircle
10
0
20
0
30
0
40
9.2988241800247593
210
0
220
-0
230
1
0
LWPOLYLINE
5
101
100
AcDbEntity
8
0
100
AcDbPolyline
90
4
70
1
43
0.0
10
-1.0111234959055067
20
2.0950118831817366
10
-1.0111234959055071
20
8.6478965022658389
10
0.98887653389680974
20
8.6478965022658389
10
0.98887653389681018
20
2.0950118831817366
0
CIRCLE
5
102
100
AcDbEntity
8
0
100
AcDbCircle
10
0
20
0
30
0
40
10
210
0
220
0
230
1
0
LWPOLYLINE
5
103
100
AcDbEntity
8
0
100
AcDbPolyline
90
4
70
1
43
0.0
10
-2.0494331799110688
20
1.1005767377718212
10
-5.9011221189828831
20
6.4019717567890631
10
-4.2830881061224071
20
7.5775422788913716
10
-0.43139916705059289
20
2.2761472598741301
0
LWPOLYLINE
5
104
100
AcDbEntity
8
0
100
AcDbPolyline
90
4
70
1
43
0.0
10
-1.6800203595691632
20
-1.6090298648806869
10
-7.9121839770793834
20
-3.6339825743558771
10
-8.5302179750386991
20
-1.7318695134218824
10
-2.2980543575284798
20
0.29308319605330785
0
LWPOLYLINE
5
105
100
AcDbEntity
8
0
100
AcDbPolyline
90
4
70
1
43
0.0
10
-2.3049290468623806
20
-0.31424131423944957
10
-8.5370926643726008
20
1.7107113952357418
10
-7.9190586664132834
20
3.6128244561697365
10
-1.6868950489030636
20
1.5878717466945451
0
LWPOLYLINE
5
106
100
AcDbEntity
8
0
100
AcDbPolyline
90
4
70
1
43
0.0
10
1.0111234959055069
20
-2.0950118831817366
10
1.0111234959055055
20
-8.6478965022658389
10
-0.98887653389681063
20
-8.6478965022658372
10
-0.98887653389681029
20
-2.095011883181737
0
LWPOLYLINE
5
107
100
AcDbEntity
8
0
100
AcDbPolyline
90
4
70
1
43
0.0
10
-0.4134009967123442
20
-2.2892236960511525
10
-4.2650899357841592
20
-7.5906187150683957
10
-5.8831239486446352
20
-6.4150481929660881
10
-2.0314350095728195
20
-1.1136531739488444
0
LWPOLYLINE
5
108
100
AcDbEntity
8
0
100
AcDbPolyline
90
4
70
1
43
0.0
10
0.4134009967123442
20
2.2892236960511525
10
4.2650899357841601
20
7.5906187150683957
10
5.8831239486446361
20
6.4150481929660872
10
2.0314350095728195
20
1.1136531739488442
0
LWPOLYLINE
5
109
100
AcDbEntity
8
0
100
AcDbPolyline
90
4
70
1
43
0.0
10
1.6800203595691632
20
1.6090298648806867
10
7.9121839770793834
20
3.6339825743558762
10
8.5302179750386991
20
1.731869513421882
10
2.2980543575284798
20
-0.29308319605330813
0
LWPOLYLINE
5
110
100
AcDbEntity
8
0
100
AcDbPolyline
90
4
70
1
43
0.0
10
2.3049290468623806
20
0.31424131423944901
10
8.5370926643726008
20
-1.7107113952357427
10
7.9190586664132843
20
-3.6128244561697374
10
1.6868950489030634
20
-1.5878717466945458
0
LWPOLYLINE
5
111
100
AcDbEntity
8
0
100
AcDbPolyline
90
4
70
1
43
0.0
10
2.0494331799110688
20
-1.1005767377718212
10
5.9011221189828822
20
-6.4019717567890648
10
4.2830881061224062
20
-7.5775422788913716
10
0.43139916705059289
20
-2.2761472598741301
0
LINE
5
112
100
AcDbEntity
8
0
100
AcDbLine
10
-1.0111234959055126
20
7.9111979940032038
30
0
11
-1.0111234959055126
21
8.1567641385888141
31
0
0
LINE
5
113
100
AcDbEntity
8
0
100
AcDbLine
10
-1.0111234959055126
20
8.1567641385888141
30
0
11
0.55367873349893681
21
8.1567641385888141
31
0
0
SPLINE
5
114
100
AcDbEntity
8
0
100
AcDbSpline
70
0
71
2
72
6
73
3
74
0
42
0.000000001
43
0.0000000001
44
0.0000000001
40
0
40
0
40
0
40
1
40
1
40
1
10
0.55367873349893681
20
8.1567641385888141
30
0
10
0.46909482517946355
20
8.2454407998417896
30
0
10
0.38451091685999028
20
8.3893699237202686
30
0
0
SPLINE
5
115
100
AcDbEntity
8
0
100
AcDbSpline
70
0
71
2
72
6
73
3
74
0
42
0.000000001
43
0.0000000001
44
0.0000000001
40
0
40
0
40
0
40
1
40
1
40
1
10
0.38451091685999028
20
8.3893699237202686
30
0
10
0.29992700854051701
20
8.5332989730929416
30
0
10
0.25763497987497441
20
8.6478965022658389
30
0
0
LINE
5
116
100
AcDbEntity
8
0
100
AcDbLine
10
0.25763497987497441
20
8.6478965022658389
30
0
11
0.49501569309938542
21
8.6478965022658389
31
0
0
SPLINE
5
117
100
AcDbEntity
8
0
100
AcDbSpline
70
0
71
2
72
6
73
3
74
0
42
0.000000001
43
0.0000000001
44
0.0000000001
40
0
40
0
40
0
40
1
40
1
40
1
10
0.49501569309938542
20
8.6478965022658389
30
0
10
0.59187786021936528
20
8.4418937602137607
30
0
10
0.72966770568597905
20
8.2877328285073322
30
0
0
SPLINE
5
118
100
AcDbEntity
8
0
100
AcDbSpline
70
0
71
2
72
6
73
3
74
0
42
0.000000001
43
0.0000000001
44
0.0000000001
40
0
40
0
40
0
40
1
40
1
40
1
10
0.72966770568597905
20
8.2877328285073322
30
0
10
0.86745770016420476
20
8.1335718222950977
30
0
10
0.99706203976381413
20
8.0694517531489414
30
0
0
LINE
5
119
100
AcDbEntity
8
0
100
AcDbLine
10
0.99706203976381413
20
8.0694517531489414
30
0
11
0.99706203976381413
21
7.9111979940032038
31
0
0
LINE
5
120
100
AcDbEntity
8
0
100
AcDbLine
10
0.99706203976381413
20
7.9111979940032038
30
0
11
-1.0111234959055126
21
7.9111979940032038
31
0
0
SPLINE
5
121
100
AcDbEntity
8
0
100
AcDbSpline
70
0
71
2
72
6
73
3
74
0
42
0.000000001
43
0.0000000001
44
0.0000000001
40
0
40
0
40
0
40
1
40
1
40
1
10
-0.024766015617960768
20
7.2822757848595652
30
0
10
0.3299406293939412
20
7.2822757848595652
30
0
10
0.54617525377977494
20
7.2092881091927561
30
0
0
SPLINE
5
122
100
AcDbEntity
8
0
100
AcDbSpline
70
0
71
2
72
6
73
3
74
0
42
0.000000001
43
0.0000000001
44
0.0000000001
40
0
40
0
40
0
40
1
40
1
40
1
10
0.54617525377977494
20
7.2092881091927561
30
0
10
0.76240987816560868
20
7.1363002845143351
30
0
10
0.87973595896471146
20
6.992371309647468
30
0
0
SPLINE
5
123
100
AcDbEntity
8
0
100
AcDbSpline
70
0
71
2
72
6
73
3
74
0
42
0.000000001
43
0.0000000001
44
0.0000000001
40
0
40
0
40
0
40
1
40
1
40
1
10
0.87973595896471146
20
6.992371309647468
30
0
10
0.99706203976381413
20
6.848442185768989
30
0
10
0.99706203976381413
20
6.6301611849164042
30
0
0
SPLINE
5
124
100
AcDbEntity
8
0
100
AcDbSpline
70
0
71
2
72
6
73
3
74
0
42
0.000000001
43
0.0000000001
44
0.0000000001
40
0
40
0
40
0
40
1
40
1
40
1
10
0.99706203976381413
20
6.6301611849164042
30
0
10
0.99706203976381425
20
6.469178874144462
30
0
10
0.93225986996400956
20
6.347760040411857
30
0
0
SPLINE
5
125
100
AcDbEntity
8
0
100
AcDbSpline
70
0
71
2
72
6
73
3
74
0
42
0.000000001
43
0.0000000001
44
0.0000000001
40
0
40
0
40
0
40
1
40
1
40
1
10
0.93225986996400956
20
6.347760040411857
30
0
10
0.86745770016420487
20
6.2263412066792521
30
0
10
0.74535669127214554
20
6.1472145506238016
30
0
0
SPLINE
5
126
100
AcDbEntity
8
0
100
AcDbSpline
70
0
71
2
72
6
73
3
74
0
42
0.000000001
43
0.0000000001
44
0.0000000001
40
0
40
0
40
0
40
1
40
1
40
1
10
0.74535669127214554
20
6.1472145506238016
30
0
10
0.62325583139169816
20
6.0680875965451273
30
0
10
0.44794888535249833
20
6.0230670162533793
30
0
0
SPLINE
5
127
100
AcDbEntity
8
0
100
AcDbSpline
70
0
71
2
72
6
73
3
74
0
42
0.000000001
43
0.0000000001
44
0.0000000001
40
0
40
0
40
0
40
1
40
1
40
1
10
0.44794888535249833
20
6.0230670162533793
30
0
10
0.2726419393132985
20
5.9780464359616312
30
0
10
-0.024766015617960768
20
5.9780464359616312
30
0
0
SPLINE
5
128
100
AcDbEntity
8
0
100
AcDbSpline
70
0
71
2
72
6
73
3
74
0
42
0.000000001
43
0.0000000001
44
0.0000000001
40
0
40
0
40
0
40
1
40
1
40
1
10
-0.024766015617960768
20
5.9780464359616312
30
0
10
-0.37674425801526912
20
5.9780464359616312
30
0
10
-0.59297888240110286
20
6.0503522344922098
30
0
0
SPLINE
5
129
100
AcDbEntity
8
0
100
AcDbSpline
70
0
71
2
72
6
73
3
74
0
42
0.000000001
43
0.0000000001
44
0.0000000001
40
0
40
0
40
0
40
1
40
1
40
1
10
-0.59297888240110286
20
6.0503522344922098
30
0
10
-0.8092135067869366
20
6.1226577349995646
30
0
10
-0.92722176274549373
20
6.2665868588780436
30
0
0
SPLINE
5
130
100
AcDbEntity
8
0
100
AcDbSpline
70
0
71
2
72
6
73
3
74
0
42
0.000000001
43
0.0000000001
44
0.0000000001
40
0
40
0
40
0
40
1
40
1
40
1
10
-0.92722176274549373
20
6.2665868588780436
30
0
10
-1.0452298696924389
20
6.4105159827565226
30
0
10
-1.0452298696924389
20
6.6301611849164042
30
0
0
SPLINE
5
131
100
AcDbEntity
8
0
100
AcDbSpline
70
0
71
2
72
6
73
3
74
0
42
0.000000001
43
0.0000000001
44
0.0000000001
40
0
40
0
40
0
40
1
40
1
40
1
10
-1.0452298696924389
20
6.6301611849164042
30
0
10
-1.0452298696924389
20
6.919383484969047
30
0
10
-0.83786292633306392
20
7.0844585486744913
30
0
0
SPLINE
5
132
100
AcDbEntity
8
0
100
AcDbSpline
70
0
71
2
72
6
73
3
74
0
42
0.000000001
43
0.0000000001
44
0.0000000001
40
0
40
0
40
0
40
1
40
1
40
1
10
-0.83786292633306392
20
7.0844585486744913
30
0
10
-0.58820395430814632
20
7.2822757848595652
30
0
10
-0.024766015617960768
20
7.2822757848595652
30
0
0
SPLINE
5
133
100
AcDbEntity
8
0
100
AcDbSpline
70
0
71
2
72
6
73
3
74
0
42
0.000000001
43
0.0000000001
44
0.0000000001
40
0
40
0
40
0
40
1
40
1
40
1
10
-0.024766015617960768
20
7.0298884102200541
30
0
10
-0.51726265510808833
20
7.0298884102200541
30
0
10
-0.68029134234678157
20
6.9146087058877024
30
0
0
SPLINE
5
134
100
AcDbEntity
8
0
100
AcDbSpline
70
0
71
2
72
6
73
3
74
0
42
0.000000001
43
0.0000000001
44
0.0000000001
40
0
40
0
40
0
40
1
40
1
40
1
10
-0.68029134234678157
20
6.9146087058877024
30
0
10
-0.84332002958547481
20
6.7993290015553507
30
0
10
-0.84332002958547481
20
6.6301611849164042
30
0
0
SPLINE
5
135
100
AcDbEntity
8
0
100
AcDbSpline
70
0
71
2
72
6
73
3
74
0
42
0.000000001
43
0.0000000001
44
0.0000000001
40
0
40
0
40
0
40
1
40
1
40
1
10
-0.84332002958547481
20
6.6301611849164042
30
0
10
-0.84332002958547481
20
6.4609933682774576
30
0
10
-0.67960916718732722
20
6.3457138129567179
30
0
0
SPLINE
5
136
100
AcDbEntity
8
0
100
AcDbSpline
70
0
71
2
72
6
73
3
74
0
42
0.000000001
43
0.0000000001
44
0.0000000001
40
0
40
0
40
0
40
1
40
1
40
1
10
-0.67960916718732722
20
6.3457138129567179
30
0
10
-0.51589845380079158
20
6.2304339596127543
30
0
10
-0.024766015617960768
20
6.2304339596127543
30
0
0
SPLINE
5
137
100
AcDbEntity
8
0
100
AcDbSpline
70
0
71
2
72
6
73
3
74
0
42
0.000000001
43
0.0000000001
44
0.0000000001
40
0
40
0
40
0
40
1
40
1
40
1
10
-0.024766015617960768
20
6.2304339596127543
30
0
10
0.46909482517946366
20
6.2304339596127543
30
0
10
0.63144133725870255
20
6.3457138129567179
30
0
0
SPLINE
5
138
100
AcDbEntity
8
0
100
AcDbSpline
70
0
71
2
72
6
73
3
74
0
42
0.000000001
43
0.0000000001
44
0.0000000001
40
0
40
0
40
0
40
1
40
1
40
1
10
0.63144133725870255
20
6.3457138129567179
30
0
10
0.79378784933794144
20
6.4609933682774576
30
0
10
0.79378784933794144
20
6.6328897365426096
30
0
0
SPLINE
5
139
100
AcDbEntity
8
0
100
AcDbSpline
70
0
71
2
72
6
73
3
74
0
42
0.000000001
43
0.0000000001
44
0.0000000001
40
0
40
0
40
0
40
1
40
1
40
1
10
0.79378784933794144
20
6.6328897365426096
30
0
10
0.79378784933794144
20
6.8020575531815561
30
0
10
0.65054090061891678
20
6.9030124732350382
30
0
0
SPLINE
5
140
100
AcDbEntity
8
0
100
AcDbSpline
70
0
71
2
72
6
73
3
74
0
42
0.000000001
43
0.0000000001
44
0.0000000001
40
0
40
0
40
0
40
1
40
1
40
1
10
0.65054090061891678
20
6.9030124732350382
30
0
10
0.46773047486055497
20
7.0298884102200541
30
0
10
-0.024766015617960768
20
7.0298884102200541
30
0
0
LINE
5
141
100
AcDbEntity
8
0
100
AcDbLine
10
-1.0111234959055126
20
5.6397108026837381
30
0
11
0.98887653389680974
21
5.6397108026837381
31
0
0
LINE
5
142
100
AcDbEntity
8
0
100
AcDbLine
10
0.98887653389680985
20
5.6397108026837381
30
0
11
0.98887653389680985
21
5.3750450202321085
31
0
0
LINE
5
143
100
AcDbEntity
8
0
100
AcDbLine
10
0.98887653389680985
20
5.3750450202321085
30
0
11
-0.77510713300001022
21
5.3750450202321085
31
0
0
LINE
5
144
100
AcDbEntity
8
0
100
AcDbLine
10
-0.77510713300001011
20
5.3750450202321085
30
0
11
-0.77510713300001011
21
4.3900517412518534
31
0
0
LINE
5
145
100
AcDbEntity
8
0
100
AcDbLine
10
-0.77510713300001011
20
4.3900517412518534
30
0
11
-1.0111234959055124
21
4.3900517412518534
31
0
0
LINE
5
146
100
AcDbEntity
8
0
100
AcDbLine
10
-1.0111234959055126
20
4.3900517412518534
30
0
11
-1.0111234959055126
21
5.6397108026837381
31
0
0
LINE
5
147
100
AcDbEntity
8
0
100
AcDbLine
10
-5.4681016004402476
20
5.8059701438739166
30
0
11
-5.6124417586899895
21
6.0046373280868099
31
0
0
LINE
5
148
100
AcDbEntity
8
0
100
AcDbLine
10
-5.6124417586899895
20
6.0046373280868099
30
0
11
-4.3464901622659848
21
6.9244050012851286
31
0
0
SPLINE
5
149
100
AcDbEntity
8
0
100
AcDbSpline
70
0
71
2
72
6
73
3
74
0
42
0.000000001
43
0.0000000001
44
0.0000000001
40
0
40
0
40
0
40
1
40
1
40
1
10
-4.3464901622659848
20
6.9244050012851277
30
0
10
-4.4670428152541257
20
6.9464287533517712
30
0
10
-4.6200720509263782
20
7.0131526866635134
30
0
0
SPLINE
5
150
100
AcDbEntity
8
0
100
AcDbSpline
70
0
71
2
72
6
73
3
74
0
42
0.000000001
43
0.0000000001
44
0.0000000001
40
0
40
0
40
0
40
1
40
1
40
1
10
-4.6200720509263782
20
7.0131526866635134
30
0
10
-4.7731012428052173
20
7.0798765596987909
30
0
10
-4.8746749503192186
20
7.147729277573907
30
0
0
LINE
5
151
100
AcDbEntity
8
0
100
AcDbLine
10
-4.8746749503192186
20
7.147729277573907
30
0
11
-4.6826299191838245
21
7.2872581599858846
31
0
0
SPLINE
5
152
100
AcDbEntity
8
0
100
AcDbSpline
70
0
71
2
72
6
73
3
74
0
42
0.000000001
43
0.0000000001
44
0.0000000001
40
0
40
0
40
0
40
1
40
1
40
1
10
-4.6826299191838245
20
7.2872581599858846
30
0
10
-4.4831814061617523
20
7.1775325941161272
30
0
10
-4.2810935573902587
20
7.1338046195778855
30
0
0
SPLINE
5
153
100
AcDbEntity
8
0
100
AcDbSpline
70
0
71
2
72
6
73
3
74
0
42
0.000000001
43
0.0000000001
44
0.0000000001
40
0
40
0
40
0
40
1
40
1
40
1
10
-4.2810935573902587
20
7.1338046195778855
30
0
10
-4.079005544272424
20
7.0900766723500084
30
0
10
-3.9364645999715138
20
7.1143819661800283
30
0
0
LINE
5
154
100
AcDbEntity
8
0
100
AcDbLine
10
-3.9364645999715138
20
7.1143819661800283
30
0
11
-3.8434453742258046
21
6.9863519856074072
31
0
0
LINE
5
155
100
AcDbEntity
8
0
100
AcDbLine
10
-3.8434453742258046
20
6.9863519856074063
30
0
11
-5.4681016004402476
21
5.8059701438739166
31
0
0
SPLINE
5
156
100
AcDbEntity
8
0
100
AcDbSpline
70
0
71
2
72
6
73
3
74
0
42
0.000000001
43
0.0000000001
44
0.0000000001
40
0
40
0
40
0
40
1
40
1
40
1
10
-4.3004504369849323
20
5.8769277689382644
30
0
10
-4.0134867331525816
20
6.0854191037664016
30
0
10
-3.7956481678961023
20
6.1534703570210212
30
0
0
SPLINE
5
157
100
AcDbEntity
8
0
100
AcDbSpline
70
0
71
2
72
6
73
3
74
0
42
0.000000001
43
0.0000000001
44
0.0000000001
40
0
40
0
40
0
40
1
40
1
40
1
10
-3.7956481678961023
20
6.1534703570210212
30
0
10
-3.5778095150527949
20
6.2215214897227158
30
0
10
-3.3982913929985941
20
6.174043043075442
30
0
0
SPLINE
5
158
100
AcDbEntity
8
0
100
AcDbSpline
70
0
71
2
72
6
73
3
74
0
42
0.000000001
43
0.0000000001
44
0.0000000001
40
0
40
0
40
0
40
1
40
1
40
1
10
-3.3982913929985941
20
6.174043043075442
30
0
10
-3.2187731833575652
20
6.1265644758752433
30
0
10
-3.0904708302007755
20
5.9499714366363303
30
0
0
SPLINE
5
159
100
AcDbEntity
8
0
100
AcDbSpline
70
0
71
2
72
6
73
3
74
0
42
0.000000001
43
0.0000000001
44
0.0000000001
40
0
40
0
40
0
40
1
40
1
40
1
10
-3.0904708302007755
20
5.9499714366363303
30
0
10
-2.995847802049064
20
5.8197340114280793
30
0
10
-2.9769056588708995
20
5.6834143517763387
30
0
0
SPLINE
5
160
100
AcDbEntity
8
0
100
AcDbSpline
70
0
71
2
72
6
73
3
74
0
42
0.000000001
43
0.0000000001
44
0.0000000001
40
0
40
0
40
0
40
1
40
1
40
1
10
-2.9769056588708995
20
5.6834143517763387
30
0
10
-2.957963515692736
20
5.5470946921245972
30
0
10
-3.0102358254241257
20
5.4113107103508913
30
0
0
SPLINE
5
161
100
AcDbEntity
8
0
100
AcDbSpline
70
0
71
2
72
6
73
3
74
0
42
0.000000001
43
0.0000000001
44
0.0000000001
40
0
40
0
40
0
40
1
40
1
40
1
10
-3.0102358254241257
20
5.4113107103508913
30
0
10
-3.0625078394289336
20
5.2755265750581612
30
0
10
-3.1778717048614791
20
5.1360613229992413
30
0
0
SPLINE
5
162
100
AcDbEntity
8
0
100
AcDbSpline
70
0
71
2
72
6
73
3
74
0
42
0.000000001
43
0.0000000001
44
0.0000000001
40
0
40
0
40
0
40
1
40
1
40
1
10
-3.1778717048614791
20
5.1360613229992413
30
0
10
-3.2932355702940255
20
4.9965960709403214
30
0
10
-3.5338436600957124
20
4.8217840611172633
30
0
0
SPLINE
5
163
100
AcDbEntity
8
0
100
AcDbSpline
70
0
71
2
72
6
73
3
74
0
42
0.000000001
43
0.0000000001
44
0.0000000001
40
0
40
0
40
0
40
1
40
1
40
1
10
-3.5338436600957124
20
4.8217840611172633
30
0
10
-3.818600039845359
20
4.6148964411083
30
0
10
-4.0360378077772872
20
4.5462935376623932
30
0
0
SPLINE
5
164
100
AcDbEntity
8
0
100
AcDbSpline
70
0
71
2
72
6
73
3
74
0
42
0.000000001
43
0.0000000001
44
0.0000000001
40
0
40
0
40
0
40
1
40
1
40
1
10
-4.0360378077772872
20
4.5462935376623932
30
0
10
-4.2534754005355593
20
4.4776903931106347
30
0
10
-4.4335455014737271
20
4.5247679878126252
30
0
0
SPLINE
5
165
100
AcDbEntity
8
0
100
AcDbSpline
70
0
71
2
72
6
73
3
74
0
42
0.000000001
43
0.0000000001
44
0.0000000001
40
0
40
0
40
0
40
1
40
1
40
1
10
-4.4335455014737271
20
4.5247679878126252
30
0
10
-4.6136154818589681
20
4.5718456701014452
30
0
10
-4.7427196924253456
20
4.7495423713817102
30
0
0
SPLINE
5
166
100
AcDbEntity
8
0
100
AcDbSpline
70
0
71
2
72
6
73
3
74
0
42
0.000000001
43
0.0000000001
44
0.0000000001
40
0
40
0
40
0
40
1
40
1
40
1
10
-4.7427196924253456
20
4.7495423713817102
30
0
10
-4.9127202950303968
20
4.9835281272765091
30
0
10
-4.8419856017483767
20
5.2389638902813491
30
0
0
SPLINE
5
167
100
AcDbEntity
8
0
100
AcDbSpline
70
0
71
2
72
6
73
3
74
0
42
0.000000001
43
0.0000000001
44
0.0000000001
40
0
40
0
40
0
40
1
40
1
40
1
10
-4.8419856017483767
20
5.2389638902813491
30
0
10
-4.7562813046608818
20
5.545747257994103
30
0
10
-4.3004504369849323
20
5.8769277689382644
30
0
0
SPLINE
5
168
100
AcDbEntity
8
0
100
AcDbSpline
70
0
71
2
72
6
73
3
74
0
42
0.000000001
43
0.0000000001
44
0.0000000001
40
0
40
0
40
0
40
1
40
1
40
1
10
-4.1521008603070122
20
5.672742093689223
30
0
10
-4.5505390113270767
20
5.3832598321933229
30
0
10
-4.6146722797786257
20
5.1941707342224248
30
0
0
SPLINE
5
169
100
AcDbEntity
8
0
100
AcDbSpline
70
0
71
2
72
6
73
3
74
0
42
0.000000001
43
0.0000000001
44
0.0000000001
40
0
40
0
40
0
40
1
40
1
40
1
10
-4.6146722797786257
20
5.1941707342224248
30
0
10
-4.6788055482301729
20
5.0050816362515267
30
0
10
-4.5793712004472829
20
4.8682219976893144
30
0
0
SPLINE
5
170
100
AcDbEntity
8
0
100
AcDbSpline
70
0
71
2
72
6
73
3
74
0
42
0.000000001
43
0.0000000001
44
0.0000000001
40
0
40
0
40
0
40
1
40
1
40
1
10
-4.5793712004472829
20
4.8682219976893144
30
0
10
-4.4799368526643937
20
4.7313623591271021
30
0
10
-4.2797323603121482
20
4.7343260703263503
30
0
0
SPLINE
5
171
100
AcDbEntity
8
0
100
AcDbSpline
70
0
71
2
72
6
73
3
74
0
42
0.000000001
43
0.0000000001
44
0.0000000001
40
0
40
0
40
0
40
1
40
1
40
1
10
-4.2797323603121482
20
4.7343260703263503
30
0
10
-4.0795278133391735
20
4.7372894528329184
30
0
10
-3.6821933243604601
20
5.0259698569192306
30
0
0
SPLINE
5
172
100
AcDbEntity
8
0
100
AcDbSpline
70
0
71
2
72
6
73
3
74
0
42
0.000000001
43
0.0000000001
44
0.0000000001
40
0
40
0
40
0
40
1
40
1
40
1
10
-3.6821933243604601
20
5.0259698569192306
30
0
10
-3.2826515112990435
20
5.3162539758247176
30
0
10
-3.2190702217314628
20
5.5049422218503343
30
0
0
SPLINE
5
173
100
AcDbEntity
8
0
100
AcDbSpline
70
0
71
2
72
6
73
3
74
0
42
0.000000001
43
0.0000000001
44
0.0000000001
40
0
40
0
40
0
40
1
40
1
40
1
10
-3.2190702217314628
20
5.5049422218503343
30
0
10
-3.1554887569902257
20
5.6936302267700976
30
0
10
-3.2565269071791181
20
5.8326973099679407
30
0
0
SPLINE
5
174
100
AcDbEntity
8
0
100
AcDbSpline
70
0
71
2
72
6
73
3
74
0
42
0.000000001
43
0.0000000001
44
0.0000000001
40
0
40
0
40
0
40
1
40
1
40
1
10
-3.2565269071791181
20
5.8326973099679407
30
0
10
-3.3559612549620077
20
5.969556948530153
30
0
10
-3.5311902840218581
20
5.9670327506262453
30
0
0
SPLINE
5
175
100
AcDbEntity
8
0
100
AcDbSpline
70
0
71
2
72
6
73
3
74
0
42
0.000000001
43
0.0000000001
44
0.0000000001
40
0
40
0
40
0
40
1
40
1
40
1
10
-3.5311902840218581
20
5.9670327506262453
30
0
10
-3.7536628298398735
20
5.9622242675982946
30
0
10
-4.1521008603070122
20
5.672742093689223
30
0
0
LINE
5
176
100
AcDbEntity
8
0
100
AcDbLine
10
-3.5868678732151063
20
3.2166740535406317
30
0
11
-3.414689602694525
21
3.3417688894722453
31
0
0
SPLINE
5
177
100
AcDbEntity
8
0
100
AcDbSpline
70
0
71
2
72
6
73
3
74
0
42
0.000000001
43
0.0000000001
44
0.0000000001
40
0
40
0
40
0
40
1
40
1
40
1
10
-3.414689602694525
20
3.3417688894722453
30
0
10
-3.7127912495875015
20
3.3342886546839829
30
0
10
-3.8835936220153124
20
3.5693779520672066
30
0
0
SPLINE
5
178
100
AcDbEntity
8
0
100
AcDbSpline
70
0
71
2
72
6
73
3
74
0
42
0.000000001
43
0.0000000001
44
0.0000000001
40
0
40
0
40
0
40
1
40
1
40
1
10
-3.8835936220153124
20
3.5693779520672066
30
0
10
-3.9589713716423089
20
3.6731265238596071
30
0
10
-3.9845920542113107
20
3.7919464543281634
30
0
0
SPLINE
5
179
100
AcDbEntity
8
0
100
AcDbSpline
70
0
71
2
72
6
73
3
74
0
42
0.000000001
43
0.0000000001
44
0.0000000001
40
0
40
0
40
0
40
1
40
1
40
1
10
-3.9845920542113107
20
3.7919464543281634
30
0
10
-4.0102124956744589
20
3.9107665599703756
30
0
10
-3.9817351683603306
20
3.9980661035265945
30
0
0
SPLINE
5
180
100
AcDbEntity
8
0
100
AcDbSpline
70
0
71
2
72
6
73
3
74
0
42
0.000000001
43
0.0000000001
44
0.0000000001
40
0
40
0
40
0
40
1
40
1
40
1
10
-3.9817351683603306
20
3.9980661035265945
30
0
10
-3.9532577864254725
20
4.0853653183901333
30
0
10
-3.8788951126452664
20
4.1663739973315392
30
0
0
SPLINE
5
181
100
AcDbEntity
8
0
100
AcDbSpline
70
0
71
2
72
6
73
3
74
0
42
0.000000001
43
0.0000000001
44
0.0000000001
40
0
40
0
40
0
40
1
40
1
40
1
10
-3.8788951126452664
20
4.1663739973315392
30
0
10
-3.829219603387628
20
4.2210149894088875
30
0
10
-3.7022932848563581
20
4.3132323577450098
30
0
0
LINE
5
182
100
AcDbEntity
8
0
100
AcDbLine
10
-3.7022932848563581
20
4.3132323577450098
30
0
11
-2.976054367285891
21
4.8408758168525337
31
0
0
LINE
5
183
100
AcDbEntity
8
0
100
AcDbLine
10
-2.976054367285891
20
4.8408758168525337
30
0
11
-2.8317142528295625
21
4.6422086929161042
31
0
0
LINE
5
184
100
AcDbEntity
8
0
100
AcDbLine
10
-2.8317142528295625
20
4.6422086929161033
30
0
11
-3.4817974757236096
21
4.1698955847407895
31
0
0
SPLINE
5
185
100
AcDbEntity
8
0
100
AcDbSpline
70
0
71
2
72
6
73
3
74
0
42
0.000000001
43
0.0000000001
44
0.0000000001
40
0
40
0
40
0
40
1
40
1
40
1
10
-3.4817974757236101
20
4.1698955847407895
30
0
10
-3.6374200923063582
20
4.0568291354739507
30
0
10
-3.6826808328456639
20
4.0053956606217787
30
0
0
SPLINE
5
186
100
AcDbEntity
8
0
100
AcDbSpline
70
0
71
2
72
6
73
3
74
0
42
0.000000001
43
0.0000000001
44
0.0000000001
40
0
40
0
40
0
40
1
40
1
40
1
10
-3.6826808328456639
20
4.0053956606217787
30
0
10
-3.747412078813519
20
3.9296985622291283
30
0
10
-3.7480081426550127
20
3.8365181232460523
30
0
0
SPLINE
5
187
100
AcDbEntity
8
0
100
AcDbSpline
70
0
71
2
72
6
73
3
74
0
42
0.000000001
43
0.0000000001
44
0.0000000001
40
0
40
0
40
0
40
1
40
1
40
1
10
-3.7480081426550127
20
3.8365181232460523
30
0
10
-3.7486042064965059
20
3.7433376842629755
30
0
10
-3.6836512163019375
20
3.6539375628786308
30
0
0
SPLINE
5
188
100
AcDbEntity
8
0
100
AcDbSpline
70
0
71
2
72
6
73
3
74
0
42
0.000000001
43
0.0000000001
44
0.0000000001
40
0
40
0
40
0
40
1
40
1
40
1
10
-3.6836512163019375
20
3.6539375628786308
30
0
10
-3.6186980509337134
20
3.5645372003884326
30
0
10
-3.5159602624488038
20
3.5194525341361804
30
0
0
SPLINE
5
189
100
AcDbEntity
8
0
100
AcDbSpline
70
0
71
2
72
6
73
3
74
0
42
0.000000001
43
0.0000000001
44
0.0000000001
40
0
40
0
40
0
40
1
40
1
40
1
10
-3.5159602624488038
20
3.5194525341361804
30
0
10
-3.4132221782373131
20
3.4743677143649032
30
0
10
-3.310651346796782
20
3.4991434236227974
30
0
0
SPLINE
5
190
100
AcDbEntity
8
0
100
AcDbSpline
70
0
71
2
72
6
73
3
74
0
42
0.000000001
43
0.0000000001
44
0.0000000001
40
0
40
0
40
0
40
1
40
1
40
1
10
-3.310651346796782
20
3.4991434236227974
30
0
10
-3.2080805153562508
20
3.5239191328806925
30
0
10
-3.0579763295331874
20
3.6329762075127676
30
0
0
LINE
5
191
100
AcDbEntity
8
0
100
AcDbLine
10
-3.0579763295331874
20
3.6329762075127676
30
0
11
-2.429967311889583
21
4.0892514668017146
31
0
0
LINE
5
192
100
AcDbEntity
8
0
100
AcDbLine
10
-2.429967311889583
20
4.0892514668017146
30
0
11
-2.2856271974332549
21
3.8905843428652847
31
0
0
LINE
5
193
100
AcDbEntity
8
0
100
AcDbLine
10
-2.2856271974332545
20
3.8905843428652847
30
0
11
-3.4577636626487287
21
3.0389773522603667
31
0
0
LINE
5
194
100
AcDbEntity
8
0
100
AcDbLine
10
-3.4577636626487287
20
3.0389773522603667
30
0
11
-3.5868678732151063
21
3.2166740535406317
31
0
0
LINE
5
195
100
AcDbEntity
8
0
100
AcDbLine
10
-7.2115420602512836
20
-3.4063302155720567
30
0
11
-7.4450893422409052
21
-3.4822143274921453
31
0
0
LINE
5
196
100
AcDbEntity
8
0
100
AcDbLine
10
-7.4450893422409061
20
-3.4822143274921444
30
0
11
-7.9286398239626852
21
-1.993998970503859
31
0
0
SPLINE
5
197
100
AcDbEntity
8
0
100
AcDbSpline
70
0
71
2
72
6
73
3
74
0
42
0.000000001
43
0.0000000001
44
0.0000000001
40
0
40
0
40
0
40
1
40
1
40
1
10
-7.928639823962687
20
-1.993998970503859
30
0
10
-7.9868384753692565
20
-2.1018456430164059
30
0
10
-8.097585341397167
20
-2.2267662654613001
30
0
0
SPLINE
5
198
100
AcDbEntity
8
0
100
AcDbSpline
70
0
71
2
72
6
73
3
74
0
42
0.000000001
43
0.0000000001
44
0.0000000001
40
0
40
0
40
0
40
1
40
1
40
1
10
-8.097585341397167
20
-2.2267662654613001
30
0
10
-8.2083321365658453
20
-2.3516868648826335
30
0
10
-8.304251907852807
20
-2.4273215583601435
30
0
0
LINE
5
199
100
AcDbEntity
8
0
100
AcDbLine
10
-8.304251907852807
20
-2.4273215583601435
30
0
11
-8.3776065823759964
21
-2.2015590842052761
31
0
0
SPLINE
5
200
100
AcDbEntity
8
0
100
AcDbSpline
70
0
71
2
72
6
73
3
74
0
42
0.000000001
43
0.0000000001
44
0.0000000001
40
0
40
0
40
0
40
1
40
1
40
1
10
-8.3776065823759964
20
-2.2015590842052761
30
0
10
-8.2116183879247568
20
-2.0457793408014187
30
0
10
-8.1075820331687076
20
-1.8670950626251313
30
0
0
SPLINE
5
201
100
AcDbEntity
8
0
100
AcDbSpline
70
0
71
2
72
6
73
3
74
0
42
0.000000001
43
0.0000000001
44
0.0000000001
40
0
40
0
40
0
40
1
40
1
40
1
10
-8.1075820331687076
20
-1.8670950626251313
30
0
10
-8.0035456536005469
20
-1.6884106197068192
30
0
10
-7.9826137874948202
20
-1.5453353769438216
30
0
0
LINE
5
202
100
AcDbEntity
8
0
100
AcDbLine
10
-7.9826137874948202
20
-1.5453353769438216
30
0
11
-7.8321055186310629
21
-1.4964322759440694
31
0
0
LINE
5
203
100
AcDbEntity
8
0
100
AcDbLine
10
-7.8321055186310629
20
-1.4964322759440689
30
0
11
-7.2115420602512836
21
-3.4063302155720558
31
0
0
LINE
5
204
100
AcDbEntity
8
0
100
AcDbLine
10
-6.7752876065716228
20
-2.7137483443331822
30
0
11
-6.5368081941677625
21
-2.6133102477625685
31
0
0
SPLINE
5
205
100
AcDbEntity
8
0
100
AcDbSpline
70
0
71
2
72
6
73
3
74
0
42
0.000000001
43
0.0000000001
44
0.0000000001
40
0
40
0
40
0
40
1
40
1
40
1
10
-6.5368081941677625
20
-2.613310247762568
30
0
10
-6.451383157114158
20
-2.7835100087978546
30
0
10
-6.3228259796819515
20
-2.8414344718911764
30
0
0
SPLINE
5
206
100
AcDbEntity
8
0
100
AcDbSpline
70
0
71
2
72
6
73
3
74
0
42
0.000000001
43
0.0000000001
44
0.0000000001
40
0
40
0
40
0
40
1
40
1
40
1
10
-6.3228259796819515
20
-2.8414344718911764
30
0
10
-6.1942686144841623
20
-2.8993590306558428
30
0
10
-6.0541402311185433
20
-2.8538285588990773
30
0
0
SPLINE
5
207
100
AcDbEntity
8
0
100
AcDbSpline
70
0
71
2
72
6
73
3
74
0
42
0.000000001
43
0.0000000001
44
0.0000000001
40
0
40
0
40
0
40
1
40
1
40
1
10
-6.0541402311185433
20
-2.8538285588990773
30
0
10
-5.8854671980626616
20
-2.7990233682358778
30
0
10
-5.8100081705173761
20
-2.633927644958697
30
0
0
SPLINE
5
208
100
AcDbEntity
8
0
100
AcDbSpline
70
0
71
2
72
6
73
3
74
0
42
0.000000001
43
0.0000000001
44
0.0000000001
40
0
40
0
40
0
40
1
40
1
40
1
10
-5.8100081705173761
20
-2.633927644958697
30
0
10
-5.7345493803618961
20
-2.468832155494221
30
0
10
-5.8028450879970439
20
-2.2586395804457919
30
0
0
SPLINE
5
209
100
AcDbEntity
8
0
100
AcDbSpline
70
0
71
2
72
6
73
3
74
0
42
0.000000001
43
0.0000000001
44
0.0000000001
40
0
40
0
40
0
40
1
40
1
40
1
10
-5.8028450879970439
20
-2.2586395804457919
30
0
10
-5.8677681663892054
20
-2.0588268908954999
30
0
10
-6.0175208868188488
20
-1.9798171823466499
30
0
0
SPLINE
5
210
100
AcDbEntity
8
0
100
AcDbSpline
70
0
71
2
72
6
73
3
74
0
42
0.000000001
43
0.0000000001
44
0.0000000001
40
0
40
0
40
0
40
1
40
1
40
1
10
-6.0175208868188488
20
-1.9798171823466499
30
0
10
-6.167273890685423
20
-1.9008075658920409
30
0
10
-6.3489218160435907
20
-1.9598285546207546
30
0
0
SPLINE
5
211
100
AcDbEntity
8
0
100
AcDbSpline
70
0
71
2
72
6
73
3
74
0
42
0.000000001
43
0.0000000001
44
0.0000000001
40
0
40
0
40
0
40
1
40
1
40
1
10
-6.3489218160435907
20
-1.9598285546207546
30
0
10
-6.4618029822617915
20
-1.9965058688587887
30
0
10
-6.5359746024433534
20
-2.0772670035831773
30
0
0
SPLINE
5
212
100
AcDbEntity
8
0
100
AcDbSpline
70
0
71
2
72
6
73
3
74
0
42
0.000000001
43
0.0000000001
44
0.0000000001
40
0
40
0
40
0
40
1
40
1
40
1
10
-6.5359746024433534
20
-2.0772670035831773
30
0
10
-6.6101462226249126
20
-2.1580281383075666
30
0
10
-6.6354861775594056
20
-2.2566329359647561
30
0
0
LINE
5
213
100
AcDbEntity
8
0
100
AcDbLine
10
-6.6354861775594056
20
-2.2566329359647561
30
0
11
-6.8640357827510989
21
-2.2993350157178067
31
0
0
LINE
5
214
100
AcDbEntity
8
0
100
AcDbLine
10
-6.8640357827510989
20
-2.2993350157178067
30
0
11
-6.9972415643943719
21
-1.2624646600013436
31
0
0
LINE
5
215
100
AcDbEntity
8
0
100
AcDbLine
10
-6.9972415643943719
20
-1.2624646600013434
30
0
11
-6.0513749766764402
21
-0.95513397564317759
31
0
0
LINE
5
216
100
AcDbEntity
8
0
100
AcDbLine
10
-6.0513749766764402
20
-0.9551339756431777
30
0
11
-5.9788635170228988
21
-1.1783013012754302
31
0
0
LINE
5
217
100
AcDbEntity
8
0
100
AcDbLine
10
-5.9788635170228988
20
-1.17830130127543
30
0
11
-6.7378921657743618
21
-1.4249246592598284
31
0
0
LINE
5
218
100
AcDbEntity
8
0
100
AcDbLine
10
-6.7378921657743618
20
-1.4249246592598284
30
0
11
-6.6742916785782382
21
-1.9694385030779382
31
0
0
SPLINE
5
219
100
AcDbEntity
8
0
100
AcDbSpline
70
0
71
2
72
6
73
3
74
0
42
0.000000001
43
0.0000000001
44
0.0000000001
40
0
40
0
40
0
40
1
40
1
40
1
10
-6.6742916785782374
20
-1.9694385030779387
30
0
10
-6.5418088519889972
20
-1.7944215312228669
30
0
10
-6.3536734804796859
20
-1.733292643461396
30
0
0
SPLINE
5
220
100
AcDbEntity
8
0
100
AcDbSpline
70
0
71
2
72
6
73
3
74
0
42
0.000000001
43
0.0000000001
44
0.0000000001
40
0
40
0
40
0
40
1
40
1
40
1
10
-6.3536734804796859
20
-1.733292643461396
30
0
10
-6.1045562285243937
20
-1.6523495416297063
30
0
10
-5.8772184095093971
20
-1.7692667005939744
30
0
0
SPLINE
5
221
100
AcDbEntity
8
0
100
AcDbSpline
70
0
71
2
72
6
73
3
74
0
42
0.000000001
43
0.0000000001
44
0.0000000001
40
0
40
0
40
0
40
1
40
1
40
1
10
-5.8772184095093971
20
-1.7692667005939744
30
0
10
-5.6498805444472815
20
-1.8861840012767068
30
0
10
-5.561770668789034
20
-2.1573583150526514
30
0
0
SPLINE
5
222
100
AcDbEntity
8
0
100
AcDbSpline
70
0
71
2
72
6
73
3
74
0
42
0.000000001
43
0.0000000001
44
0.0000000001
40
0
40
0
40
0
40
1
40
1
40
1
10
-5.561770668789034
20
-2.1573583150526514
30
0
10
-5.4778765451491811
20
-2.4155578782447731
30
0
10
-5.5672558305801223
20
-2.6525961629882522
30
0
0
SPLINE
5
223
100
AcDbEntity
8
0
100
AcDbSpline
70
0
71
2
72
6
73
3
74
0
42
0.000000001
43
0.0000000001
44
0.0000000001
40
0
40
0
40
0
40
1
40
1
40
1
10
-5.5672558305801223
20
-2.6525961629882522
30
0
10
-5.6751603640784758
20
-2.942991105196493
30
0
10
-5.9917466591939625
20
-3.0458562280369184
30
0
0
SPLINE
5
224
100
AcDbEntity
8
0
100
AcDbSpline
70
0
71
2
72
6
73
3
74
0
42
0.000000001
43
0.0000000001
44
0.0000000001
40
0
40
0
40
0
40
1
40
1
40
1
10
-5.9917466591939625
20
-3.0458562280369184
30
0
10
-6.2512436549289276
20
-3.1301719130644745
30
0
10
-6.4625922248618597
20
-3.0381833145445771
30
0
0
SPLINE
5
225
100
AcDbEntity
8
0
100
AcDbSpline
70
0
71
2
72
6
73
3
74
0
42
0.000000001
43
0.0000000001
44
0.0000000001
40
0
40
0
40
0
40
1
40
1
40
1
10
-6.4625922248618597
20
-3.0381833145445771
30
0
10
-6.6739408408419116
20
-2.9461945743062143
30
0
10
-6.7752876065716228
20
-2.7137483443331822
30
0
0
LINE
5
226
100
AcDbEntity
8
0
100
AcDbLine
10
-4.1676419488183578
20
-2.4173071160019601
30
0
11
-4.2334081960330465
21
-2.2148994196475176
31
0
0
SPLINE
5
227
100
AcDbEntity
8
0
100
AcDbSpline
70
0
71
2
72
6
73
3
74
0
42
0.000000001
43
0.0000000001
44
0.0000000001
40
0
40
0
40
0
40
1
40
1
40
1
10
-4.2334081960330456
20
-2.2148994196475176
30
0
10
-4.3184125449353399
20
-2.5007224531148875
30
0
10
-4.5947765888826559
20
-2.5905185743239469
30
0
0
SPLINE
5
228
100
AcDbEntity
8
0
100
AcDbSpline
70
0
71
2
72
6
73
3
74
0
42
0.000000001
43
0.0000000001
44
0.0000000001
40
0
40
0
40
0
40
1
40
1
40
1
10
-4.5947765888826559
20
-2.5905185743239469
30
0
10
-4.7167403497746161
20
-2.630147002464386
30
0
10
-4.8376620452337811
20
-2.6177963417883312
30
0
0
SPLINE
5
229
100
AcDbEntity
8
0
100
AcDbSpline
70
0
71
2
72
6
73
3
74
0
42
0.000000001
43
0.0000000001
44
0.0000000001
40
0
40
0
40
0
40
1
40
1
40
1
10
-4.8376620452337811
20
-2.6177963417883312
30
0
10
-4.9585838327871867
20
-2.6054453976753464
30
0
10
-5.0328106544614784
20
-2.5513848074065271
30
0
0
SPLINE
5
230
100
AcDbEntity
8
0
100
AcDbSpline
70
0
71
2
72
6
73
3
74
0
42
0.000000001
43
0.0000000001
44
0.0000000001
40
0
40
0
40
0
40
1
40
1
40
1
10
-5.0328106544614784
20
-2.5513848074065271
30
0
10
-5.1070371466517193
20
-2.4973242667619311
30
0
10
-5.1611016486901615
20
-2.4015681028093763
30
0
0
SPLINE
5
231
100
AcDbEntity
8
0
100
AcDbSpline
70
0
71
2
72
6
73
3
74
0
42
0.000000001
43
0.0000000001
44
0.0000000001
40
0
40
0
40
0
40
1
40
1
40
1
10
-5.1611016486901615
20
-2.4015681028093763
30
0
10
-5.1977177436973152
20
-2.3374388908882118
30
0
10
-5.2461992833093651
20
-2.1882280545672983
30
0
0
LINE
5
232
100
AcDbEntity
8
0
100
AcDbLine
10
-5.2461992833093651
20
-2.1882280545672983
30
0
11
-5.52359786586835
21
-1.3344830037897581
31
0
0
LINE
5
233
100
AcDbEntity
8
0
100
AcDbLine
10
-5.52359786586835
20
-1.3344830037897581
30
0
11
-5.2900506547379607
21
-1.2585989148932297
31
0
0
LINE
5
234
100
AcDbEntity
8
0
100
AcDbLine
10
-5.2900506547379607
20
-1.2585989148932297
30
0
11
-5.0417409591085089
21
-2.0228175772529933
31
0
0
SPLINE
5
235
100
AcDbEntity
8
0
100
AcDbSpline
70
0
71
2
72
6
73
3
74
0
42
0.000000001
43
0.0000000001
44
0.0000000001
40
0
40
0
40
0
40
1
40
1
40
1
10
-5.0417409591085089
20
-2.0228175772529928
30
0
10
-4.9822984089920919
20
-2.205762935154004
30
0
10
-4.9473686055828709
20
-2.2647022751853325
30
0
0
SPLINE
5
236
100
AcDbEntity
8
0
100
AcDbSpline
70
0
71
2
72
6
73
3
74
0
42
0.000000001
43
0.0000000001
44
0.0000000001
40
0
40
0
40
0
40
1
40
1
40
1
10
-4.9473686055828709
20
-2.2647022751853325
30
0
10
-4.8953794419630379
20
-2.3496570382991671
30
0
10
-4.8069437721336943
20
-2.3790182678888354
30
0
0
SPLINE
5
237
100
AcDbEntity
8
0
100
AcDbSpline
70
0
71
2
72
6
73
3
74
0
42
0.000000001
43
0.0000000001
44
0.0000000001
40
0
40
0
40
0
40
1
40
1
40
1
10
-4.8069437721336943
20
-2.3790182678888354
30
0
10
-4.7185081023043498
20
-2.4083794974785047
30
0
10
-4.6134119564985996
20
-2.3742316897080511
30
0
0
SPLINE
5
238
100
AcDbEntity
8
0
100
AcDbSpline
70
0
71
2
72
6
73
3
74
0
42
0.000000001
43
0.0000000001
44
0.0000000001
40
0
40
0
40
0
40
1
40
1
40
1
10
-4.6134119564985996
20
-2.3742316897080511
30
0
10
-4.5083155272559203
20
-2.3400837898433564
30
0
10
-4.4336897390253878
20
-2.2563062746926992
30
0
0
SPLINE
5
239
100
AcDbEntity
8
0
100
AcDbSpline
70
0
71
2
72
6
73
3
74
0
42
0.000000001
43
0.0000000001
44
0.0000000001
40
0
40
0
40
0
40
1
40
1
40
1
10
-4.4336897390253878
20
-2.2563062746926992
30
0
10
-4.3590637134050469
20
-2.1725285257293359
30
0
10
-4.3509306830983094
20
-2.0673217528976249
30
0
0
SPLINE
5
240
100
AcDbEntity
8
0
100
AcDbSpline
70
0
71
2
72
6
73
3
74
0
42
0.000000001
43
0.0000000001
44
0.0000000001
40
0
40
0
40
0
40
1
40
1
40
1
10
-4.3509306830983094
20
-2.0673217528976249
30
0
10
-4.3427976527915728
20
-1.9621149800659143
30
0
10
-4.4001323499223526
20
-1.7856569265975826
30
0
0
LINE
5
241
100
AcDbEntity
8
0
100
AcDbLine
10
-4.4001323499223526
20
-1.7856569265975826
30
0
11
-4.6400104494207772
21
-1.0473880488423943
31
0
0
LINE
5
242
100
AcDbEntity
8
0
100
AcDbLine
10
-4.6400104494207772
20
-1.0473880488423943
30
0
11
-4.4064632382903879
21
-0.9715039599458658
31
0
0
LINE
5
243
100
AcDbEntity
8
0
100
AcDbLine
10
-4.4064632382903879
20
-0.97150395994586569
30
0
11
-3.9587469480312358
21
-2.3494330158016359
31
0
0
LINE
5
244
100
AcDbEntity
8
0
100
AcDbLine
10
-3.9587469480312354
20
-2.3494330158016359
30
0
11
-4.1676419488183569
21
-2.4173071160019601
31
0
0
LINE
5
245
100
AcDbEntity
8
0
100
AcDbLine
10
-7.8364507475445047
20
1.4830590364519103
30
0
11
-8.0699980295341263
21
1.5589431483719989
31
0
0
LINE
5
246
100
AcDbEntity
8
0
100
AcDbLine
10
-8.0699980295341263
20
1.5589431483719989
30
0
11
-7.5864475478123472
21
3.0471585053602848
31
0
0
SPLINE
5
247
100
AcDbEntity
8
0
100
AcDbSpline
70
0
71
2
72
6
73
3
74
0
42
0.000000001
43
0.0000000001
44
0.0000000001
40
0
40
0
40
0
40
1
40
1
40
1
10
-7.5864475478123463
20
3.0471585053602839
30
0
10
-7.6969219294616567
20
2.9941170235109373
30
0
10
-7.8599445257323062
20
2.9581494915939373
30
0
0
SPLINE
5
248
100
AcDbEntity
8
0
100
AcDbSpline
70
0
71
2
72
6
73
3
74
0
42
0.000000001
43
0.0000000001
44
0.0000000001
40
0
40
0
40
0
40
1
40
1
40
1
10
-7.8599445257323062
20
2.9581494915939373
30
0
10
-8.0229670511437234
20
2.9221819366533772
30
0
10
-8.1450247335991772
20
2.9173724112314758
30
0
0
LINE
5
249
100
AcDbEntity
8
0
100
AcDbLine
10
-8.1450247335991772
20
2.9173724112314758
30
0
11
-8.0716700590759878
21
3.1431348853863428
31
0
0
SPLINE
5
250
100
AcDbEntity
8
0
100
AcDbSpline
70
0
71
2
72
6
73
3
74
0
42
0.000000001
43
0.0000000001
44
0.0000000001
40
0
40
0
40
0
40
1
40
1
40
1
10
-8.0716700590759878
20
3.1431348853863428
30
0
10
-7.8458177531206283
20
3.171597932426339
30
0
10
-7.656622590561617
20
3.2550055150707018
30
0
0
SPLINE
5
251
100
AcDbEntity
8
0
100
AcDbSpline
70
0
71
2
72
6
73
3
74
0
42
0.000000001
43
0.0000000001
44
0.0000000001
40
0
40
0
40
0
40
1
40
1
40
1
10
-7.656622590561617
20
3.2550055150707018
30
0
10
-7.4674273110962508
20
3.3384132164099696
30
0
10
-7.3663955580284828
20
3.4418600770796495
30
0
0
LINE
5
252
100
AcDbEntity
8
0
100
AcDbLine
10
-7.3663955580284828
20
3.4418600770796495
30
0
11
-7.2158872891647254
21
3.3929569760798968
31
0
0
LINE
5
253
100
AcDbEntity
8
0
100
AcDbLine
10
-7.2158872891647254
20
3.3929569760798968
30
0
11
-7.8364507475445047
21
1.4830590364519103
31
0
0
LINE
5
254
100
AcDbEntity
8
0
100
AcDbLine
10
-7.0764240707265653
20
1.7869456061603457
30
0
11
-6.824454141350758
21
1.7280270515822806
31
0
0
SPLINE
5
255
100
AcDbEntity
8
0
100
AcDbSpline
70
0
71
2
72
6
73
3
74
0
42
0.000000001
43
0.0000000001
44
0.0000000001
40
0
40
0
40
0
40
1
40
1
40
1
10
-6.8244541413507562
20
1.7280270515822806
30
0
10
-6.855384744109525
20
1.5401209755095318
30
0
10
-6.7854269479712102
20
1.4176950875059935
30
0
0
SPLINE
5
256
100
AcDbEntity
8
0
100
AcDbSpline
70
0
71
2
72
6
73
3
74
0
42
0.000000001
43
0.0000000001
44
0.0000000001
40
0
40
0
40
0
40
1
40
1
40
1
10
-6.7854269479712102
20
1.4176950875059935
30
0
10
-6.7154690561615515
20
1.2952690117368693
30
0
10
-6.5753406727959316
20
1.2497385399801042
30
0
0
SPLINE
5
257
100
AcDbEntity
8
0
100
AcDbSpline
70
0
71
2
72
6
73
3
74
0
42
0.000000001
43
0.0000000001
44
0.0000000001
40
0
40
0
40
0
40
1
40
1
40
1
10
-6.5753406727959316
20
1.2497385399801042
30
0
10
-6.4066676397400517
20
1.1949333493169045
30
0
10
-6.2485791727180207
20
1.284144891603316
30
0
0
SPLINE
5
258
100
AcDbEntity
8
0
100
AcDbSpline
70
0
71
2
72
6
73
3
74
0
42
0.000000001
43
0.0000000001
44
0.0000000001
40
0
40
0
40
0
40
1
40
1
40
1
10
-6.2485791727180207
20
1.284144891603316
30
0
10
-6.0904910351800385
20
1.3733563842655039
30
0
10
-6.0221953275448916
20
1.5835489593139336
30
0
0
SPLINE
5
259
100
AcDbEntity
8
0
100
AcDbSpline
70
0
71
2
72
6
73
3
74
0
42
0.000000001
43
0.0000000001
44
0.0000000001
40
0
40
0
40
0
40
1
40
1
40
1
10
-6.0221953275448916
20
1.5835489593139336
30
0
10
-5.9572722491527301
20
1.7833616488642252
30
0
10
-6.0319840034612522
20
1.9353042863600789
30
0
0
SPLINE
5
260
100
AcDbEntity
8
0
100
AcDbSpline
70
0
71
2
72
6
73
3
74
0
42
0.000000001
43
0.0000000001
44
0.0000000001
40
0
40
0
40
0
40
1
40
1
40
1
10
-6.0319840034612522
20
1.9353042863600789
30
0
10
-6.1066960412067033
20
2.0872470159501737
30
0
10
-6.288343966564871
20
2.1462680046788871
30
0
0
SPLINE
5
261
100
AcDbEntity
8
0
100
AcDbSpline
70
0
71
2
72
6
73
3
74
0
42
0.000000001
43
0.0000000001
44
0.0000000001
40
0
40
0
40
0
40
1
40
1
40
1
10
-6.288343966564871
20
2.1462680046788871
30
0
10
-6.4012251327830727
20
2.1829453189169215
30
0
10
-6.5087014379596795
20
2.161205172921246
30
0
0
SPLINE
5
262
100
AcDbEntity
8
0
100
AcDbSpline
70
0
71
2
72
6
73
3
74
0
42
0.000000001
43
0.0000000001
44
0.0000000001
40
0
40
0
40
0
40
1
40
1
40
1
10
-6.5087014379596795
20
2.161205172921246
30
0
10
-6.616177743136288
20
2.1394650269255706
30
0
10
-6.6946366431831672
20
2.0745865216982518
30
0
0
LINE
5
263
100
AcDbEntity
8
0
100
AcDbLine
10
-6.6946366431831672
20
2.0745865216982518
30
0
11
-6.9046368105619917
21
2.174377900831824
31
0
0
LINE
5
264
100
AcDbEntity
8
0
100
AcDbLine
10
-6.9046368105619917
20
2.174377900831824
30
0
11
-6.4029454480310104
21
3.0915200335400472
31
0
0
LINE
5
265
100
AcDbEntity
8
0
100
AcDbLine
10
-6.4029454480310104
20
3.0915200335400472
30
0
11
-5.4570788603130786
21
2.7841893491818812
31
0
0
LINE
5
266
100
AcDbEntity
8
0
100
AcDbLine
10
-5.4570788603130795
20
2.7841893491818812
30
0
11
-5.529590319966621
21
2.5610220235496293
31
0
0
LINE
5
267
100
AcDbEntity
8
0
100
AcDbLine
10
-5.529590319966621
20
2.5610220235496288
30
0
11
-6.2886189687180831
21
2.8076453815340274
31
0
0
LINE
5
268
100
AcDbEntity
8
0
100
AcDbLine
10
-6.2886189687180831
20
2.8076453815340274
30
0
11
-6.5572223007912642
21
2.3297409998002525
31
0
0
SPLINE
5
269
100
AcDbEntity
8
0
100
AcDbSpline
70
0
71
2
72
6
73
3
74
0
42
0.000000001
43
0.0000000001
44
0.0000000001
40
0
40
0
40
0
40
1
40
1
40
1
10
-6.5572223007912642
20
2.3297409998002525
30
0
10
-6.3471690476604419
20
2.393461252683871
30
0
10
-6.1590336761511297
20
2.3323323649224004
30
0
0
SPLINE
5
270
100
AcDbEntity
8
0
100
AcDbSpline
70
0
71
2
72
6
73
3
74
0
42
0.000000001
43
0.0000000001
44
0.0000000001
40
0
40
0
40
0
40
1
40
1
40
1
10
-6.1590336761511297
20
2.3323323649224004
30
0
10
-5.9099164241958384
20
2.2513892630907106
30
0
10
-5.7947184469277015
20
2.0231754772492305
30
0
0
SPLINE
5
271
100
AcDbEntity
8
0
100
AcDbSpline
70
0
71
2
72
6
73
3
74
0
42
0.000000001
43
0.0000000001
44
0.0000000001
40
0
40
0
40
0
40
1
40
1
40
1
10
-5.7947184469277015
20
2.0231754772492305
30
0
10
-5.6795205157066855
20
1.7949615496892863
30
0
10
-5.7676303913649329
20
1.5237872359133413
30
0
0
SPLINE
5
272
100
AcDbEntity
8
0
100
AcDbSpline
70
0
71
2
72
6
73
3
74
0
42
0.000000001
43
0.0000000001
44
0.0000000001
40
0
40
0
40
0
40
1
40
1
40
1
10
-5.7676303913649329
20
1.5237872359133413
30
0
10
-5.8515245150047859
20
1.2655876727212201
30
0
10
-6.0631614838644277
20
1.1263554978830044
30
0
0
SPLINE
5
273
100
AcDbEntity
8
0
100
AcDbSpline
70
0
71
2
72
6
73
3
74
0
42
0.000000001
43
0.0000000001
44
0.0000000001
40
0
40
0
40
0
40
1
40
1
40
1
10
-6.0631614838644277
20
1.1263554978830044
30
0
10
-6.3211479496050256
20
0.95484574800183797
30
0
10
-6.6377342447205123
20
1.0577108708422633
30
0
0
SPLINE
5
274
100
AcDbEntity
8
0
100
AcDbSpline
70
0
71
2
72
6
73
3
74
0
42
0.000000001
43
0.0000000001
44
0.0000000001
40
0
40
0
40
0
40
1
40
1
40
1
10
-6.6377342447205123
20
1.0577108708422633
30
0
10
-6.8972312404554774
20
1.1420265558698199
30
0
10
-7.0141462836790112
20
1.3406744678608336
30
0
0
SPLINE
5
275
100
AcDbEntity
8
0
100
AcDbSpline
70
0
71
2
72
6
73
3
74
0
42
0.000000001
43
0.0000000001
44
0.0000000001
40
0
40
0
40
0
40
1
40
1
40
1
10
-7.0141462836790112
20
1.3406744678608336
30
0
10
-7.1310612808554268
20
1.539322521570311
30
0
10
-7.0764240707265653
20
1.7869456061603457
30
0
0
LINE
5
276
100
AcDbEntity
8
0
100
AcDbLine
10
-5.6761380525591507
20
0.78113089182917761
30
0
11
-5.0581040545998324
21
2.6832439527631773
31
0
0
LINE
5
277
100
AcDbEntity
8
0
100
AcDbLine
10
-5.0581040545998324
20
2.6832439527631773
30
0
11
-4.8063919375588542
21
2.6014577281560811
31
0
0
LINE
5
278
100
AcDbEntity
8
0
100
AcDbLine
10
-4.8063919375588533
20
2.6014577281560811
30
0
11
-5.3514928684298084
21
0.92380956711564122
31
0
0
LINE
5
279
100
AcDbEntity
8
0
100
AcDbLine
10
-5.3514928684298084
20
0.92380956711564099
30
0
11
-4.4147085919487061
21
0.6194299045656384
31
0
0
LINE
5
280
100
AcDbEntity
8
0
100
AcDbLine
10
-4.4147085919487061
20
0.61942990456563818
30
0
11
-4.487641659037072
21
0.39496500467207846
31
0
0
LINE
5
281
100
AcDbEntity
8
0
100
AcDbLine
10
-4.487641659037072
20
0.39496500467207873
30
0
11
-5.6761380525591507
21
0.78113089182917761
31
0
0
LINE
5
282
100
AcDbEntity
8
0
100
AcDbLine
10
0.775107133000009
20
-7.3232035656516832
30
0
11
1.0111234959055113
21
-7.3232035656516832
31
0
0
LINE
5
283
100
AcDbEntity
8
0
100
AcDbLine
10
1.0111234959055115
20
-7.3232035656516832
30
0
11
1.0111234959055113
21
-8.6451679878925365
31
0
0
SPLINE
5
284
100
AcDbEntity
8
0
100
AcDbSpline
70
0
71
2
72
6
73
3
74
0
42
0.000000001
43
0.0000000001
44
0.0000000001
40
0
40
0
40
0
40
1
40
1
40
1
10
1.0111234959055109
20
-8.6451679878925365
30
0
10
0.92244683465253552
20
-8.6478965022658389
30
0
10
0.8405914779592677
20
-8.6165186055993122
30
0
0
SPLINE
5
285
100
AcDbEntity
8
0
100
AcDbSpline
70
0
71
2
72
6
73
3
74
0
42
0.000000001
43
0.0000000001
44
0.0000000001
40
0
40
0
40
0
40
1
40
1
40
1
10
0.8405914779592677
20
-8.6165186055993122
30
0
10
0.70553003510724743
20
-8.5660411176328939
30
0
10
0.57456149420034131
20
-8.4548542221133989
30
0
0
SPLINE
5
286
100
AcDbEntity
8
0
100
AcDbSpline
70
0
71
2
72
6
73
3
74
0
42
0.000000001
43
0.0000000001
44
0.0000000001
40
0
40
0
40
0
40
1
40
1
40
1
10
0.57456149420034131
20
-8.4548542221133989
30
0
10
0.44359280428182324
20
-8.3436673079674524
30
0
10
0.2716965850282832
20
-8.1335718129818719
30
0
0
SPLINE
5
287
100
AcDbEntity
8
0
100
AcDbSpline
70
0
71
2
72
6
73
3
74
0
42
0.000000001
43
0.0000000001
44
0.0000000001
40
0
40
0
40
0
40
1
40
1
40
1
10
0.2716965850282832
20
-8.1335718129818719
30
0
10
0.0043022509504483941
20
-7.8075145502631944
30
0
10
-0.1519051317285372
20
-7.6929170210902971
30
0
0
SPLINE
5
288
100
AcDbEntity
8
0
100
AcDbSpline
70
0
71
2
72
6
73
3
74
0
42
0.000000001
43
0.0000000001
44
0.0000000001
40
0
40
0
40
0
40
1
40
1
40
1
10
-0.1519051317285372
20
-7.6929170210902971
30
0
10
-0.3081125144075228
20
-7.5783194919173997
30
0
10
-0.44726671019304526
20
-7.5783194919173997
30
0
0
SPLINE
5
289
100
AcDbEntity
8
0
100
AcDbSpline
70
0
71
2
72
6
73
3
74
0
42
0.000000001
43
0.0000000001
44
0.0000000001
40
0
40
0
40
0
40
1
40
1
40
1
10
-0.44726671019304526
20
-7.5783194919173997
30
0
10
-0.59324206152666337
20
-7.5783194919173997
30
0
10
-0.69351495543230302
20
-7.6826850642507356
30
0
0
SPLINE
5
290
100
AcDbEntity
8
0
100
AcDbSpline
70
0
71
2
72
6
73
3
74
0
42
0.000000001
43
0.0000000001
44
0.0000000001
40
0
40
0
40
0
40
1
40
1
40
1
10
-0.69351495543230302
20
-7.6826850642507356
30
0
10
-0.79378784933794289
20
-7.7870507110898775
30
0
10
-0.79378784933794289
20
-7.9548542519157213
30
0
0
SPLINE
5
291
100
AcDbEntity
8
0
100
AcDbSpline
70
0
71
2
72
6
73
3
74
0
42
0.000000001
43
0.0000000001
44
0.0000000001
40
0
40
0
40
0
40
1
40
1
40
1
10
-0.79378784933794289
20
-7.9548542519157213
30
0
10
-0.79378784933794289
20
-8.1322075371687692
30
0
10
-0.68737582603204994
20
-8.2386195604746622
30
0
0
SPLINE
5
292
100
AcDbEntity
8
0
100
AcDbSpline
70
0
71
2
72
6
73
3
74
0
42
0.000000001
43
0.0000000001
44
0.0000000001
40
0
40
0
40
0
40
1
40
1
40
1
10
-0.68737582603204994
20
-8.2386195604746622
30
0
10
-0.580963802726157
20
-8.3450315837805551
30
0
10
-0.39269642272699623
20
-8.3463958223407548
30
0
0
LINE
5
293
100
AcDbEntity
8
0
100
AcDbLine
10
-0.39269642272699623
20
-8.3463958223407548
30
0
11
-0.41861729064691816
21
-8.5987832714860719
31
0
0
SPLINE
5
294
100
AcDbEntity
8
0
100
AcDbSpline
70
0
71
2
72
6
73
3
74
0
42
0.000000001
43
0.0000000001
44
0.0000000001
40
0
40
0
40
0
40
1
40
1
40
1
10
-0.41861729064691822
20
-8.5987832714860719
30
0
10
-0.7010182861398534
20
-8.57286240356615
30
0
10
-0.8490401629518346
20
-8.4036945869272035
30
0
0
SPLINE
5
295
100
AcDbEntity
8
0
100
AcDbSpline
70
0
71
2
72
6
73
3
74
0
42
0.000000001
43
0.0000000001
44
0.0000000001
40
0
40
0
40
0
40
1
40
1
40
1
10
-0.8490401629518346
20
-8.4036945869272035
30
0
10
-0.99706203976381569
20
-8.234526770288257
30
0
10
-0.99706203976381569
20
-7.9493972231691163
30
0
0
SPLINE
5
296
100
AcDbEntity
8
0
100
AcDbSpline
70
0
71
2
72
6
73
3
74
0
42
0.000000001
43
0.0000000001
44
0.0000000001
40
0
40
0
40
0
40
1
40
1
40
1
10
-0.99706203976381569
20
-7.9493972231691163
30
0
10
-0.99706203976381547
20
-7.6615391244237703
30
0
10
-0.83744407931078202
20
-7.4937355835979265
30
0
0
SPLINE
5
297
100
AcDbEntity
8
0
100
AcDbSpline
70
0
71
2
72
6
73
3
74
0
42
0.000000001
43
0.0000000001
44
0.0000000001
40
0
40
0
40
0
40
1
40
1
40
1
10
-0.83744407931078202
20
-7.4937355835979265
30
0
10
-0.67782596984613663
20
-7.3259319682662767
30
0
10
-0.44180960694063437
20
-7.3259319682662767
30
0
0
SPLINE
5
298
100
AcDbEntity
8
0
100
AcDbSpline
70
0
71
2
72
6
73
3
74
0
42
0.000000001
43
0.0000000001
44
0.0000000001
40
0
40
0
40
0
40
1
40
1
40
1
10
-0.44180960694063437
20
-7.3259319682662767
30
0
10
-0.32175512352693808
20
-7.3259319682662767
30
0
10
-0.20579324403513205
20
-7.3750453014915269
30
0
0
SPLINE
5
299
100
AcDbEntity
8
0
100
AcDbSpline
70
0
71
2
72
6
73
3
74
0
42
0.000000001
43
0.0000000001
44
0.0000000001
40
0
40
0
40
0
40
1
40
1
40
1
10
-0.20579324403513205
20
-7.3750453014915269
30
0
10
-0.089831513554937958
20
-7.4241584857051652
30
0
10
0.038408624737374664
20
-7.5380739142244142
30
0
0
SPLINE
5
300
100
AcDbEntity
8
0
100
AcDbSpline
70
0
71
2
72
6
73
3
74
0
42
0.000000001
43
0.0000000001
44
0.0000000001
40
0
40
0
40
0
40
1
40
1
40
1
10
0.038408624737374664
20
-7.5380739142244142
30
0
10
0.16664876302968729
20
-7.6519893427436632
30
0
10
0.39038671812307107
20
-7.9166550506894868
30
0
0
SPLINE
5
301
100
AcDbEntity
8
0
100
AcDbSpline
70
0
71
2
72
6
73
3
74
0
42
0.000000001
43
0.0000000001
44
0.0000000001
40
0
40
0
40
0
40
1
40
1
40
1
10
0.39038671812307107
20
-7.9166550506894868
30
0
10
0.57592569550763806
20
-8.1376645659153741
30
0
10
0.6420920666147395
20
-8.2004203592484277
30
0
0
SPLINE
5
302
100
AcDbEntity
8
0
100
AcDbSpline
70
0
71
2
72
6
73
3
74
0
42
0.000000001
43
0.0000000001
44
0.0000000001
40
0
40
0
40
0
40
1
40
1
40
1
10
0.6420920666147395
20
-8.2004203592484277
30
0
10
0.70825858673345288
20
-8.2631761898343843
30
0
10
0.77510713300000866
20
-8.3041038681810182
30
0
0
LINE
5
303
100
AcDbEntity
8
0
100
AcDbLine
10
0.77510713300000866
20
-8.3041038681810182
30
0
11
0.77510713300000877
21
-7.3232035656516832
31
0
0
SPLINE
5
304
100
AcDbEntity
8
0
100
AcDbSpline
70
0
71
2
72
6
73
3
74
0
42
0.000000001
43
0.0000000001
44
0.0000000001
40
0
40
0
40
0
40
1
40
1
40
1
10
0.02476601561795938
20
-7.0599019845073503
30
0
10
-0.32994062939394231
20
-7.0599019845073503
30
0
10
-0.54617525377977605
20
-6.9869143088405412
30
0
0
SPLINE
5
305
100
AcDbEntity
8
0
100
AcDbSpline
70
0
71
2
72
6
73
3
74
0
42
0.000000001
43
0.0000000001
44
0.0000000001
40
0
40
0
40
0
40
1
40
1
40
1
10
-0.54617525377977605
20
-6.9869143088405412
30
0
10
-0.76240987816560979
20
-6.9139264841621202
30
0
10
-0.87973595896471257
20
-6.7699975092952531
30
0
0
SPLINE
5
306
100
AcDbEntity
8
0
100
AcDbSpline
70
0
71
2
72
6
73
3
74
0
42
0.000000001
43
0.0000000001
44
0.0000000001
40
0
40
0
40
0
40
1
40
1
40
1
10
-0.87973595896471257
20
-6.7699975092952531
30
0
10
-0.99706203976381536
20
-6.6260683854167741
30
0
10
-0.99706203976381524
20
-6.4077873845641893
30
0
0
SPLINE
5
307
100
AcDbEntity
8
0
100
AcDbSpline
70
0
71
2
72
6
73
3
74
0
42
0.000000001
43
0.0000000001
44
0.0000000001
40
0
40
0
40
0
40
1
40
1
40
1
10
-0.99706203976381524
20
-6.4077873845641893
30
0
10
-0.99706203976381524
20
-6.2468050737922471
30
0
10
-0.93225986996401056
20
-6.1253862400596422
30
0
0
SPLINE
5
308
100
AcDbEntity
8
0
100
AcDbSpline
70
0
71
2
72
6
73
3
74
0
42
0.000000001
43
0.0000000001
44
0.0000000001
40
0
40
0
40
0
40
1
40
1
40
1
10
-0.93225986996401056
20
-6.1253862400596422
30
0
10
-0.86745770016420587
20
-6.0039674063270372
30
0
10
-0.74535669127214654
20
-5.9248407502715867
30
0
0
SPLINE
5
309
100
AcDbEntity
8
0
100
AcDbSpline
70
0
71
2
72
6
73
3
74
0
42
0.000000001
43
0.0000000001
44
0.0000000001
40
0
40
0
40
0
40
1
40
1
40
1
10
-0.74535669127214654
20
-5.9248407502715867
30
0
10
-0.62325583139169916
20
-5.8457137961929124
30
0
10
-0.44794888535249933
20
-5.8006932159011644
30
0
0
SPLINE
5
310
100
AcDbEntity
8
0
100
AcDbSpline
70
0
71
2
72
6
73
3
74
0
42
0.000000001
43
0.0000000001
44
0.0000000001
40
0
40
0
40
0
40
1
40
1
40
1
10
-0.44794888535249933
20
-5.8006932159011644
30
0
10
-0.27264193931329939
20
-5.7556726356094163
30
0
10
0.024766015617959658
20
-5.7556726356094163
30
0
0
SPLINE
5
311
100
AcDbEntity
8
0
100
AcDbSpline
70
0
71
2
72
6
73
3
74
0
42
0.000000001
43
0.0000000001
44
0.0000000001
40
0
40
0
40
0
40
1
40
1
40
1
10
0.024766015617959658
20
-5.7556726356094163
30
0
10
0.37674425801526801
20
-5.7556726356094163
30
0
10
0.59297888240110175
20
-5.8279784341399949
30
0
0
SPLINE
5
312
100
AcDbEntity
8
0
100
AcDbSpline
70
0
71
2
72
6
73
3
74
0
42
0.000000001
43
0.0000000001
44
0.0000000001
40
0
40
0
40
0
40
1
40
1
40
1
10
0.59297888240110175
20
-5.8279784341399949
30
0
10
0.80921350678693549
20
-5.9002839346473497
30
0
10
0.92722176274549262
20
-6.0442130585258287
30
0
0
SPLINE
5
313
100
AcDbEntity
8
0
100
AcDbSpline
70
0
71
2
72
6
73
3
74
0
42
0.000000001
43
0.0000000001
44
0.0000000001
40
0
40
0
40
0
40
1
40
1
40
1
10
0.92722176274549262
20
-6.0442130585258287
30
0
10
1.0452298696924378
20
-6.1881421824043077
30
0
10
1.0452298696924378
20
-6.4077873845641893
30
0
0
SPLINE
5
314
100
AcDbEntity
8
0
100
AcDbSpline
70
0
71
2
72
6
73
3
74
0
42
0.000000001
43
0.0000000001
44
0.0000000001
40
0
40
0
40
0
40
1
40
1
40
1
10
1.0452298696924378
20
-6.4077873845641893
30
0
10
1.0452298696924378
20
-6.6970096846168321
30
0
10
0.83786292633306259
20
-6.8620847483222764
30
0
0
SPLINE
5
315
100
AcDbEntity
8
0
100
AcDbSpline
70
0
71
2
72
6
73
3
74
0
42
0.000000001
43
0.0000000001
44
0.0000000001
40
0
40
0
40
0
40
1
40
1
40
1
10
0.83786292633306259
20
-6.8620847483222764
30
0
10
0.58820395430814498
20
-7.0599019845073503
30
0
10
0.02476601561795938
20
-7.0599019845073503
30
0
0
SPLINE
5
316
100
AcDbEntity
8
0
100
AcDbSpline
70
0
71
2
72
6
73
3
74
0
42
0.000000001
43
0.0000000001
44
0.0000000001
40
0
40
0
40
0
40
1
40
1
40
1
10
0.02476601561795938
20
-6.8075146098678392
30
0
10
0.517262655108087
20
-6.8075146098678392
30
0
10
0.68029134234678046
20
-6.6922349055354875
30
0
0
SPLINE
5
317
100
AcDbEntity
8
0
100
AcDbSpline
70
0
71
2
72
6
73
3
74
0
42
0.000000001
43
0.0000000001
44
0.0000000001
40
0
40
0
40
0
40
1
40
1
40
1
10
0.68029134234678046
20
-6.6922349055354875
30
0
10
0.8433200295854737
20
-6.5769552012031358
30
0
10
0.8433200295854737
20
-6.4077873845641893
30
0
0
SPLINE
5
318
100
AcDbEntity
8
0
100
AcDbSpline
70
0
71
2
72
6
73
3
74
0
42
0.000000001
43
0.0000000001
44
0.0000000001
40
0
40
0
40
0
40
1
40
1
40
1
10
0.8433200295854737
20
-6.4077873845641893
30
0
10
0.8433200295854737
20
-6.2386195679252427
30
0
10
0.67960916718732611
20
-6.123340012604503
30
0
0
SPLINE
5
319
100
AcDbEntity
8
0
100
AcDbSpline
70
0
71
2
72
6
73
3
74
0
42
0.000000001
43
0.0000000001
44
0.0000000001
40
0
40
0
40
0
40
1
40
1
40
1
10
0.67960916718732611
20
-6.123340012604503
30
0
10
0.51589845380079047
20
-6.0080601592605394
30
0
10
0.024766015617959658
20
-6.0080601592605394
30
0
0
SPLINE
5
320
100
AcDbEntity
8
0
100
AcDbSpline
70
0
71
2
72
6
73
3
74
0
42
0.000000001
43
0.0000000001
44
0.0000000001
40
0
40
0
40
0
40
1
40
1
40
1
10
0.024766015617959658
20
-6.0080601592605394
30
0
10
-0.46909482517946466
20
-6.0080601592605394
30
0
10
-0.63144133725870355
20
-6.123340012604503
30
0
0
SPLINE
5
321
100
AcDbEntity
8
0
100
AcDbSpline
70
0
71
2
72
6
73
3
74
0
42
0.000000001
43
0.0000000001
44
0.0000000001
40
0
40
0
40
0
40
1
40
1
40
1
10
-0.63144133725870355
20
-6.123340012604503
30
0
10
-0.79378784933794244
20
-6.2386195679252427
30
0
10
-0.79378784933794244
20
-6.4105159361903947
30
0
0
SPLINE
5
322
100
AcDbEntity
8
0
100
AcDbSpline
70
0
71
2
72
6
73
3
74
0
42
0.000000001
43
0.0000000001
44
0.0000000001
40
0
40
0
40
0
40
1
40
1
40
1
10
-0.79378784933794244
20
-6.4105159361903947
30
0
10
-0.79378784933794255
20
-6.5796837528293413
30
0
10
-0.65054090061891789
20
-6.6806386728828233
30
0
0
SPLINE
5
323
100
AcDbEntity
8
0
100
AcDbSpline
70
0
71
2
72
6
73
3
74
0
42
0.000000001
43
0.0000000001
44
0.0000000001
40
0
40
0
40
0
40
1
40
1
40
1
10
-0.65054090061891789
20
-6.6806386728828233
30
0
10
-0.46773047486055608
20
-6.8075146098678392
30
0
10
0.02476601561795938
20
-6.8075146098678392
30
0
0
LINE
5
324
100
AcDbEntity
8
0
100
AcDbLine
10
1.0111234959055122
20
-4.4882782121246141
30
0
11
0.7982994492937262
21
-4.4882782121246141
31
0
0
SPLINE
5
325
100
AcDbEntity
8
0
100
AcDbSpline
70
0
71
2
72
6
73
3
74
0
42
0.000000001
43
0.0000000001
44
0.0000000001
40
0
40
0
40
0
40
1
40
1
40
1
10
0.79829944929372587
20
-4.4882782121246141
30
0
10
1.0438655193735298
20
-4.6574463267867845
30
0
10
1.0438655193735291
20
-4.9480326791351121
30
0
0
SPLINE
5
326
100
AcDbEntity
8
0
100
AcDbSpline
70
0
71
2
72
6
73
3
74
0
42
0.000000001
43
0.0000000001
44
0.0000000001
40
0
40
0
40
0
40
1
40
1
40
1
10
1.0438655193735291
20
-4.9480326791351121
30
0
10
1.0438655193735291
20
-5.0762729664390367
30
0
10
0.99475248417150275
20
-5.1874597688262742
30
0
0
SPLINE
5
327
100
AcDbEntity
8
0
100
AcDbSpline
70
0
71
2
72
6
73
3
74
0
42
0.000000001
43
0.0000000001
44
0.0000000001
40
0
40
0
40
0
40
1
40
1
40
1
10
0.99475248417150275
20
-5.1874597688262742
30
0
10
0.94563915094625273
20
-5.2986465712135118
30
0
10
0.87128712496053495
20
-5.3525348325317186
30
0
0
SPLINE
5
328
100
AcDbEntity
8
0
100
AcDbSpline
70
0
71
2
72
6
73
3
74
0
42
0.000000001
43
0.0000000001
44
0.0000000001
40
0
40
0
40
0
40
1
40
1
40
1
10
0.87128712496053495
20
-5.3525348325317186
30
0
10
0.79693524798642912
20
-5.4064227958267015
30
0
10
0.68915887436162748
20
-5.4282509108131212
30
0
0
SPLINE
5
329
100
AcDbEntity
8
0
100
AcDbSpline
70
0
71
2
72
6
73
3
74
0
42
0.000000001
43
0.0000000001
44
0.0000000001
40
0
40
0
40
0
40
1
40
1
40
1
10
0.68915887436162748
20
-5.4282509108131212
30
0
10
0.61685337385427275
20
-5.4432578702514451
30
0
10
0.45996381601583286
20
-5.4432578702514451
30
0
0
LINE
5
330
100
AcDbEntity
8
0
100
AcDbLine
10
0.45996381601583286
20
-5.4432578702514451
30
0
11
-0.43771685400713162
21
-5.4432578702514451
31
0
0
LINE
5
331
100
AcDbEntity
8
0
100
AcDbLine
10
-0.43771685400713178
20
-5.4432578702514451
30
0
11
-0.43771685400713167
21
-5.1976918001716417
31
0
0
LINE
5
332
100
AcDbEntity
8
0
100
AcDbLine
10
-0.43771685400713178
20
-5.1976918001716417
30
0
11
0.36583020052205828
21
-5.1976918001716417
31
0
0
SPLINE
5
333
100
AcDbEntity
8
0
100
AcDbSpline
70
0
71
2
72
6
73
3
74
0
42
0.000000001
43
0.0000000001
44
0.0000000001
40
0
40
0
40
0
40
1
40
1
40
1
10
0.36583020052205845
20
-5.1976918001716417
30
0
10
0.55819033345472135
20
-5.1976918001716417
30
0
10
0.62503887972127714
20
-5.1826848407333177
30
0
0
SPLINE
5
334
100
AcDbEntity
8
0
100
AcDbSpline
70
0
71
2
72
6
73
3
74
0
42
0.000000001
43
0.0000000001
44
0.0000000001
40
0
40
0
40
0
40
1
40
1
40
1
10
0.62503887972127714
20
-5.1826848407333177
30
0
10
0.72190119585286894
20
-5.1594926734512132
30
0
10
0.77715350946676054
20
-5.0844584723060411
30
0
0
SPLINE
5
335
100
AcDbEntity
8
0
100
AcDbSpline
70
0
71
2
72
6
73
3
74
0
42
0.000000001
43
0.0000000001
44
0.0000000001
40
0
40
0
40
0
40
1
40
1
40
1
10
0.77715350946676054
20
-5.0844584723060411
30
0
10
0.83240582308065214
20
-5.009424271160869
30
0
10
0.83240582308065214
20
-4.8989196439330858
30
0
0
SPLINE
5
336
100
AcDbEntity
8
0
100
AcDbSpline
70
0
71
2
72
6
73
3
74
0
42
0.000000001
43
0.0000000001
44
0.0000000001
40
0
40
0
40
0
40
1
40
1
40
1
10
0.83240582308065214
20
-4.8989196439330858
30
0
10
0.83240582308065214
20
-4.7884147186820787
30
0
10
0.77578930815946379
20
-4.6915527005737108
30
0
0
SPLINE
5
337
100
AcDbEntity
8
0
100
AcDbSpline
70
0
71
2
72
6
73
3
74
0
42
0.000000001
43
0.0000000001
44
0.0000000001
40
0
40
0
40
0
40
1
40
1
40
1
10
0.77578930815946379
20
-4.6915527005737108
30
0
10
0.71917264422666349
20
-4.594690384442119
30
0
10
0.62162830194722929
20
-4.5544447322433275
30
0
0
SPLINE
5
338
100
AcDbEntity
8
0
100
AcDbSpline
70
0
71
2
72
6
73
3
74
0
42
0.000000001
43
0.0000000001
44
0.0000000001
40
0
40
0
40
0
40
1
40
1
40
1
10
0.62162830194722929
20
-4.5544447322433275
30
0
10
0.52408395966779509
20
-4.514199080044536
30
0
10
0.33854498228322788
20
-4.514199080044536
30
0
0
LINE
5
339
100
AcDbEntity
8
0
100
AcDbLine
10
0.33854498228322788
20
-4.514199080044536
30
0
11
-0.43771685400713162
21
-4.514199080044536
31
0
0
LINE
5
340
100
AcDbEntity
8
0
100
AcDbLine
10
-0.43771685400713162
20
-4.514199080044536
30
0
11
-0.43771685400713156
21
-4.2686330099647325
31
0
0
LINE
5
341
100
AcDbEntity
8
0
100
AcDbLine
10
-0.43771685400713145
20
-4.2686330099647325
30
0
11
1.011123495905512
21
-4.2686330099647325
31
0
0
LINE
5
342
100
AcDbEntity
8
0
100
AcDbLine
10
1.0111234959055122
20
-4.2686330099647325
30
0
11
1.0111234959055122
21
-4.4882782121246141
31
0
0
LINE
5
343
100
AcDbEntity
8
0
100
AcDbLine
10
-3.6773962123674622
20
-6.3801926796035291
30
0
11
-3.4864549638263451
21
-6.5189196170190922
31
0
0
LINE
5
344
100
AcDbEntity
8
0
100
AcDbLine
10
-3.486454963826346
20
-6.5189196170190922
30
0
11
-4.2634861552748591
21
-7.5884113005710017
31
0
0
SPLINE
5
345
100
AcDbEntity
8
0
100
AcDbSpline
70
0
71
2
72
6
73
3
74
0
42
0.000000001
43
0.0000000001
44
0.0000000001
40
0
40
0
40
0
40
1
40
1
40
1
10
-4.2634861552748591
20
-7.5884113005710008
30
0
10
-4.336830861742242
20
-7.5384958813613645
30
0
10
-4.3846097714791767
20
-7.4649972582249617
30
0
0
SPLINE
5
346
100
AcDbEntity
8
0
100
AcDbSpline
70
0
71
2
72
6
73
3
74
0
42
0.000000001
43
0.0000000001
44
0.0000000001
40
0
40
0
40
0
40
1
40
1
40
1
10
-4.3846097714791767
20
-7.4649972582249617
30
0
10
-4.4642068510318307
20
-7.3447729883650119
30
0
10
-4.5048086089194648
20
-7.177839523478605
30
0
0
SPLINE
5
347
100
AcDbEntity
8
0
100
AcDbSpline
70
0
71
2
72
6
73
3
74
0
42
0.000000001
43
0.0000000001
44
0.0000000001
40
0
40
0
40
0
40
1
40
1
40
1
10
-4.5048086089194648
20
-7.177839523478605
30
0
10
-4.5454104764116723
20
-7.0109059559362557
30
0
10
-4.5609864055309774
20
-6.73989706744924
30
0
0
SPLINE
5
348
100
AcDbEntity
8
0
100
AcDbSpline
70
0
71
2
72
6
73
3
74
0
42
0.000000001
43
0.0000000001
44
0.0000000001
40
0
40
0
40
0
40
1
40
1
40
1
10
-4.5609864055309774
20
-6.73989706744924
30
0
10
-4.5856613155706274
20
-6.3189407546529344
30
0
10
-4.6446770052077717
20
-6.1344130102007677
30
0
0
SPLINE
5
349
100
AcDbEntity
8
0
100
AcDbSpline
70
0
71
2
72
6
73
3
74
0
42
0.000000001
43
0.0000000001
44
0.0000000001
40
0
40
0
40
0
40
1
40
1
40
1
10
-4.6446770052077717
20
-6.1344130102007677
30
0
10
-4.703692694844916
20
-5.9498852657486001
30
0
10
-4.8162708040739828
20
-5.8680924816712512
30
0
0
SPLINE
5
350
100
AcDbEntity
8
0
100
AcDbSpline
70
0
71
2
72
6
73
3
74
0
42
0.000000001
43
0.0000000001
44
0.0000000001
40
0
40
0
40
0
40
1
40
1
40
1
10
-4.8162708040739828
20
-5.8680924816712512
30
0
10
-4.9343673440627338
20
-5.7822903229591374
30
0
10
-5.07683436357215
20
-5.807784916362051
30
0
0
SPLINE
5
351
100
AcDbEntity
8
0
100
AcDbSpline
70
0
71
2
72
6
73
3
74
0
42
0.000000001
43
0.0000000001
44
0.0000000001
40
0
40
0
40
0
40
1
40
1
40
1
10
-5.07683436357215
20
-5.807784916362051
30
0
10
-5.2193014268749804
20
-5.8332795700414284
30
0
10
-5.3179338734548693
20
-5.9690354862858266
30
0
0
SPLINE
5
352
100
AcDbEntity
8
0
100
AcDbSpline
70
0
71
2
72
6
73
3
74
0
42
0.000000001
43
0.0000000001
44
0.0000000001
40
0
40
0
40
0
40
1
40
1
40
1
10
-5.3179338734548693
20
-5.9690354862858266
30
0
10
-5.4221795189722313
20
-6.1125173080637696
30
0
10
-5.3986378016777481
20
-6.2611538612898663
30
0
0
SPLINE
5
353
100
AcDbEntity
8
0
100
AcDbSpline
70
0
71
2
72
6
73
3
74
0
42
0.000000001
43
0.0000000001
44
0.0000000001
40
0
40
0
40
0
40
1
40
1
40
1
10
-5.3986378016777481
20
-6.2611538612898663
30
0
10
-5.375096084383264
20
-6.4097904145159648
30
0
10
-5.2235864537837902
20
-6.5215548961467977
30
0
0
LINE
5
354
100
AcDbEntity
8
0
100
AcDbLine
10
-5.2235864537837902
20
-6.5215548961467977
30
0
11
-5.392906496911289
21
-6.7105047277823502
31
0
0
SPLINE
5
355
100
AcDbEntity
8
0
100
AcDbSpline
70
0
71
2
72
6
73
3
74
0
42
0.000000001
43
0.0000000001
44
0.0000000001
40
0
40
0
40
0
40
1
40
1
40
1
10
-5.3929064969112908
20
-6.7105047277823502
30
0
10
-5.6061377976035267
20
-6.5235431647427244
30
0
10
-5.6264556637008045
20
-6.2996784499737757
30
0
0
SPLINE
5
356
100
AcDbEntity
8
0
100
AcDbSpline
70
0
71
2
72
6
73
3
74
0
42
0.000000001
43
0.0000000001
44
0.0000000001
40
0
40
0
40
0
40
1
40
1
40
1
10
-5.6264556637008045
20
-6.2996784499737757
30
0
10
-5.6467735297980823
20
-6.0758137352048269
30
0
10
-5.4791785870086196
20
-5.84513908598701
30
0
0
SPLINE
5
357
100
AcDbEntity
8
0
100
AcDbSpline
70
0
71
2
72
6
73
3
74
0
42
0.000000001
43
0.0000000001
44
0.0000000001
40
0
40
0
40
0
40
1
40
1
40
1
10
-5.4791785870086196
20
-5.84513908598701
30
0
10
-5.3099798418131545
20
-5.6122569921335641
30
0
10
-5.0822137526192934
20
-5.570322159044462
30
0
0
SPLINE
5
358
100
AcDbEntity
8
0
100
AcDbSpline
70
0
71
2
72
6
73
3
74
0
42
0.000000001
43
0.0000000001
44
0.0000000001
40
0
40
0
40
0
40
1
40
1
40
1
10
-5.0822137526192934
20
-5.570322159044462
30
0
10
-4.8544474990790922
20
-5.5283873532657246
30
0
10
-4.6635062505379752
20
-5.6671142906812877
30
0
0
SPLINE
5
359
100
AcDbEntity
8
0
100
AcDbSpline
70
0
71
2
72
6
73
3
74
0
42
0.000000001
43
0.0000000001
44
0.0000000001
40
0
40
0
40
0
40
1
40
1
40
1
10
-4.6635062505379752
20
-5.6671142906812877
30
0
10
-4.5663801332053904
20
-5.7376805455034496
30
0
10
-4.5014330949575871
20
-5.8455747493264774
30
0
0
SPLINE
5
360
100
AcDbEntity
8
0
100
AcDbSpline
70
0
71
2
72
6
73
3
74
0
42
0.000000001
43
0.0000000001
44
0.0000000001
40
0
40
0
40
0
40
1
40
1
40
1
10
-4.5014330949575871
20
-5.8455747493264774
30
0
10
-4.4364860896758831
20
-5.9534687450097508
30
0
10
-4.3996954473286003
20
-6.1210059246434962
30
0
0
SPLINE
5
361
100
AcDbEntity
8
0
100
AcDbSpline
70
0
71
2
72
6
73
3
74
0
42
0.000000001
43
0.0000000001
44
0.0000000001
40
0
40
0
40
0
40
1
40
1
40
1
10
-4.3996954473286003
20
-6.1210059246434962
30
0
10
-4.3629048049813175
20
-6.2885431042772417
30
0
10
-4.3374635969421735
20
-6.634172030215657
30
0
0
SPLINE
5
362
100
AcDbEntity
8
0
100
AcDbSpline
70
0
71
2
72
6
73
3
74
0
42
0.000000001
43
0.0000000001
44
0.0000000001
40
0
40
0
40
0
40
1
40
1
40
1
10
-4.3374635969421735
20
-6.634172030215657
30
0
10
-4.3172655447851946
20
-6.9220295585840432
30
0
10
-4.3006227559205135
20
-7.0116916790204309
30
0
0
SPLINE
5
363
100
AcDbEntity
8
0
100
AcDbSpline
70
0
71
2
72
6
73
3
74
0
42
0.000000001
43
0.0000000001
44
0.0000000001
40
0
40
0
40
0
40
1
40
1
40
1
10
-4.3006227559205135
20
-7.0116916790204309
30
0
10
-4.2839798683996131
20
-7.1013539171818776
30
0
10
-4.2539549441634303
20
-7.1737576941372883
30
0
0
LINE
5
364
100
AcDbEntity
8
0
100
AcDbLine
10
-4.2539549441634303
20
-7.1737576941372883
30
0
11
-3.6773962123674626
21
-6.3801926796035291
31
0
0
SPLINE
5
365
100
AcDbEntity
8
0
100
AcDbSpline
70
0
71
2
72
6
73
3
74
0
42
0.000000001
43
0.0000000001
44
0.0000000001
40
0
40
0
40
0
40
1
40
1
40
1
10
-4.1296701416058994
20
-5.7261377828261448
30
0
10
-4.4166338454382492
20
-5.5176464479980076
30
0
10
-4.5486702519826157
20
-5.331498654754637
30
0
0
SPLINE
5
366
100
AcDbEntity
8
0
100
AcDbSpline
70
0
71
2
72
6
73
3
74
0
42
0.000000001
43
0.0000000001
44
0.0000000001
40
0
40
0
40
0
40
1
40
1
40
1
10
-4.5486702519826157
20
-5.331498654754637
30
0
10
-4.6807065709401545
20
-5.1453507409583397
30
0
10
-4.6910260353857183
20
-4.9599472143050916
30
0
0
SPLINE
5
367
100
AcDbEntity
8
0
100
AcDbSpline
70
0
71
2
72
6
73
3
74
0
42
0.000000001
43
0.0000000001
44
0.0000000001
40
0
40
0
40
0
40
1
40
1
40
1
10
-4.6910260353857183
20
-4.9599472143050916
30
0
10
-4.7013454122444545
20
-4.7745435670989176
30
0
10
-4.5730430590876638
20
-4.5979505278600037
30
0
0
SPLINE
5
368
100
AcDbEntity
8
0
100
AcDbSpline
70
0
71
2
72
6
73
3
74
0
42
0.000000001
43
0.0000000001
44
0.0000000001
40
0
40
0
40
0
40
1
40
1
40
1
10
-4.5730430590876638
20
-4.5979505278600037
30
0
10
-4.4784200309359523
20
-4.4677131026517536
30
0
10
-4.3546257744769621
20
-4.4075729624497679
30
0
0
SPLINE
5
369
100
AcDbEntity
8
0
100
AcDbSpline
70
0
71
2
72
6
73
3
74
0
42
0.000000001
43
0.0000000001
44
0.0000000001
40
0
40
0
40
0
40
1
40
1
40
1
10
-4.3546257744769621
20
-4.4075729624497679
30
0
10
-4.2308315180179719
20
-4.3474328222477823
30
0
10
-4.085540245301357
20
-4.3551871851076465
30
0
0
SPLINE
5
370
100
AcDbEntity
8
0
100
AcDbSpline
70
0
71
2
72
6
73
3
74
0
42
0.000000001
43
0.0000000001
44
0.0000000001
40
0
40
0
40
0
40
1
40
1
40
1
10
-4.085540245301357
20
-4.3551871851076465
30
0
10
-3.9402489179640128
20
-4.3629412192748296
30
0
10
-3.7719601862411896
20
-4.4295616422284576
30
0
0
SPLINE
5
371
100
AcDbEntity
8
0
100
AcDbSpline
70
0
71
2
72
6
73
3
74
0
42
0.000000001
43
0.0000000001
44
0.0000000001
40
0
40
0
40
0
40
1
40
1
40
1
10
-3.7719601862411896
20
-4.4295616422284576
30
0
10
-3.6036714545183663
20
-4.4961820651820856
30
0
10
-3.363063364716679
20
-4.6709940750051446
30
0
0
SPLINE
5
372
100
AcDbEntity
8
0
100
AcDbSpline
70
0
71
2
72
6
73
3
74
0
42
0.000000001
43
0.0000000001
44
0.0000000001
40
0
40
0
40
0
40
1
40
1
40
1
10
-3.363063364716679
20
-4.6709940750051446
30
0
10
-3.0783069849670319
20
-4.8778816950141071
30
0
10
-2.9458697810981138
20
-5.0634778380661931
30
0
0
SPLINE
5
373
100
AcDbEntity
8
0
100
AcDbSpline
70
0
71
2
72
6
73
3
74
0
42
0.000000001
43
0.0000000001
44
0.0000000001
40
0
40
0
40
0
40
1
40
1
40
1
10
-2.9458697810981138
20
-5.0634778380661931
30
0
10
-2.8134324020555401
20
-5.2490737400124239
30
0
10
-2.8025611338996645
20
-5.434878359716806
30
0
0
SPLINE
5
374
100
AcDbEntity
8
0
100
AcDbSpline
70
0
71
2
72
6
73
3
74
0
42
0.000000001
43
0.0000000001
44
0.0000000001
40
0
40
0
40
0
40
1
40
1
40
1
10
-2.8025611338996645
20
-5.434878359716806
30
0
10
-2.7916899862967162
20
-5.6206828918343597
30
0
10
-2.9207941968630937
20
-5.7983795931146247
30
0
0
SPLINE
5
375
100
AcDbEntity
8
0
100
AcDbSpline
70
0
71
2
72
6
73
3
74
0
42
0.000000001
43
0.0000000001
44
0.0000000001
40
0
40
0
40
0
40
1
40
1
40
1
10
-2.9207941968630937
20
-5.7983795931146247
30
0
10
-3.0907947994681457
20
-6.0323653490094227
30
0
10
-3.3555868686847679
20
-6.044026649775045
30
0
0
SPLINE
5
376
100
AcDbEntity
8
0
100
AcDbSpline
70
0
71
2
72
6
73
3
74
0
42
0.000000001
43
0.0000000001
44
0.0000000001
40
0
40
0
40
0
40
1
40
1
40
1
10
-3.3555868686847679
20
-6.044026649775045
30
0
10
-3.673839273929949
20
-6.0573182937703072
30
0
10
-4.1296701416058994
20
-5.7261377828261448
30
0
0
SPLINE
5
377
100
AcDbEntity
8
0
100
AcDbSpline
70
0
71
2
72
6
73
3
74
0
42
0.000000001
43
0.0000000001
44
0.0000000001
40
0
40
0
40
0
40
1
40
1
40
1
10
-3.9813205649279793
20
-5.5219521075771034
30
0
10
-3.5828824139079138
20
-5.8114343690730044
30
0
10
-3.3832297252659798
20
-5.8139969872211186
30
0
0
SPLINE
5
378
100
AcDbEntity
8
0
100
AcDbSpline
70
0
71
2
72
6
73
3
74
0
42
0.000000001
43
0.0000000001
44
0.0000000001
40
0
40
0
40
0
40
1
40
1
40
1
10
-3.3832297252659798
20
-5.8139969872211186
30
0
10
-3.1835770366240457
20
-5.8165596053692328
30
0
10
-3.0841426888411561
20
-5.6796999668070205
30
0
0
SPLINE
5
379
100
AcDbEntity
8
0
100
AcDbSpline
70
0
71
2
72
6
73
3
74
0
42
0.000000001
43
0.0000000001
44
0.0000000001
40
0
40
0
40
0
40
1
40
1
40
1
10
-3.0841426888411561
20
-5.6796999668070205
30
0
10
-2.984708341058266
20
-5.5428403282448073
30
0
10
-3.0493935883937806
20
-5.3533503783286287
30
0
0
SPLINE
5
380
100
AcDbEntity
8
0
100
AcDbSpline
70
0
71
2
72
6
73
3
74
0
42
0.000000001
43
0.0000000001
44
0.0000000001
40
0
40
0
40
0
40
1
40
1
40
1
10
-3.0493935883937806
20
-5.3533503783286287
30
0
10
-3.1140785400027133
20
-5.163860274893425
30
0
10
-3.5114130289814267
20
-4.875179870807111
30
0
0
SPLINE
5
381
100
AcDbEntity
8
0
100
AcDbSpline
70
0
71
2
72
6
73
3
74
0
42
0.000000001
43
0.0000000001
44
0.0000000001
40
0
40
0
40
0
40
1
40
1
40
1
10
-3.5114130289814267
20
-4.875179870807111
30
0
10
-3.9109548420428428
20
-4.5848957519016249
30
0
10
-4.1100557269744664
20
-4.5827342268046447
30
0
0
SPLINE
5
382
100
AcDbEntity
8
0
100
AcDbSpline
70
0
71
2
72
6
73
3
74
0
42
0.000000001
43
0.0000000001
44
0.0000000001
40
0
40
0
40
0
40
1
40
1
40
1
10
-4.1100557269744664
20
-4.5827342268046447
30
0
10
-4.3091564367324331
20
-4.5805724606018119
30
0
10
-4.4101945869213255
20
-4.7196395437996541
30
0
0
SPLINE
5
383
100
AcDbEntity
8
0
100
AcDbSpline
70
0
71
2
72
6
73
3
74
0
42
0.000000001
43
0.0000000001
44
0.0000000001
40
0
40
0
40
0
40
1
40
1
40
1
10
-4.4101945869213255
20
-4.7196395437996541
30
0
10
-4.5096289347042156
20
-4.8564991823618664
30
0
10
-4.4530795319519703
20
-5.022371872243836
30
0
0
SPLINE
5
384
100
AcDbEntity
8
0
100
AcDbSpline
70
0
71
2
72
6
73
3
74
0
42
0.000000001
43
0.0000000001
44
0.0000000001
40
0
40
0
40
0
40
1
40
1
40
1
10
-4.4530795319519703
20
-5.022371872243836
30
0
10
-4.3797585953951179
20
-5.2324699336680327
30
0
10
-3.9813205649279793
20
-5.5219521075771034
30
0
0
LINE
5
385
100
AcDbEntity
8
0
100
AcDbLine
10
-2.3662147050694173
20
-4.9770411782821053
30
0
11
-3.9842487179298973
21
-3.8014706561797933
31
0
0
LINE
5
386
100
AcDbEntity
8
0
100
AcDbLine
10
-3.9842487179298973
20
-3.8014706561797942
30
0
11
-3.8286820742183814
21
-3.5873515403468828
31
0
0
LINE
5
387
100
AcDbEntity
8
0
100
AcDbLine
10
-3.8286820742183814
20
-3.5873515403468819
30
0
11
-2.4015893098990175
21
-4.6241951250336317
31
0
0
LINE
5
388
100
AcDbEntity
8
0
100
AcDbLine
10
-2.4015893098990175
20
-4.6241951250336317
30
0
11
-1.8226247869072183
21
-3.8273188229935013
31
0
0
LINE
5
389
100
AcDbEntity
8
0
100
AcDbLine
10
-1.8226247869072176
20
-3.8273188229935013
30
0
11
-1.6316835383661012
21
-3.966045760409064
31
0
0
LINE
5
390
100
AcDbEntity
8
0
100
AcDbLine
10
-1.6316835383661017
20
-3.966045760409064
30
0
11
-2.3662147050694173
21
-4.9770411782821053
31
0
0
LINE
5
391
100
AcDbEntity
8
0
100
AcDbLine
10
4.6922243848556997
20
7.2802873726417827
30
0
11
4.5743731841522033
21
7.0623747997136732
31
0
0
SPLINE
5
392
100
AcDbEntity
8
0
100
AcDbSpline
70
0
71
2
72
6
73
3
74
0
42
0.000000001
43
0.0000000001
44
0.0000000001
40
0
40
0
40
0
40
1
40
1
40
1
10
4.5743731841522024
20
7.0623747997136723
30
0
10
4.3806475539158072
20
7.1508489786023155
30
0
10
4.2464065063729413
20
7.1227504499273886
30
0
0
SPLINE
5
393
100
AcDbEntity
8
0
100
AcDbSpline
70
0
71
2
72
6
73
3
74
0
42
0.000000001
43
0.0000000001
44
0.0000000001
40
0
40
0
40
0
40
1
40
1
40
1
10
4.2464065063729413
20
7.1227504499273886
30
0
10
4.1121654588300753
20
7.0946519212524626
30
0
10
4.0263632125311339
20
6.9765552607107857
30
0
0
SPLINE
5
394
100
AcDbEntity
8
0
100
AcDbSpline
70
0
71
2
72
6
73
3
74
0
42
0.000000001
43
0.0000000001
44
0.0000000001
40
0
40
0
40
0
40
1
40
1
40
1
10
4.0263632125311339
20
6.9765552607107857
30
0
10
3.9245232049326551
20
6.8363845154715914
30
0
10
3.9514841167007986
20
6.6692438867506922
30
0
0
SPLINE
5
395
100
AcDbEntity
8
0
100
AcDbSpline
70
0
71
2
72
6
73
3
74
0
42
0.000000001
43
0.0000000001
44
0.0000000001
40
0
40
0
40
0
40
1
40
1
40
1
10
3.9514841167007986
20
6.6692438867506922
30
0
10
3.9784449846755274
20
6.5021031977533292
30
0
10
4.1219268365917028
20
6.3978575303392606
30
0
0
SPLINE
5
396
100
AcDbEntity
8
0
100
AcDbSpline
70
0
71
2
72
6
73
3
74
0
42
0.000000001
43
0.0000000001
44
0.0000000001
40
0
40
0
40
0
40
1
40
1
40
1
10
4.1219268365917028
20
6.3978575303392606
30
0
10
4.258786475153916
20
6.2984231825563706
30
0
10
4.4125879035754441
20
6.3232713192104537
30
0
0
SPLINE
5
397
100
AcDbEntity
8
0
100
AcDbSpline
70
0
71
2
72
6
73
3
74
0
42
0.000000001
43
0.0000000001
44
0.0000000001
40
0
40
0
40
0
40
1
40
1
40
1
10
4.4125879035754441
20
6.3232713192104537
30
0
10
4.5663893319969731
20
6.348119455864536
30
0
10
4.6666255371894501
20
6.4860827564681012
30
0
0
SPLINE
5
398
100
AcDbEntity
8
0
100
AcDbSpline
70
0
71
2
72
6
73
3
74
0
42
0.000000001
43
0.0000000001
44
0.0000000001
40
0
40
0
40
0
40
1
40
1
40
1
10
4.6666255371894501
20
6.4860827564681012
30
0
10
4.7075219292281254
20
6.542371811082635
30
0
10
4.7463914819871196
20
6.6422912931450648
30
0
0
LINE
5
399
100
AcDbEntity
8
0
100
AcDbLine
10
4.7463914819871196
20
6.6422912931450648
30
0
11
4.9047394139470848
21
6.493518539971701
31
0
0
SPLINE
5
400
100
AcDbEntity
8
0
100
AcDbSpline
70
0
71
2
72
6
73
3
74
0
42
0.000000001
43
0.0000000001
44
0.0000000001
40
0
40
0
40
0
40
1
40
1
40
1
10
4.9047394139470848
20
6.493518539971701
30
0
10
4.8880978022781649
20
6.4752556693497176
30
0
10
4.8792770204253948
20
6.4631149046831435
30
0
0
SPLINE
5
401
100
AcDbEntity
8
0
100
AcDbSpline
70
0
71
2
72
6
73
3
74
0
42
0.000000001
43
0.0000000001
44
0.0000000001
40
0
40
0
40
0
40
1
40
1
40
1
10
4.8792770204253948
20
6.4631149046831435
30
0
10
4.7870596958826868
20
6.3361886464283383
30
0
10
4.7795082108939972
20
6.1865342683390505
30
0
0
SPLINE
5
402
100
AcDbEntity
8
0
100
AcDbSpline
70
0
71
2
72
6
73
3
74
0
42
0.000000001
43
0.0000000001
44
0.0000000001
40
0
40
0
40
0
40
1
40
1
40
1
10
4.7795082108939972
20
6.1865342683390505
30
0
10
4.7719568464582336
20
6.0368798026629342
30
0
10
4.9099201470617979
20
5.9366435974704581
30
0
0
SPLINE
5
403
100
AcDbEntity
8
0
100
AcDbSpline
70
0
71
2
72
6
73
3
74
0
42
0.000000001
43
0.0000000001
44
0.0000000001
40
0
40
0
40
0
40
1
40
1
40
1
10
4.9099201470617979
20
5.9366435974704581
30
0
10
5.0191871496138827
20
5.8572564732086976
30
0
10
5.1446546678915928
20
5.8790819498189171
30
0
0
SPLINE
5
404
100
AcDbEntity
8
0
100
AcDbSpline
70
0
71
2
72
6
73
3
74
0
42
0.000000001
43
0.0000000001
44
0.0000000001
40
0
40
0
40
0
40
1
40
1
40
1
10
5.1446546678915928
20
5.8790819498189171
30
0
10
5.2701222299627171
20
5.9009074867056004
30
0
10
5.355122531265244
20
6.0179003646529994
30
0
0
SPLINE
5
405
100
AcDbEntity
8
0
100
AcDbSpline
70
0
71
2
72
6
73
3
74
0
42
0.000000001
43
0.0000000001
44
0.0000000001
40
0
40
0
40
0
40
1
40
1
40
1
10
5.355122531265244
20
6.0179003646529994
30
0
10
5.4393209970548897
20
6.1337896106972778
30
0
10
5.42260858443115
20
6.2639738666714262
30
0
0
SPLINE
5
406
100
AcDbEntity
8
0
100
AcDbSpline
70
0
71
2
72
6
73
3
74
0
42
0.000000001
43
0.0000000001
44
0.0000000001
40
0
40
0
40
0
40
1
40
1
40
1
10
5.42260858443115
20
6.2639738666714262
30
0
10
5.4058962704636295
20
6.3941580049205138
30
0
10
5.2762447790047773
20
6.522081619714565
30
0
0
LINE
5
407
100
AcDbEntity
8
0
100
AcDbLine
10
5.2762447790047773
20
6.522081619714565
30
0
11
5.4559035692128877
21
6.6950883157787349
31
0
0
SPLINE
5
408
100
AcDbEntity
8
0
100
AcDbSpline
70
0
71
2
72
6
73
3
74
0
42
0.000000001
43
0.0000000001
44
0.0000000001
40
0
40
0
40
0
40
1
40
1
40
1
10
5.4559035692128877
20
6.6950883157787358
30
0
10
5.629212108288578
20
6.5135239321880398
30
0
10
5.6452097765328721
20
6.3046022502626968
30
0
0
SPLINE
5
409
100
AcDbEntity
8
0
100
AcDbSpline
70
0
71
2
72
6
73
3
74
0
42
0.000000001
43
0.0000000001
44
0.0000000001
40
0
40
0
40
0
40
1
40
1
40
1
10
5.6452097765328721
20
6.3046022502626968
30
0
10
5.6612074447771663
20
6.0956805683373529
30
0
10
5.5216785842618963
20
5.9036355673401895
30
0
0
SPLINE
5
410
100
AcDbEntity
8
0
100
AcDbSpline
70
0
71
2
72
6
73
3
74
0
42
0.000000001
43
0.0000000001
44
0.0000000001
40
0
40
0
40
0
40
1
40
1
40
1
10
5.5216785842618963
20
5.9036355673401895
30
0
10
5.4254517974975967
20
5.7711907577727741
30
0
10
5.2876201330579162
20
5.7010137080880394
30
0
0
SPLINE
5
411
100
AcDbEntity
8
0
100
AcDbSpline
70
0
71
2
72
6
73
3
74
0
42
0.000000001
43
0.0000000001
44
0.0000000001
40
0
40
0
40
0
40
1
40
1
40
1
10
5.2876201330579162
20
5.7010137080880394
30
0
10
5.1497883042718957
20
5.6308366857136702
30
0
10
5.0086573249889756
20
5.6431566155378725
30
0
0
SPLINE
5
412
100
AcDbEntity
8
0
100
AcDbSpline
70
0
71
2
72
6
73
3
74
0
42
0.000000001
43
0.0000000001
44
0.0000000001
40
0
40
0
40
0
40
1
40
1
40
1
10
5.0086573249889756
20
5.6431566155378725
30
0
10
4.8675263457060556
20
5.6554765453620739
30
0
10
4.7571556811126188
20
5.7356655270334214
30
0
0
SPLINE
5
413
100
AcDbEntity
8
0
100
AcDbSpline
70
0
71
2
72
6
73
3
74
0
42
0.000000001
43
0.0000000001
44
0.0000000001
40
0
40
0
40
0
40
1
40
1
40
1
10
4.7571556811126188
20
5.7356655270334214
30
0
10
4.6523035678317921
20
5.8118450464831772
30
0
10
4.6071107370233495
20
5.9306813985105897
30
0
0
SPLINE
5
414
100
AcDbEntity
8
0
100
AcDbSpline
70
0
71
2
72
6
73
3
74
0
42
0.000000001
43
0.0000000001
44
0.0000000001
40
0
40
0
40
0
40
1
40
1
40
1
10
4.6071107370233495
20
5.9306813985105897
30
0
10
4.5619181143546603
20
6.0495177835041023
30
0
10
4.591336592724085
20
6.1967753779146229
30
0
0
SPLINE
5
415
100
AcDbEntity
8
0
100
AcDbSpline
70
0
71
2
72
6
73
3
74
0
42
0.000000001
43
0.0000000001
44
0.0000000001
40
0
40
0
40
0
40
1
40
1
40
1
10
4.591336592724085
20
6.1967753779146229
30
0
10
4.4539797379872779
20
6.0773502117411677
30
0
10
4.2919433847028641
20
6.0736620449261434
30
0
0
SPLINE
5
416
100
AcDbEntity
8
0
100
AcDbSpline
70
0
71
2
72
6
73
3
74
0
42
0.000000001
43
0.0000000001
44
0.0000000001
40
0
40
0
40
0
40
1
40
1
40
1
10
4.2919433847028641
20
6.0736620449261434
30
0
10
4.1299070643845495
20
6.0699736699713638
30
0
10
3.9731807857604498
20
6.1838419766477895
30
0
0
SPLINE
5
417
100
AcDbEntity
8
0
100
AcDbSpline
70
0
71
2
72
6
73
3
74
0
42
0.000000001
43
0.0000000001
44
0.0000000001
40
0
40
0
40
0
40
1
40
1
40
1
10
3.9731807857604498
20
6.1838419766477895
30
0
10
3.7612689940102415
20
6.3378049055401311
30
0
10
3.7261886921837846
20
6.5993760995329298
30
0
0
SPLINE
5
418
100
AcDbEntity
8
0
100
AcDbSpline
70
0
71
2
72
6
73
3
74
0
42
0.000000001
43
0.0000000001
44
0.0000000001
40
0
40
0
40
0
40
1
40
1
40
1
10
3.7261886921837846
20
6.5993760995329298
30
0
10
3.6911084341507405
20
6.8609473538021923
30
0
10
3.8627128391617949
20
7.0971405543326203
30
0
0
SPLINE
5
419
100
AcDbEntity
8
0
100
AcDbSpline
70
0
71
2
72
6
73
3
74
0
42
0.000000001
43
0.0000000001
44
0.0000000001
40
0
40
0
40
0
40
1
40
1
40
1
10
3.8627128391617949
20
7.0971405543326203
30
0
10
4.0174776035670163
20
7.3101559779859482
30
0
10
4.2466448584015586
20
7.3586611859096962
30
0
0
SPLINE
5
420
100
AcDbEntity
8
0
100
AcDbSpline
70
0
71
2
72
6
73
3
74
0
42
0.000000001
43
0.0000000001
44
0.0000000001
40
0
40
0
40
0
40
1
40
1
40
1
10
4.2466448584015586
20
7.3586611859096962
30
0
10
4.4758121351328075
20
7.4071664239716757
30
0
10
4.6922243848556997
20
7.2802873726417827
30
0
0
SPLINE
5
421
100
AcDbEntity
8
0
100
AcDbSpline
70
0
71
2
72
6
73
3
74
0
42
0.000000001
43
0.0000000001
44
0.0000000001
40
0
40
0
40
0
40
1
40
1
40
1
10
4.1505192772783843
20
5.754834156223203
30
0
10
4.4374829811107341
20
5.5463428213950658
30
0
10
4.5695193876551006
20
5.3601950281516952
30
0
0
SPLINE
5
422
100
AcDbEntity
8
0
100
AcDbSpline
70
0
71
2
72
6
73
3
74
0
42
0.000000001
43
0.0000000001
44
0.0000000001
40
0
40
0
40
0
40
1
40
1
40
1
10
4.5695193876551006
20
5.3601950281516952
30
0
10
4.7015557066126394
20
5.1740471143553979
30
0
10
4.7118751710582032
20
4.9886435877021498
30
0
0
SPLINE
5
423
100
AcDbEntity
8
0
100
AcDbSpline
70
0
71
2
72
6
73
3
74
0
42
0.000000001
43
0.0000000001
44
0.0000000001
40
0
40
0
40
0
40
1
40
1
40
1
10
4.7118751710582032
20
4.9886435877021498
30
0
10
4.7221945479169385
20
4.8032399404959758
30
0
10
4.5938921947601488
20
4.6266469012570619
30
0
0
SPLINE
5
424
100
AcDbEntity
8
0
100
AcDbSpline
70
0
71
2
72
6
73
3
74
0
42
0.000000001
43
0.0000000001
44
0.0000000001
40
0
40
0
40
0
40
1
40
1
40
1
10
4.5938921947601488
20
4.6266469012570619
30
0
10
4.4992691666084372
20
4.4964094760488118
30
0
10
4.375474910149447
20
4.4362693358468261
30
0
0
SPLINE
5
425
100
AcDbEntity
8
0
100
AcDbSpline
70
0
71
2
72
6
73
3
74
0
42
0.000000001
43
0.0000000001
44
0.0000000001
40
0
40
0
40
0
40
1
40
1
40
1
10
4.375474910149447
20
4.4362693358468261
30
0
10
4.2516806536904568
20
4.3761291956448405
30
0
10
4.1063893809738419
20
4.3838835585047047
30
0
0
SPLINE
5
426
100
AcDbEntity
8
0
100
AcDbSpline
70
0
71
2
72
6
73
3
74
0
42
0.000000001
43
0.0000000001
44
0.0000000001
40
0
40
0
40
0
40
1
40
1
40
1
10
4.1063893809738419
20
4.3838835585047047
30
0
10
3.9610980536364968
20
4.3916375926718878
30
0
10
3.7928093219136736
20
4.4582580156255158
30
0
0
SPLINE
5
427
100
AcDbEntity
8
0
100
AcDbSpline
70
0
71
2
72
6
73
3
74
0
42
0.000000001
43
0.0000000001
44
0.0000000001
40
0
40
0
40
0
40
1
40
1
40
1
10
3.7928093219136736
20
4.4582580156255158
30
0
10
3.6245205901908513
20
4.5248784385791438
30
0
10
3.3839125003891639
20
4.699690448402202
30
0
0
SPLINE
5
428
100
AcDbEntity
8
0
100
AcDbSpline
70
0
71
2
72
6
73
3
74
0
42
0.000000001
43
0.0000000001
44
0.0000000001
40
0
40
0
40
0
40
1
40
1
40
1
10
3.3839125003891639
20
4.699690448402202
30
0
10
3.0991561206395168
20
4.9065780684111662
30
0
10
2.9667189167705987
20
5.0921742114632504
30
0
0
SPLINE
5
429
100
AcDbEntity
8
0
100
AcDbSpline
70
0
71
2
72
6
73
3
74
0
42
0.000000001
43
0.0000000001
44
0.0000000001
40
0
40
0
40
0
40
1
40
1
40
1
10
2.9667189167705987
20
5.0921742114632504
30
0
10
2.834281537728025
20
5.2777701134094821
30
0
10
2.8234102695721504
20
5.4635747331138642
30
0
0
SPLINE
5
430
100
AcDbEntity
8
0
100
AcDbSpline
70
0
71
2
72
6
73
3
74
0
42
0.000000001
43
0.0000000001
44
0.0000000001
40
0
40
0
40
0
40
1
40
1
40
1
10
2.8234102695721504
20
5.4635747331138642
30
0
10
2.8125391219692015
20
5.6493792652314179
30
0
10
2.9416433325355786
20
5.8270759665116838
30
0
0
SPLINE
5
431
100
AcDbEntity
8
0
100
AcDbSpline
70
0
71
2
72
6
73
3
74
0
42
0.000000001
43
0.0000000001
44
0.0000000001
40
0
40
0
40
0
40
1
40
1
40
1
10
2.9416433325355786
20
5.8270759665116838
30
0
10
3.1116439351406311
20
6.0610617224064809
30
0
10
3.3764360043572528
20
6.0727230231721041
30
0
0
SPLINE
5
432
100
AcDbEntity
8
0
100
AcDbSpline
70
0
71
2
72
6
73
3
74
0
42
0.000000001
43
0.0000000001
44
0.0000000001
40
0
40
0
40
0
40
1
40
1
40
1
10
3.3764360043572528
20
6.0727230231721041
30
0
10
3.6946884096024339
20
6.0860146671673654
30
0
10
4.1505192772783843
20
5.754834156223203
30
0
0
SPLINE
5
433
100
AcDbEntity
8
0
100
AcDbSpline
70
0
71
2
72
6
73
3
74
0
42
0.000000001
43
0.0000000001
44
0.0000000001
40
0
40
0
40
0
40
1
40
1
40
1
10
4.0021697006004642
20
5.5506484809741625
30
0
10
3.6037315495803988
20
5.8401307424700626
30
0
10
3.4040788609384656
20
5.8426933606181759
30
0
0
SPLINE
5
434
100
AcDbEntity
8
0
100
AcDbSpline
70
0
71
2
72
6
73
3
74
0
42
0.000000001
43
0.0000000001
44
0.0000000001
40
0
40
0
40
0
40
1
40
1
40
1
10
3.4040788609384656
20
5.8426933606181759
30
0
10
3.204426172296531
20
5.845255978766291
30
0
10
3.104991824513641
20
5.7083963402040787
30
0
0
SPLINE
5
435
100
AcDbEntity
8
0
100
AcDbSpline
70
0
71
2
72
6
73
3
74
0
42
0.000000001
43
0.0000000001
44
0.0000000001
40
0
40
0
40
0
40
1
40
1
40
1
10
3.104991824513641
20
5.7083963402040787
30
0
10
3.0055574767307514
20
5.5715367016418664
30
0
10
3.0702427240662655
20
5.3820467517256869
30
0
0
SPLINE
5
436
100
AcDbEntity
8
0
100
AcDbSpline
70
0
71
2
72
6
73
3
74
0
42
0.000000001
43
0.0000000001
44
0.0000000001
40
0
40
0
40
0
40
1
40
1
40
1
10
3.0702427240662655
20
5.3820467517256869
30
0
10
3.1349276756751987
20
5.1925566482904824
30
0
10
3.5322621646539121
20
4.9038762442041701
30
0
0
SPLINE
5
437
100
AcDbEntity
8
0
100
AcDbSpline
70
0
71
2
72
6
73
3
74
0
42
0.000000001
43
0.0000000001
44
0.0000000001
40
0
40
0
40
0
40
1
40
1
40
1
10
3.5322621646539121
20
4.9038762442041701
30
0
10
3.9318039777153277
20
4.6135921252986831
30
0
10
4.1309048626469513
20
4.611430600201702
30
0
0
SPLINE
5
438
100
AcDbEntity
8
0
100
AcDbSpline
70
0
71
2
72
6
73
3
74
0
42
0.000000001
43
0.0000000001
44
0.0000000001
40
0
40
0
40
0
40
1
40
1
40
1
10
4.1309048626469513
20
4.611430600201702
30
0
10
4.330005572404918
20
4.6092688339988701
30
0
10
4.4310437225938104
20
4.7483359171967123
30
0
0
SPLINE
5
439
100
AcDbEntity
8
0
100
AcDbSpline
70
0
71
2
72
6
73
3
74
0
42
0.000000001
43
0.0000000001
44
0.0000000001
40
0
40
0
40
0
40
1
40
1
40
1
10
4.4310437225938104
20
4.7483359171967123
30
0
10
4.5304780703767005
20
4.8851955557589246
30
0
10
4.4739286676244552
20
5.0510682456408951
30
0
0
SPLINE
5
440
100
AcDbEntity
8
0
100
AcDbSpline
70
0
71
2
72
6
73
3
74
0
42
0.000000001
43
0.0000000001
44
0.0000000001
40
0
40
0
40
0
40
1
40
1
40
1
10
4.4739286676244552
20
5.0510682456408951
30
0
10
4.4006077310676028
20
5.2611663070650909
30
0
10
4.0021697006004642
20
5.5506484809741625
30
0
0
LINE
5
441
100
AcDbEntity
8
0
100
AcDbLine
10
1.8409767853455943
20
4.2541132016283454
30
0
11
2.013155055866175
21
4.1290183656967319
31
0
0
SPLINE
5
442
100
AcDbEntity
8
0
100
AcDbSpline
70
0
71
2
72
6
73
3
74
0
42
0.000000001
43
0.0000000001
44
0.0000000001
40
0
40
0
40
0
40
1
40
1
40
1
10
2.013155055866175
20
4.1290183656967319
30
0
10
1.913922454886291
20
4.4102183598211262
30
0
10
2.0847248273141017
20
4.6453076572043486
30
0
0
SPLINE
5
443
100
AcDbEntity
8
0
100
AcDbSpline
70
0
71
2
72
6
73
3
74
0
42
0.000000001
43
0.0000000001
44
0.0000000001
40
0
40
0
40
0
40
1
40
1
40
1
10
2.0847248273141017
20
4.6453076572043486
30
0
10
2.1601025769410986
20
4.74905622899675
30
0
10
2.2651898197576488
20
4.8101403238911624
30
0
0
SPLINE
5
444
100
AcDbEntity
8
0
100
AcDbSpline
70
0
71
2
72
6
73
3
74
0
42
0.000000001
43
0.0000000001
44
0.0000000001
40
0
40
0
40
0
40
1
40
1
40
1
10
2.2651898197576488
20
4.8101403238911624
30
0
10
2.3702773036800515
20
4.871224243611918
30
0
10
2.4621040815432291
20
4.8711177384631936
30
0
0
SPLINE
5
445
100
AcDbEntity
8
0
100
AcDbSpline
70
0
71
2
72
6
73
3
74
0
42
0.000000001
43
0.0000000001
44
0.0000000001
40
0
40
0
40
0
40
1
40
1
40
1
10
2.4621040815432291
20
4.8711177384631936
30
0
10
2.5539305636798257
20
4.8710110797954442
30
0
10
2.6539537256087566
20
4.8253210328124068
30
0
0
SPLINE
5
446
100
AcDbEntity
8
0
100
AcDbSpline
70
0
71
2
72
6
73
3
74
0
42
0.000000001
43
0.0000000001
44
0.0000000001
40
0
40
0
40
0
40
1
40
1
40
1
10
2.6539537256087566
20
4.8253210328124068
30
0
10
2.7212709737455905
20
4.7949618111740575
30
0
10
2.8481972922768595
20
4.7027444428379352
30
0
0
LINE
5
447
100
AcDbEntity
8
0
100
AcDbLine
10
2.8481972922768595
20
4.7027444428379352
30
0
11
3.574436209847327
21
4.1751009837304105
31
0
0
LINE
5
448
100
AcDbEntity
8
0
100
AcDbLine
10
3.574436209847327
20
4.1751009837304105
30
0
11
3.4300960953909989
21
3.9764338597939801
31
0
0
LINE
5
449
100
AcDbEntity
8
0
100
AcDbLine
10
3.4300960953909989
20
3.9764338597939801
30
0
11
2.7800128724969513
21
4.4487469679692939
31
0
0
SPLINE
5
450
100
AcDbEntity
8
0
100
AcDbSpline
70
0
71
2
72
6
73
3
74
0
42
0.000000001
43
0.0000000001
44
0.0000000001
40
0
40
0
40
0
40
1
40
1
40
1
10
2.7800128724969522
20
4.4487469679692939
30
0
10
2.6243902559142027
20
4.5618134172361327
30
0
10
2.5614877764957011
20
4.5889651216493057
30
0
0
SPLINE
5
451
100
AcDbEntity
8
0
100
AcDbSpline
70
0
71
2
72
6
73
3
74
0
42
0.000000001
43
0.0000000001
44
0.0000000001
40
0
40
0
40
0
40
1
40
1
40
1
10
2.5614877764957011
20
4.5889651216493057
30
0
10
2.4694925027336039
20
4.6271365051067379
30
0
10
2.3806884451907528
20
4.59890905631823
30
0
0
SPLINE
5
452
100
AcDbEntity
8
0
100
AcDbSpline
70
0
71
2
72
6
73
3
74
0
42
0.000000001
43
0.0000000001
44
0.0000000001
40
0
40
0
40
0
40
1
40
1
40
1
10
2.3806884451907528
20
4.59890905631823
30
0
10
2.2918843876479005
20
4.5706816075297212
30
0
10
2.226931397453332
20
4.4812814861453756
30
0
0
SPLINE
5
453
100
AcDbEntity
8
0
100
AcDbSpline
70
0
71
2
72
6
73
3
74
0
42
0.000000001
43
0.0000000001
44
0.0000000001
40
0
40
0
40
0
40
1
40
1
40
1
10
2.226931397453332
20
4.4812814861453756
30
0
10
2.1619782320851084
20
4.3918811236551782
30
0
10
2.150847889067248
20
4.2802397523891837
30
0
0
SPLINE
5
454
100
AcDbEntity
8
0
100
AcDbSpline
70
0
71
2
72
6
73
3
74
0
42
0.000000001
43
0.0000000001
44
0.0000000001
40
0
40
0
40
0
40
1
40
1
40
1
10
2.150847889067248
20
4.2802397523891837
30
0
10
2.139717491428657
20
4.1685980524305073
30
0
10
2.1949767212065039
20
4.0787035100155613
30
0
0
SPLINE
5
455
100
AcDbEntity
8
0
100
AcDbSpline
70
0
71
2
72
6
73
3
74
0
42
0.000000001
43
0.0000000001
44
0.0000000001
40
0
40
0
40
0
40
1
40
1
40
1
10
2.1949767212065039
20
4.0787035100155613
30
0
10
2.2502359509843513
20
3.9888089676006149
30
0
10
2.4003401368074151
20
3.8797518929685393
30
0
0
LINE
5
456
100
AcDbEntity
8
0
100
AcDbLine
10
2.4003401368074151
20
3.8797518929685393
30
0
11
3.0283491544510186
21
3.4234766336795919
31
0
0
LINE
5
457
100
AcDbEntity
8
0
100
AcDbLine
10
3.0283491544510186
20
3.4234766336795919
30
0
11
2.8840090399946905
21
3.2248095097431619
31
0
0
LINE
5
458
100
AcDbEntity
8
0
100
AcDbLine
10
2.8840090399946905
20
3.2248095097431619
30
0
11
1.7118725747792167
21
4.0764165003480803
31
0
0
LINE
5
459
100
AcDbEntity
8
0
100
AcDbLine
10
1.7118725747792167
20
4.0764165003480803
30
0
11
1.8409767853455941
21
4.2541132016283454
31
0
0
LINE
5
460
100
AcDbEntity
8
0
100
AcDbLine
10
8.0753348188587495
20
3.1318559145352332
30
0
11
7.8519053980258775
21
3.0248321374868983
31
0
0
SPLINE
5
461
100
AcDbEntity
8
0
100
AcDbSpline
70
0
71
2
72
6
73
3
74
0
42
0.000000001
43
0.0000000001
44
0.0000000001
40
0
40
0
40
0
40
1
40
1
40
1
10
7.8519053980258775
20
3.0248321374868983
30
0
10
7.7471818884780674
20
3.2102783202151972
30
0
10
7.6220626989069551
20
3.2664510409982404
30
0
0
SPLINE
5
462
100
AcDbEntity
8
0
100
AcDbSpline
70
0
71
2
72
6
73
3
74
0
42
0.000000001
43
0.0000000001
44
0.0000000001
40
0
40
0
40
0
40
1
40
1
40
1
10
7.6220626989069551
20
3.2664510409982404
30
0
10
7.4969435093358427
20
3.3226237617812826
30
0
10
7.3581125585130653
20
3.2775148514122203
30
0
0
SPLINE
5
463
100
AcDbEntity
8
0
100
AcDbSpline
70
0
71
2
72
6
73
3
74
0
42
0.000000001
43
0.0000000001
44
0.0000000001
40
0
40
0
40
0
40
1
40
1
40
1
10
7.3581125585130653
20
3.2775148514122203
30
0
10
7.1933319648041785
20
3.2239743909592509
30
0
10
7.1169010039874134
20
3.0729075555478569
30
0
0
SPLINE
5
464
100
AcDbEntity
8
0
100
AcDbSpline
70
0
71
2
72
6
73
3
74
0
42
0.000000001
43
0.0000000001
44
0.0000000001
40
0
40
0
40
0
40
1
40
1
40
1
10
7.1169010039874134
20
3.0729075555478569
30
0
10
7.0404699723114161
20
2.9218406971129021
30
0
10
7.095275162974616
20
2.7531676640570213
30
0
0
SPLINE
5
465
100
AcDbEntity
8
0
100
AcDbSpline
70
0
71
2
72
6
73
3
74
0
42
0.000000001
43
0.0000000001
44
0.0000000001
40
0
40
0
40
0
40
1
40
1
40
1
10
7.095275162974616
20
2.7531676640570213
30
0
10
7.1475508932173559
20
2.5922795096951274
30
0
10
7.2865842308417328
20
2.5219798631191406
30
0
0
SPLINE
5
466
100
AcDbEntity
8
0
100
AcDbSpline
70
0
71
2
72
6
73
3
74
0
42
0.000000001
43
0.0000000001
44
0.0000000001
40
0
40
0
40
0
40
1
40
1
40
1
10
7.2865842308417328
20
2.5219798631191406
30
0
10
7.4256175684661088
20
2.4516802165431533
30
0
10
7.587803155370846
20
2.5043775081735959
30
0
0
SPLINE
5
467
100
AcDbEntity
8
0
100
AcDbSpline
70
0
71
2
72
6
73
3
74
0
42
0.000000001
43
0.0000000001
44
0.0000000001
40
0
40
0
40
0
40
1
40
1
40
1
10
7.587803155370846
20
2.5043775081735959
30
0
10
7.6539749077066617
20
2.5258780138417487
30
0
10
7.7441522344254405
20
2.5838676230244562
30
0
0
LINE
5
468
100
AcDbEntity
8
0
100
AcDbLine
10
7.7441522344254405
20
2.5838676230244562
30
0
11
7.7848119721469287
21
2.3704333582701755
31
0
0
SPLINE
5
469
100
AcDbEntity
8
0
100
AcDbSpline
70
0
71
2
72
6
73
3
74
0
42
0.000000001
43
0.0000000001
44
0.0000000001
40
0
40
0
40
0
40
1
40
1
40
1
10
7.7848119721469295
20
2.370433358270176
30
0
10
7.7606139794768572
20
2.3654400794842898
30
0
10
7.7463416546317267
20
2.3608027200310726
30
0
0
SPLINE
5
470
100
AcDbEntity
8
0
100
AcDbSpline
70
0
71
2
72
6
73
3
74
0
42
0.000000001
43
0.0000000001
44
0.0000000001
40
0
40
0
40
0
40
1
40
1
40
1
10
7.7463416546317267
20
2.3608027200310726
30
0
10
7.5971308891700451
20
2.312321203442584
30
0
10
7.5030569730995422
20
2.195686919794996
30
0
0
SPLINE
5
471
100
AcDbEntity
8
0
100
AcDbSpline
70
0
71
2
72
6
73
3
74
0
42
0.000000001
43
0.0000000001
44
0.0000000001
40
0
40
0
40
0
40
1
40
1
40
1
10
7.5030569730995422
20
2.195686919794996
30
0
10
7.408983103076161
20
2.0790524944289439
30
0
10
7.4616803947066037
20
1.9168669075242073
30
0
0
SPLINE
5
472
100
AcDbEntity
8
0
100
AcDbSpline
70
0
71
2
72
6
73
3
74
0
42
0.000000001
43
0.0000000001
44
0.0000000001
40
0
40
0
40
0
40
1
40
1
40
1
10
7.4616803947066037
20
1.9168669075242073
30
0
10
7.5034166758326792
20
1.788415842199568
30
0
10
7.6177507236371369
20
1.7323250668021941
30
0
0
SPLINE
5
473
100
AcDbEntity
8
0
100
AcDbSpline
70
0
71
2
72
6
73
3
74
0
42
0.000000001
43
0.0000000001
44
0.0000000001
40
0
40
0
40
0
40
1
40
1
40
1
10
7.6177507236371369
20
1.7323250668021941
30
0
10
7.7320848423008286
20
1.6762343144283802
30
0
10
7.8696182188622963
20
1.7209216173626189
30
0
0
SPLINE
5
474
100
AcDbEntity
8
0
100
AcDbSpline
70
0
71
2
72
6
73
3
74
0
42
0.000000001
43
0.0000000001
44
0.0000000001
40
0
40
0
40
0
40
1
40
1
40
1
10
7.8696182188622963
20
1.7209216173626189
30
0
10
8.0058541983105389
20
1.7651873704209342
30
0
10
8.0688539582231993
20
1.8803319555745388
30
0
0
SPLINE
5
475
100
AcDbEntity
8
0
100
AcDbSpline
70
0
71
2
72
6
73
3
74
0
42
0.000000001
43
0.0000000001
44
0.0000000001
40
0
40
0
40
0
40
1
40
1
40
1
10
8.0688539582231993
20
1.8803319555745388
30
0
10
8.1318537287533648
20
1.9954763874978987
30
0
10
8.1021550830129812
20
2.1751760004653971
30
0
0
LINE
5
476
100
AcDbEntity
8
0
100
AcDbLine
10
8.1021550830129812
20
2.1751760004653971
30
0
11
8.3491928819745507
21
2.2095405703929369
31
0
0
SPLINE
5
477
100
AcDbEntity
8
0
100
AcDbSpline
70
0
71
2
72
6
73
3
74
0
42
0.000000001
43
0.0000000001
44
0.0000000001
40
0
40
0
40
0
40
1
40
1
40
1
10
8.3491928819745507
20
2.2095405703929374
30
0
10
8.382681568340896
20
1.9607836951298088
30
0
10
8.2728228703010469
20
1.7823593104937445
30
0
0
SPLINE
5
478
100
AcDbEntity
8
0
100
AcDbSpline
70
0
71
2
72
6
73
3
74
0
42
0.000000001
43
0.0000000001
44
0.0000000001
40
0
40
0
40
0
40
1
40
1
40
1
10
8.2728228703010469
20
1.7823593104937445
30
0
10
8.1629641722611961
20
1.60393492585768
30
0
10
7.9372017335359457
20
1.5305802628462717
30
0
0
SPLINE
5
479
100
AcDbEntity
8
0
100
AcDbSpline
70
0
71
2
72
6
73
3
74
0
42
0.000000001
43
0.0000000001
44
0.0000000001
40
0
40
0
40
0
40
1
40
1
40
1
10
7.9372017335359457
20
1.5305802628462717
30
0
10
7.7815035219231197
20
1.4799908472250258
30
0
10
7.6287463281743504
20
1.5042318410715501
30
0
0
SPLINE
5
480
100
AcDbEntity
8
0
100
AcDbSpline
70
0
71
2
72
6
73
3
74
0
42
0.000000001
43
0.0000000001
44
0.0000000001
40
0
40
0
40
0
40
1
40
1
40
1
10
7.6287463281743504
20
1.5042318410715501
30
0
10
7.475989017519229
20
1.5284729536129784
30
0
10
7.3690531299065123
20
1.6213946944743594
30
0
0
SPLINE
5
481
100
AcDbEntity
8
0
100
AcDbSpline
70
0
71
2
72
6
73
3
74
0
42
0.000000001
43
0.0000000001
44
0.0000000001
40
0
40
0
40
0
40
1
40
1
40
1
10
7.3690531299065123
20
1.6213946944743594
30
0
10
7.2621172422937956
20
1.7143164353357405
30
0
10
7.2199593997800173
20
1.8440649332032226
30
0
0
SPLINE
5
482
100
AcDbEntity
8
0
100
AcDbSpline
70
0
71
2
72
6
73
3
74
0
42
0.000000001
43
0.0000000001
44
0.0000000001
40
0
40
0
40
0
40
1
40
1
40
1
10
7.2199593997800173
20
1.8440649332032226
30
0
10
7.1799094562989954
20
1.9673259849195612
30
0
10
7.2131979433090034
20
2.0900302927178145
30
0
0
SPLINE
5
483
100
AcDbEntity
8
0
100
AcDbSpline
70
0
71
2
72
6
73
3
74
0
42
0.000000001
43
0.0000000001
44
0.0000000001
40
0
40
0
40
0
40
1
40
1
40
1
10
7.2131979433090034
20
2.0900302927178145
30
0
10
7.2464866180845968
20
2.2127345048447236
30
0
10
7.3568425093166834
20
2.3145766535431744
30
0
0
SPLINE
5
484
100
AcDbEntity
8
0
100
AcDbSpline
70
0
71
2
72
6
73
3
74
0
42
0.000000001
43
0.0000000001
44
0.0000000001
40
0
40
0
40
0
40
1
40
1
40
1
10
7.3568425093166834
20
2.3145766535431744
30
0
10
7.175522128111381
20
2.2986959980683732
30
0
10
7.0422641145358806
20
2.3909547872327592
30
0
0
SPLINE
5
485
100
AcDbEntity
8
0
100
AcDbSpline
70
0
71
2
72
6
73
3
74
0
42
0.000000001
43
0.0000000001
44
0.0000000001
40
0
40
0
40
0
40
1
40
1
40
1
10
7.0422641145358806
20
2.3909547872327592
30
0
10
6.9090060052890383
20
2.4832133886315604
30
0
10
6.8491418937849167
20
2.6674561790754141
30
0
0
SPLINE
5
486
100
AcDbEntity
8
0
100
AcDbSpline
70
0
71
2
72
6
73
3
74
0
42
0.000000001
43
0.0000000001
44
0.0000000001
40
0
40
0
40
0
40
1
40
1
40
1
10
6.8491418937849167
20
2.6674561790754141
30
0
10
6.7681987919532274
20
2.9165734310307063
30
0
10
6.8935659218613221
20
3.1488086562693871
30
0
0
SPLINE
5
487
100
AcDbEntity
8
0
100
AcDbSpline
70
0
71
2
72
6
73
3
74
0
42
0.000000001
43
0.0000000001
44
0.0000000001
40
0
40
0
40
0
40
1
40
1
40
1
10
6.8935659218613221
20
3.1488086562693871
30
0
10
7.0189331226286473
20
3.3810439045316287
30
0
10
7.2965948825557367
20
3.4712616792226325
30
0
0
SPLINE
5
488
100
AcDbEntity
8
0
100
AcDbSpline
70
0
71
2
72
6
73
3
74
0
42
0.000000001
43
0.0000000001
44
0.0000000001
40
0
40
0
40
0
40
1
40
1
40
1
10
7.2965948825557367
20
3.4712616792226325
30
0
10
7.5470095316242558
20
3.552626330930245
30
0
10
7.7609203812166143
20
3.4571667357561524
30
0
0
SPLINE
5
489
100
AcDbEntity
8
0
100
AcDbSpline
70
0
71
2
72
6
73
3
74
0
42
0.000000001
43
0.0000000001
44
0.0000000001
40
0
40
0
40
0
40
1
40
1
40
1
10
7.7609203812166143
20
3.4571667357561524
30
0
10
7.9748312662385876
20
3.3617071520938402
30
0
10
8.0753348188587495
20
3.1318559145352332
30
0
0
SPLINE
5
490
100
AcDbEntity
8
0
100
AcDbSpline
70
0
71
2
72
6
73
3
74
0
42
0.000000001
43
0.0000000001
44
0.0000000001
40
0
40
0
40
0
40
1
40
1
40
1
10
6.7404472772160346
20
2.2161446116541326
30
0
10
6.8500576585424335
20
1.8787985455423719
30
0
10
6.8474624276977831
20
1.6505927648106189
30
0
0
SPLINE
5
491
100
AcDbEntity
8
0
100
AcDbSpline
70
0
71
2
72
6
73
3
74
0
42
0.000000001
43
0.0000000001
44
0.0000000001
40
0
40
0
40
0
40
1
40
1
40
1
10
6.8474624276977831
20
1.6505927648106189
30
0
10
6.8448670551346691
20
1.4223869380317455
30
0
10
6.7442382185541847
20
1.2663267051395604
30
0
0
SPLINE
5
492
100
AcDbEntity
8
0
100
AcDbSpline
70
0
71
2
72
6
73
3
74
0
42
0.000000001
43
0.0000000001
44
0.0000000001
40
0
40
0
40
0
40
1
40
1
40
1
10
6.7442382185541847
20
1.2663267051395604
30
0
10
6.6436092402552358
20
1.1102664262002551
30
0
10
6.4360116720109577
20
1.0428138873876343
30
0
0
SPLINE
5
493
100
AcDbEntity
8
0
100
AcDbSpline
70
0
71
2
72
6
73
3
74
0
42
0.000000001
43
0.0000000001
44
0.0000000001
40
0
40
0
40
0
40
1
40
1
40
1
10
6.4360116720109577
20
1.0428138873876343
30
0
10
6.2829083963430499
20
0.99306761756535478
30
0
10
6.1474072515801881
20
1.017177660362963
30
0
0
SPLINE
5
494
100
AcDbEntity
8
0
100
AcDbSpline
70
0
71
2
72
6
73
3
74
0
42
0.000000001
43
0.0000000001
44
0.0000000001
40
0
40
0
40
0
40
1
40
1
40
1
10
6.1474072515801881
20
1.017177660362963
30
0
10
6.0119061068173254
20
1.0412877031605712
30
0
10
5.8989208981851702
20
1.1329611818843812
30
0
0
SPLINE
5
495
100
AcDbEntity
8
0
100
AcDbSpline
70
0
71
2
72
6
73
3
74
0
42
0.000000001
43
0.0000000001
44
0.0000000001
40
0
40
0
40
0
40
1
40
1
40
1
10
5.8989208981851702
20
1.1329611818843812
30
0
10
5.7859354521632076
20
1.2246344267954858
30
0
10
5.6889455103512665
20
1.3774491157710977
30
0
0
SPLINE
5
496
100
AcDbEntity
8
0
100
AcDbSpline
70
0
71
2
72
6
73
3
74
0
42
0.000000001
43
0.0000000001
44
0.0000000001
40
0
40
0
40
0
40
1
40
1
40
1
10
5.6889455103512665
20
1.3774491157710977
30
0
10
5.5919555685393263
20
1.5302638047467099
30
0
10
5.500051456203269
20
1.8131155782820989
30
0
0
SPLINE
5
497
100
AcDbEntity
8
0
100
AcDbSpline
70
0
71
2
72
6
73
3
74
0
42
0.000000001
43
0.0000000001
44
0.0000000001
40
0
40
0
40
0
40
1
40
1
40
1
10
5.500051456203269
20
1.8131155782820989
30
0
10
5.3912841976522756
20
2.1478667793081745
30
0
10
5.3932309248032002
20
2.3758618484167564
30
0
0
SPLINE
5
498
100
AcDbEntity
8
0
100
AcDbSpline
70
0
71
2
72
6
73
3
74
0
42
0.000000001
43
0.0000000001
44
0.0000000001
40
0
40
0
40
0
40
1
40
1
40
1
10
5.3932309248032002
20
2.3758618484167564
30
0
10
5.3951773685171966
20
2.6038568254310972
30
0
10
5.4955955430987347
20
2.7605658915010567
30
0
0
SPLINE
5
499
100
AcDbEntity
8
0
100
AcDbSpline
70
0
71
2
72
6
73
3
74
0
42
0.000000001
43
0.0000000001
44
0.0000000001
40
0
40
0
40
0
40
1
40
1
40
1
10
5.4955955430987347
20
2.7605658915010567
30
0
10
5.5960137637273917
20
2.9172748158525508
30
0
10
5.8049087645145132
20
2.9851489160528755
30
0
0
SPLINE
5
500
100
AcDbEntity
8
0
100
AcDbSpline
70
0
71
2
72
6
73
3
74
0
42
0.000000001
43
0.0000000001
44
0.0000000001
40
0
40
0
40
0
40
1
40
1
40
1
10
5.8049087645145132
20
2.9851489160528755
30
0
10
6.0799755176374521
20
3.0745235219213516
30
0
10
6.3010511422219864
20
2.9283168392077199
30
0
0
SPLINE
5
501
100
AcDbEntity
8
0
100
AcDbSpline
70
0
71
2
72
6
73
3
74
0
42
0.000000001
43
0.0000000001
44
0.0000000001
40
0
40
0
40
0
40
1
40
1
40
1
10
6.3010511422219864
20
2.9283168392077199
30
0
10
6.5663353788851779
20
2.7520059347733428
30
0
10
6.7404472772160346
20
2.2161446116541326
30
0
0
SPLINE
5
502
100
AcDbEntity
8
0
100
AcDbSpline
70
0
71
2
72
6
73
3
74
0
42
0.000000001
43
0.0000000001
44
0.0000000001
40
0
40
0
40
0
40
1
40
1
40
1
10
6.5004126199345009
20
2.1381526237248476
30
0
10
6.3482227886595002
20
2.6065447619653979
30
0
10
6.188206639730244
20
2.7259708695615856
30
0
0
SPLINE
5
503
100
AcDbEntity
8
0
100
AcDbSpline
70
0
71
2
72
6
73
3
74
0
42
0.000000001
43
0.0000000001
44
0.0000000001
40
0
40
0
40
0
40
1
40
1
40
1
10
6.188206639730244
20
2.7259708695615856
30
0
10
6.0281904908009887
20
2.8453969771577734
30
0
10
5.8673023364390939
20
2.7931212469150344
30
0
0
SPLINE
5
504
100
AcDbEntity
8
0
100
AcDbSpline
70
0
71
2
72
6
73
3
74
0
42
0.000000001
43
0.0000000001
44
0.0000000001
40
0
40
0
40
0
40
1
40
1
40
1
10
5.8673023364390939
20
2.7931212469150344
30
0
10
5.7064141820772001
20
2.7408455166722954
30
0
10
5.6473662484386091
20
2.5495238925021422
30
0
0
SPLINE
5
505
100
AcDbEntity
8
0
100
AcDbSpline
70
0
71
2
72
6
73
3
74
0
42
0.000000001
43
0.0000000001
44
0.0000000001
40
0
40
0
40
0
40
1
40
1
40
1
10
5.6473662484386091
20
2.5495238925021422
30
0
10
5.5883179853159692
20
2.3582023179562133
30
0
10
5.7400862552032672
20
1.8911076122585049
30
0
0
SPLINE
5
506
100
AcDbEntity
8
0
100
AcDbSpline
70
0
71
2
72
6
73
3
74
0
42
0.000000001
43
0.0000000001
44
0.0000000001
40
0
40
0
40
0
40
1
40
1
40
1
10
5.7400862552032672
20
1.8911076122585049
30
0
10
5.8926976478659707
20
1.421418041475111
30
0
10
6.0525031347962797
20
1.3026407670566975
30
0
0
SPLINE
5
507
100
AcDbEntity
8
0
100
AcDbSpline
70
0
71
2
72
6
73
3
74
0
42
0.000000001
43
0.0000000001
44
0.0000000001
40
0
40
0
40
0
40
1
40
1
40
1
10
6.0525031347962797
20
1.3026407670566975
30
0
10
6.2123083382896596
20
1.1838634005440429
30
0
10
6.3757914994557039
20
1.2369822996093092
30
0
0
SPLINE
5
508
100
AcDbEntity
8
0
100
AcDbSpline
70
0
71
2
72
6
73
3
74
0
42
0.000000001
43
0.0000000001
44
0.0000000001
40
0
40
0
40
0
40
1
40
1
40
1
10
6.3757914994557039
20
1.2369822996093092
30
0
10
6.5366796538175977
20
1.2892580298520486
30
0
10
6.5884277468399821
20
1.4566907598329648
30
0
0
SPLINE
5
509
100
AcDbEntity
8
0
100
AcDbSpline
70
0
71
2
72
6
73
3
74
0
42
0.000000001
43
0.0000000001
44
0.0000000001
40
0
40
0
40
0
40
1
40
1
40
1
10
6.5884277468399821
20
1.4566907598329648
30
0
10
6.6526024051623818
20
1.669760627202761
30
0
10
6.5004126199345009
20
2.1381526237248476
30
0
0
LINE
5
510
100
AcDbEntity
8
0
100
AcDbLine
10
4.8734739235417752
20
2.6466458268205653
30
0
11
5.4915079215010945
21
0.74453276588656503
31
0
0
LINE
5
511
100
AcDbEntity
8
0
100
AcDbLine
10
5.4915079215010945
20
0.74453276588656481
30
0
11
5.2397958044601172
21
0.66274654127946864
31
0
0
LINE
5
512
100
AcDbEntity
8
0
100
AcDbLine
10
5.2397958044601172
20
0.66274654127946853
30
0
11
4.6946948735891629
21
2.3403947023199088
31
0
0
LINE
5
513
100
AcDbEntity
8
0
100
AcDbLine
10
4.694694873589162
20
2.3403947023199088
30
0
11
3.7579105971080606
21
2.0360150397699068
31
0
0
LINE
5
514
100
AcDbEntity
8
0
100
AcDbLine
10
3.7579105971080606
20
2.0360150397699068
30
0
11
3.6849775300196956
21
2.2604799396634663
31
0
0
LINE
5
515
100
AcDbEntity
8
0
100
AcDbLine
10
3.6849775300196952
20
2.2604799396634663
30
0
11
4.8734739235417752
21
2.6466458268205653
31
0
0
LINE
5
516
100
AcDbEntity
8
0
100
AcDbLine
10
7.2043017478271825
20
-1.5258236653870676
30
0
11
7.2772348149155475
21
-1.3013587654935079
31
0
0
LINE
5
517
100
AcDbEntity
8
0
100
AcDbLine
10
7.2772348149155466
20
-1.3013587654935082
30
0
11
8.5344976929980678
21
-1.7098682379249908
31
0
0
SPLINE
5
518
100
AcDbEntity
8
0
100
AcDbSpline
70
0
71
2
72
6
73
3
74
0
42
0.000000001
43
0.0000000001
44
0.0000000001
40
0
40
0
40
0
40
1
40
1
40
1
10
8.5344976929980678
20
-1.7098682379249908
30
0
10
8.5096900690410031
20
-1.7950479117636777
30
0
10
8.4545532196498225
20
-1.8632006788227764
30
0
0
SPLINE
5
519
100
AcDbEntity
8
0
100
AcDbSpline
70
0
71
2
72
6
73
3
74
0
42
0.000000001
43
0.0000000001
44
0.0000000001
40
0
40
0
40
0
40
1
40
1
40
1
10
8.4545532196498225
20
-1.8632006788227764
30
0
10
8.3648099946670769
20
-1.9760533425324356
30
0
10
8.2185934682879065
20
-2.0662531865243015
30
0
0
SPLINE
5
520
100
AcDbEntity
8
0
100
AcDbSpline
70
0
71
2
72
6
73
3
74
0
42
0.000000001
43
0.0000000001
44
0.0000000001
40
0
40
0
40
0
40
1
40
1
40
1
10
8.2185934682879065
20
-2.0662531865243015
30
0
10
8.0723768781468088
20
-2.1564531664787419
30
0
10
7.8194453355783722
20
-2.2550131075341606
30
0
0
SPLINE
5
521
100
AcDbEntity
8
0
100
AcDbSpline
70
0
71
2
72
6
73
3
74
0
42
0.000000001
43
0.0000000001
44
0.0000000001
40
0
40
0
40
0
40
1
40
1
40
1
10
7.8194453355783722
20
-2.2550131075341606
30
0
10
7.4267170577547903
20
-2.4085629960598403
30
0
10
7.2694575949889453
20
-2.5217124612222963
30
0
0
SPLINE
5
522
100
AcDbEntity
8
0
100
AcDbSpline
70
0
71
2
72
6
73
3
74
0
42
0.000000001
43
0.0000000001
44
0.0000000001
40
0
40
0
40
0
40
1
40
1
40
1
10
7.2694575949889453
20
-2.5217124612222963
30
0
10
7.1121981322230994
20
-2.6348619263847519
30
0
10
7.0691971208867947
20
-2.7672054310563849
30
0
0
SPLINE
5
523
100
AcDbEntity
8
0
100
AcDbSpline
70
0
71
2
72
6
73
3
74
0
42
0.000000001
43
0.0000000001
44
0.0000000001
40
0
40
0
40
0
40
1
40
1
40
1
10
7.0691971208867947
20
-2.7672054310563849
30
0
10
7.0240882565648519
20
-2.9060362401606965
30
0
10
7.0923597859173455
20
-3.0336521647960968
30
0
0
SPLINE
5
524
100
AcDbEntity
8
0
100
AcDbSpline
70
0
71
2
72
6
73
3
74
0
42
0.000000001
43
0.0000000001
44
0.0000000001
40
0
40
0
40
0
40
1
40
1
40
1
10
7.0923597859173455
20
-3.0336521647960968
30
0
10
7.1606313861290714
20
-3.1612681124550566
30
0
10
7.3202220370888904
20
-3.2131222582865329
30
0
0
SPLINE
5
525
100
AcDbEntity
8
0
100
AcDbSpline
70
0
71
2
72
6
73
3
74
0
42
0.000000001
43
0.0000000001
44
0.0000000001
40
0
40
0
40
0
40
1
40
1
40
1
10
7.3202220370888904
20
-3.2131222582865329
30
0
10
7.4888950347151546
20
-3.2679274374379519
30
0
10
7.6229820064997202
20
-3.199606712868075
30
0
0
SPLINE
5
526
100
AcDbEntity
8
0
100
AcDbSpline
70
0
71
2
72
6
73
3
74
0
42
0.000000001
43
0.0000000001
44
0.0000000001
40
0
40
0
40
0
40
1
40
1
40
1
10
7.6229820064997202
20
-3.199606712868075
30
0
10
7.757068978284285
20
-3.1312859882981976
30
0
10
7.8165442661629303
20
-2.9526546426436626
30
0
0
LINE
5
527
100
AcDbEntity
8
0
100
AcDbLine
10
7.8165442661629303
20
-2.9526546426436626
30
0
11
8.0485690056074901
21
-3.0552988639397767
31
0
0
SPLINE
5
528
100
AcDbEntity
8
0
100
AcDbSpline
70
0
71
2
72
6
73
3
74
0
42
0.000000001
43
0.0000000001
44
0.0000000001
40
0
40
0
40
0
40
1
40
1
40
1
10
8.0485690056074919
20
-3.0552988639397767
30
0
10
7.9366500884285038
20
-3.3158681822153668
30
0
10
7.7300206585924336
20
-3.4043696224689004
30
0
0
SPLINE
5
529
100
AcDbEntity
8
0
100
AcDbSpline
70
0
71
2
72
6
73
3
74
0
42
0.000000001
43
0.0000000001
44
0.0000000001
40
0
40
0
40
0
40
1
40
1
40
1
10
7.7300206585924336
20
-3.4043696224689004
30
0
10
7.5233912287563616
20
-3.492871062722434
30
0
10
7.2522169149804174
20
-3.404761187064187
30
0
0
SPLINE
5
530
100
AcDbEntity
8
0
100
AcDbSpline
70
0
71
2
72
6
73
3
74
0
42
0.000000001
43
0.0000000001
44
0.0000000001
40
0
40
0
40
0
40
1
40
1
40
1
10
7.2522169149804174
20
-3.404761187064187
30
0
10
6.9784475944003219
20
-3.3158081425834136
30
0
10
6.8681816058279601
20
-3.1121482953453379
30
0
0
SPLINE
5
531
100
AcDbEntity
8
0
100
AcDbSpline
70
0
71
2
72
6
73
3
74
0
42
0.000000001
43
0.0000000001
44
0.0000000001
40
0
40
0
40
0
40
1
40
1
40
1
10
6.8681816058279601
20
-3.1121482953453379
30
0
10
6.7579155924434851
20
-2.9084882833652377
30
0
10
6.8308486595318492
20
-2.6840233834716773
30
0
0
SPLINE
5
532
100
AcDbEntity
8
0
100
AcDbSpline
70
0
71
2
72
6
73
3
74
0
42
0.000000001
43
0.0000000001
44
0.0000000001
40
0
40
0
40
0
40
1
40
1
40
1
10
6.8308486595318492
20
-2.6840233834716773
30
0
10
6.8679475351575885
20
-2.5698447847106332
30
0
10
6.9504912822210656
20
-2.4747353381951203
30
0
0
SPLINE
5
533
100
AcDbEntity
8
0
100
AcDbSpline
70
0
71
2
72
6
73
3
74
0
42
0.000000001
43
0.0000000001
44
0.0000000001
40
0
40
0
40
0
40
1
40
1
40
1
10
6.9504912822210656
20
-2.4747353381951203
30
0
10
7.0330348415189565
20
-2.3796259873509507
30
0
10
7.1810032342120618
20
-2.292864171511408
30
0
0
SPLINE
5
534
100
AcDbEntity
8
0
100
AcDbSpline
70
0
71
2
72
6
73
3
74
0
42
0.000000001
43
0.0000000001
44
0.0000000001
40
0
40
0
40
0
40
1
40
1
40
1
10
7.1810032342120618
20
-2.292864171511408
30
0
10
7.3289716269051661
20
-2.2061023556718649
30
0
10
7.6498225034974663
20
-2.0751011171212856
30
0
0
SPLINE
5
535
100
AcDbEntity
8
0
100
AcDbSpline
70
0
71
2
72
6
73
3
74
0
42
0.000000001
43
0.0000000001
44
0.0000000001
40
0
40
0
40
0
40
1
40
1
40
1
10
7.6498225034974663
20
-2.0751011171212856
30
0
10
7.9173497402470598
20
-1.9669387597763219
30
0
10
7.9974805795599462
20
-1.9234034080107054
30
0
0
SPLINE
5
536
100
AcDbEntity
8
0
100
AcDbSpline
70
0
71
2
72
6
73
3
74
0
42
0.000000001
43
0.0000000001
44
0.0000000001
40
0
40
0
40
0
40
1
40
1
40
1
10
7.9974805795599462
20
-1.9234034080107054
30
0
10
8.077611500349569
20
-1.8798679260384044
30
0
10
8.1371933723835923
20
-1.8289385286561599
30
0
0
LINE
5
537
100
AcDbEntity
8
0
100
AcDbLine
10
8.1371933723835923
20
-1.8289385286561599
30
0
11
7.2043017478271825
21
-1.525823665387068
31
0
0
LINE
5
538
100
AcDbEntity
8
0
100
AcDbLine
10
6.864934018848273
20
-1.7182283227477699
30
0
11
6.6129640894724648
21
-1.6593097681697051
31
0
0
SPLINE
5
539
100
AcDbEntity
8
0
100
AcDbSpline
70
0
71
2
72
6
73
3
74
0
42
0.000000001
43
0.0000000001
44
0.0000000001
40
0
40
0
40
0
40
1
40
1
40
1
10
6.6129640894724648
20
-1.6593097681697051
30
0
10
6.6438946922312336
20
-1.4714036920969558
30
0
10
6.5739368960929179
20
-1.3489778040934175
30
0
0
SPLINE
5
540
100
AcDbEntity
8
0
100
AcDbSpline
70
0
71
2
72
6
73
3
74
0
42
0.000000001
43
0.0000000001
44
0.0000000001
40
0
40
0
40
0
40
1
40
1
40
1
10
6.5739368960929179
20
-1.3489778040934175
30
0
10
6.5039790042832593
20
-1.2265517283242939
30
0
10
6.3638506209176393
20
-1.1810212565675282
30
0
0
SPLINE
5
541
100
AcDbEntity
8
0
100
AcDbSpline
70
0
71
2
72
6
73
3
74
0
42
0.000000001
43
0.0000000001
44
0.0000000001
40
0
40
0
40
0
40
1
40
1
40
1
10
6.3638506209176393
20
-1.1810212565675282
30
0
10
6.1951775878617585
20
-1.1262160659043285
30
0
10
6.0370891208397284
20
-1.2154276081907405
30
0
0
SPLINE
5
542
100
AcDbEntity
8
0
100
AcDbSpline
70
0
71
2
72
6
73
3
74
0
42
0.000000001
43
0.0000000001
44
0.0000000001
40
0
40
0
40
0
40
1
40
1
40
1
10
6.0370891208397284
20
-1.2154276081907405
30
0
10
5.8790009833017463
20
-1.3046391008529286
30
0
10
5.8107052756665993
20
-1.5148316759013576
30
0
0
SPLINE
5
543
100
AcDbEntity
8
0
100
AcDbSpline
70
0
71
2
72
6
73
3
74
0
42
0.000000001
43
0.0000000001
44
0.0000000001
40
0
40
0
40
0
40
1
40
1
40
1
10
5.8107052756665993
20
-1.5148316759013576
30
0
10
5.7457821972744387
20
-1.7146443654516497
30
0
10
5.820493951582959
20
-1.8665870029475036
30
0
0
SPLINE
5
544
100
AcDbEntity
8
0
100
AcDbSpline
70
0
71
2
72
6
73
3
74
0
42
0.000000001
43
0.0000000001
44
0.0000000001
40
0
40
0
40
0
40
1
40
1
40
1
10
5.820493951582959
20
-1.8665870029475036
30
0
10
5.8952059893284101
20
-2.0185297325375977
30
0
10
6.0768539146865788
20
-2.0775507212663111
30
0
0
SPLINE
5
545
100
AcDbEntity
8
0
100
AcDbSpline
70
0
71
2
72
6
73
3
74
0
42
0.000000001
43
0.0000000001
44
0.0000000001
40
0
40
0
40
0
40
1
40
1
40
1
10
6.0768539146865788
20
-2.0775507212663111
30
0
10
6.1897350809047804
20
-2.1142280355043459
30
0
10
6.2972113860813872
20
-2.09248788950867
30
0
0
SPLINE
5
546
100
AcDbEntity
8
0
100
AcDbSpline
70
0
71
2
72
6
73
3
74
0
42
0.000000001
43
0.0000000001
44
0.0000000001
40
0
40
0
40
0
40
1
40
1
40
1
10
6.2972113860813872
20
-2.09248788950867
30
0
10
6.4046876912579958
20
-2.0707477435129951
30
0
10
6.4831465913048749
20
-2.0058692382856762
30
0
0
LINE
5
547
100
AcDbEntity
8
0
100
AcDbLine
10
6.4831465913048749
20
-2.0058692382856762
30
0
11
6.6931467586836995
21
-2.1056606174192489
31
0
0
LINE
5
548
100
AcDbEntity
8
0
100
AcDbLine
10
6.6931467586836995
20
-2.1056606174192489
30
0
11
6.1914553961527172
21
-3.0228027501274712
31
0
0
LINE
5
549
100
AcDbEntity
8
0
100
AcDbLine
10
6.1914553961527172
20
-3.0228027501274712
30
0
11
5.2455888084347855
21
-2.7154720657693057
31
0
0
LINE
5
550
100
AcDbEntity
8
0
100
AcDbLine
10
5.2455888084347873
20
-2.7154720657693057
30
0
11
5.3181002680883278
21
-2.4923047401370533
31
0
0
LINE
5
551
100
AcDbEntity
8
0
100
AcDbLine
10
5.3181002680883278
20
-2.4923047401370528
30
0
11
6.0771289168397917
21
-2.7389280981214514
31
0
0
LINE
5
552
100
AcDbEntity
8
0
100
AcDbLine
10
6.07712891683979
20
-2.7389280981214514
30
0
11
6.3457322489129719
21
-2.261023716387677
31
0
0
SPLINE
5
553
100
AcDbEntity
8
0
100
AcDbSpline
70
0
71
2
72
6
73
3
74
0
42
0.000000001
43
0.0000000001
44
0.0000000001
40
0
40
0
40
0
40
1
40
1
40
1
10
6.3457322489129719
20
-2.261023716387677
30
0
10
6.1356789957821505
20
-2.3247439692712955
30
0
10
5.9475436242728374
20
-2.2636150815098248
30
0
0
SPLINE
5
554
100
AcDbEntity
8
0
100
AcDbSpline
70
0
71
2
72
6
73
3
74
0
42
0.000000001
43
0.0000000001
44
0.0000000001
40
0
40
0
40
0
40
1
40
1
40
1
10
5.9475436242728374
20
-2.2636150815098248
30
0
10
5.698426372317547
20
-2.1826719796781346
30
0
10
5.5832283950494084
20
-1.9544581938366548
30
0
0
SPLINE
5
555
100
AcDbEntity
8
0
100
AcDbSpline
70
0
71
2
72
6
73
3
74
0
42
0.000000001
43
0.0000000001
44
0.0000000001
40
0
40
0
40
0
40
1
40
1
40
1
10
5.5832283950494084
20
-1.9544581938366548
30
0
10
5.4680304638283932
20
-1.7262442662767103
30
0
10
5.5561403394866407
20
-1.4550699525007653
30
0
0
SPLINE
5
556
100
AcDbEntity
8
0
100
AcDbSpline
70
0
71
2
72
6
73
3
74
0
42
0.000000001
43
0.0000000001
44
0.0000000001
40
0
40
0
40
0
40
1
40
1
40
1
10
5.5561403394866407
20
-1.4550699525007653
30
0
10
5.6400344631264936
20
-1.1968703893086441
30
0
10
5.8516714319861354
20
-1.0576382144704288
30
0
0
SPLINE
5
557
100
AcDbEntity
8
0
100
AcDbSpline
70
0
71
2
72
6
73
3
74
0
42
0.000000001
43
0.0000000001
44
0.0000000001
40
0
40
0
40
0
40
1
40
1
40
1
10
5.8516714319861354
20
-1.0576382144704288
30
0
10
6.1096578977267333
20
-0.88612846458926253
30
0
10
6.42624419284222
20
-0.9889935874296879
30
0
0
SPLINE
5
558
100
AcDbEntity
8
0
100
AcDbSpline
70
0
71
2
72
6
73
3
74
0
42
0.000000001
43
0.0000000001
44
0.0000000001
40
0
40
0
40
0
40
1
40
1
40
1
10
6.42624419284222
20
-0.9889935874296879
30
0
10
6.6857411885771842
20
-1.0733092724572439
30
0
10
6.8026562318007189
20
-1.2719571844482576
30
0
0
SPLINE
5
559
100
AcDbEntity
8
0
100
AcDbSpline
70
0
71
2
72
6
73
3
74
0
42
0.000000001
43
0.0000000001
44
0.0000000001
40
0
40
0
40
0
40
1
40
1
40
1
10
6.8026562318007189
20
-1.2719571844482576
30
0
10
6.9195712289771336
20
-1.4706052381577357
30
0
10
6.864934018848273
20
-1.7182283227477699
30
0
0
LINE
5
560
100
AcDbEntity
8
0
100
AcDbLine
10
4.5810605842332865
20
-0.42531865346923825
30
0
11
4.5152943370185987
21
-0.6277263498236807
31
0
0
SPLINE
5
561
100
AcDbEntity
8
0
100
AcDbSpline
70
0
71
2
72
6
73
3
74
0
42
0.000000001
43
0.0000000001
44
0.0000000001
40
0
40
0
40
0
40
1
40
1
40
1
10
4.5152943370185987
20
-0.62772634982368014
30
0
10
4.7520668637139494
20
-0.44645496103027094
30
0
10
5.0284309076612654
20
-0.53625108223933127
30
0
0
SPLINE
5
562
100
AcDbEntity
8
0
100
AcDbSpline
70
0
71
2
72
6
73
3
74
0
42
0.000000001
43
0.0000000001
44
0.0000000001
40
0
40
0
40
0
40
1
40
1
40
1
10
5.0284309076612654
20
-0.53625108223933127
30
0
10
5.1503946685532265
20
-0.57587951037976925
30
0
10
5.240962838966869
20
-0.65694739403155511
30
0
0
SPLINE
5
563
100
AcDbEntity
8
0
100
AcDbSpline
70
0
71
2
72
6
73
3
74
0
42
0.000000001
43
0.0000000001
44
0.0000000001
40
0
40
0
40
0
40
1
40
1
40
1
10
5.240962838966869
20
-0.65694739403155511
30
0
10
5.3315309172862699
20
-0.73801556112027045
30
0
10
5.3598056597689725
20
-0.82538092847837807
30
0
0
SPLINE
5
564
100
AcDbEntity
8
0
100
AcDbSpline
70
0
71
2
72
6
73
3
74
0
42
0.000000001
43
0.0000000001
44
0.0000000001
40
0
40
0
40
0
40
1
40
1
40
1
10
5.3598056597689725
20
-0.82538092847837807
30
0
10
5.3880801648618659
20
-0.91274606202377984
30
0
10
5.3755352048159732
20
-1.0219927429482829
30
0
0
SPLINE
5
565
100
AcDbEntity
8
0
100
AcDbSpline
70
0
71
2
72
6
73
3
74
0
42
0.000000001
43
0.0000000001
44
0.0000000001
40
0
40
0
40
0
40
1
40
1
40
1
10
5.3755352048159732
20
-1.0219927429482829
30
0
10
5.3674640429360085
20
-1.0953967658701225
30
0
10
5.3189825033239586
20
-1.2446076021910364
30
0
0
LINE
5
566
100
AcDbEntity
8
0
100
AcDbLine
10
5.3189825033239586
20
-1.2446076021910364
30
0
11
5.0415839207649737
21
-2.0983526529685759
31
0
0
LINE
5
567
100
AcDbEntity
8
0
100
AcDbLine
10
5.0415839207649737
20
-2.0983526529685759
30
0
11
4.8080367096345844
21
-2.0224685640720472
31
0
0
LINE
5
568
100
AcDbEntity
8
0
100
AcDbLine
10
4.8080367096345853
20
-2.0224685640720477
30
0
11
5.056346405264037
21
-1.2582499017122846
31
0
0
SPLINE
5
569
100
AcDbEntity
8
0
100
AcDbSpline
70
0
71
2
72
6
73
3
74
0
42
0.000000001
43
0.0000000001
44
0.0000000001
40
0
40
0
40
0
40
1
40
1
40
1
10
5.056346405264037
20
-1.2582499017122846
30
0
10
5.1157889553804541
20
-1.0753045438112729
30
0
10
5.1221738256624851
20
-1.0070903927792696
30
0
0
SPLINE
5
570
100
AcDbEntity
8
0
100
AcDbSpline
70
0
71
2
72
6
73
3
74
0
42
0.000000001
43
0.0000000001
44
0.0000000001
40
0
40
0
40
0
40
1
40
1
40
1
10
5.1221738256624851
20
-1.0070903927792696
30
0
10
5.1300488656410126
20
-0.90780208201232115
30
0
10
5.0757610035821221
20
-0.83206716579623974
30
0
0
SPLINE
5
571
100
AcDbEntity
8
0
100
AcDbSpline
70
0
71
2
72
6
73
3
74
0
42
0.000000001
43
0.0000000001
44
0.0000000001
40
0
40
0
40
0
40
1
40
1
40
1
10
5.0757610035821221
20
-0.83206716579623974
30
0
10
5.0214731415232317
20
-0.75633224958015832
30
0
10
4.9163769957174814
20
-0.72218444180970509
30
0
0
SPLINE
5
572
100
AcDbEntity
8
0
100
AcDbSpline
70
0
71
2
72
6
73
3
74
0
42
0.000000001
43
0.0000000001
44
0.0000000001
40
0
40
0
40
0
40
1
40
1
40
1
10
4.9163769957174814
20
-0.72218444180970509
30
0
10
4.8112805664748022
20
-0.68803654194501018
30
0
10
4.7016638476984101
20
-0.71195003768578846
30
0
0
SPLINE
5
573
100
AcDbEntity
8
0
100
AcDbSpline
70
0
71
2
72
6
73
3
74
0
42
0.000000001
43
0.0000000001
44
0.0000000001
40
0
40
0
40
0
40
1
40
1
40
1
10
4.7016638476984101
20
-0.71195003768578846
30
0
10
4.5920467994379681
20
-0.73586358305079091
30
0
10
4.5236280501922863
20
-0.81619717492424138
30
0
0
SPLINE
5
574
100
AcDbEntity
8
0
100
AcDbSpline
70
0
71
2
72
6
73
3
74
0
42
0.000000001
43
0.0000000001
44
0.0000000001
40
0
40
0
40
0
40
1
40
1
40
1
10
4.5236280501922863
20
-0.81619717492424138
30
0
10
4.4552093009466063
20
-0.89653076679769184
30
0
10
4.3978746038158256
20
-1.0729888202660236
30
0
0
LINE
5
575
100
AcDbEntity
8
0
100
AcDbLine
10
4.3978746038158256
20
-1.0729888202660236
30
0
11
4.157996504317401
21
-1.8112576980212116
31
0
0
LINE
5
576
100
AcDbEntity
8
0
100
AcDbLine
10
4.157996504317401
20
-1.8112576980212118
30
0
11
3.9244492931870116
21
-1.7353736091246832
31
0
0
LINE
5
577
100
AcDbEntity
8
0
100
AcDbLine
10
3.9244492931870116
20
-1.7353736091246836
30
0
11
4.3721655834461641
21
-0.35744455326891383
31
0
0
LINE
5
578
100
AcDbEntity
8
0
100
AcDbLine
10
4.3721655834461632
20
-0.35744455326891356
30
0
11
4.5810605842332848
21
-0.42531865346923792
31
0
0
LINE
5
579
100
AcDbEntity
8
0
100
AcDbLine
10
4.9315458984839626
20
-5.4689995961553173
30
0
11
5.1224871470250788
21
-5.3302726587397542
31
0
0
LINE
5
580
100
AcDbEntity
8
0
100
AcDbLine
10
5.1224871470250788
20
-5.3302726587397542
30
0
11
5.8995183384735919
21
-6.3997643422916637
31
0
0
SPLINE
5
581
100
AcDbEntity
8
0
100
AcDbSpline
70
0
71
2
72
6
73
3
74
0
42
0.000000001
43
0.0000000001
44
0.0000000001
40
0
40
0
40
0
40
1
40
1
40
1
10
5.8995183384735919
20
-6.3997643422916637
30
0
10
5.8293811930247985
20
-6.454094590496096
30
0
10
5.7447153534707809
20
-6.4768227103305778
30
0
0
SPLINE
5
582
100
AcDbEntity
8
0
100
AcDbSpline
70
0
71
2
72
6
73
3
74
0
42
0.000000001
43
0.0000000001
44
0.0000000001
40
0
40
0
40
0
40
1
40
1
40
1
10
5.7447153534707809
20
-6.4768227103305778
30
0
10
5.6057784279192635
20
-6.5153726889941481
30
0
10
5.4344686351625437
20
-6.5024019778264286
30
0
0
SPLINE
5
583
100
AcDbEntity
8
0
100
AcDbSpline
70
0
71
2
72
6
73
3
74
0
42
0.000000001
43
0.0000000001
44
0.0000000001
40
0
40
0
40
0
40
1
40
1
40
1
10
5.4344686351625437
20
-6.5024019778264286
30
0
10
5.263158710904543
20
-6.48943133917642
30
0
10
5.0006007147340146
20
-6.4204985758935331
30
0
0
SPLINE
5
584
100
AcDbEntity
8
0
100
AcDbSpline
70
0
71
2
72
6
73
3
74
0
42
0.000000001
43
0.0000000001
44
0.0000000001
40
0
40
0
40
0
40
1
40
1
40
1
10
5.0006007147340146
20
-6.4204985758935331
30
0
10
4.5926225038365835
20
-6.3138831553322641
30
0
10
4.3988893390054677
20
-6.3129882025559256
30
0
0
SPLINE
5
585
100
AcDbEntity
8
0
100
AcDbSpline
70
0
71
2
72
6
73
3
74
0
42
0.000000001
43
0.0000000001
44
0.0000000001
40
0
40
0
40
0
40
1
40
1
40
1
10
4.3988893390054677
20
-6.3129882025559256
30
0
10
4.2051561741743519
20
-6.3120932497795863
30
0
10
4.0925780649452861
20
-6.393886033856937
30
0
0
SPLINE
5
586
100
AcDbEntity
8
0
100
AcDbSpline
70
0
71
2
72
6
73
3
74
0
42
0.000000001
43
0.0000000001
44
0.0000000001
40
0
40
0
40
0
40
1
40
1
40
1
10
4.0925780649452861
20
-6.393886033856937
30
0
10
3.9744815249565346
20
-6.4796881925690499
30
0
10
3.9547035939763147
20
-6.6230606424568093
30
0
0
SPLINE
5
587
100
AcDbEntity
8
0
100
AcDbSpline
70
0
71
2
72
6
73
3
74
0
42
0.000000001
43
0.0000000001
44
0.0000000001
40
0
40
0
40
0
40
1
40
1
40
1
10
3.9547035939763147
20
-6.6230606424568093
30
0
10
3.9349257067895085
20
-6.7664331526210315
30
0
10
4.0335581533693974
20
-6.9021890688654297
30
0
0
SPLINE
5
588
100
AcDbEntity
8
0
100
AcDbSpline
70
0
71
2
72
6
73
3
74
0
42
0.000000001
43
0.0000000001
44
0.0000000001
40
0
40
0
40
0
40
1
40
1
40
1
10
4.0335581533693974
20
-6.9021890688654297
30
0
10
4.1378037988867593
20
-7.0456708906433727
30
0
10
4.286440352112856
20
-7.0692126079378568
30
0
0
SPLINE
5
589
100
AcDbEntity
8
0
100
AcDbSpline
70
0
71
2
72
6
73
3
74
0
42
0.000000001
43
0.0000000001
44
0.0000000001
40
0
40
0
40
0
40
1
40
1
40
1
10
4.286440352112856
20
-7.0692126079378568
30
0
10
4.4350769053389527
20
-7.09275432523234
30
0
10
4.5881902945510147
20
-6.9831972279606731
30
0
0
LINE
5
590
100
AcDbEntity
8
0
100
AcDbLine
10
4.5881902945510147
20
-6.9831972279606731
30
0
11
4.7155694923661828
21
-7.2026188673761293
31
0
0
SPLINE
5
591
100
AcDbEntity
8
0
100
AcDbSpline
70
0
71
2
72
6
73
3
74
0
42
0.000000001
43
0.0000000001
44
0.0000000001
40
0
40
0
40
0
40
1
40
1
40
1
10
4.7155694923661828
20
-7.2026188673761293
30
0
10
4.471866383894044
20
-7.3476395851034244
30
0
10
4.2526798222309861
20
-7.2977850227479477
30
0
0
SPLINE
5
592
100
AcDbEntity
8
0
100
AcDbSpline
70
0
71
2
72
6
73
3
74
0
42
0.000000001
43
0.0000000001
44
0.0000000001
40
0
40
0
40
0
40
1
40
1
40
1
10
4.2526798222309861
20
-7.2977850227479477
30
0
10
4.0334932605679281
20
-7.247930460392471
30
0
10
3.8658983177784663
20
-7.0172558111746541
30
0
0
SPLINE
5
593
100
AcDbEntity
8
0
100
AcDbSpline
70
0
71
2
72
6
73
3
74
0
42
0.000000001
43
0.0000000001
44
0.0000000001
40
0
40
0
40
0
40
1
40
1
40
1
10
3.8658983177784663
20
-7.0172558111746541
30
0
10
3.6966995725830016
20
-6.7843737173212073
30
0
10
3.7272007686170849
20
-6.554796717921513
30
0
0
SPLINE
5
594
100
AcDbEntity
8
0
100
AcDbSpline
70
0
71
2
72
6
73
3
74
0
42
0.000000001
43
0.0000000001
44
0.0000000001
40
0
40
0
40
0
40
1
40
1
40
1
10
3.7272007686170849
20
-6.554796717921513
30
0
10
3.7577020414106812
20
-6.3252195706585272
30
0
10
3.9486432899517969
20
-6.1864926332429651
30
0
0
SPLINE
5
595
100
AcDbEntity
8
0
100
AcDbSpline
70
0
71
2
72
6
73
3
74
0
42
0.000000001
43
0.0000000001
44
0.0000000001
40
0
40
0
40
0
40
1
40
1
40
1
10
3.9486432899517969
20
-6.1864926332429651
30
0
10
4.0457694072843822
20
-6.1159263784208031
30
0
10
4.1684526314536416
20
-6.0874992170570295
30
0
0
SPLINE
5
596
100
AcDbEntity
8
0
100
AcDbSpline
70
0
71
2
72
6
73
3
74
0
42
0.000000001
43
0.0000000001
44
0.0000000001
40
0
40
0
40
0
40
1
40
1
40
1
10
4.1684526314536416
20
-6.0874992170570295
30
0
10
4.2911356474831459
20
-6.0590720227271575
30
0
10
4.4618419076148115
20
-6.075853878280566
30
0
0
SPLINE
5
597
100
AcDbEntity
8
0
100
AcDbSpline
70
0
71
2
72
6
73
3
74
0
42
0.000000001
43
0.0000000001
44
0.0000000001
40
0
40
0
40
0
40
1
40
1
40
1
10
4.4618419076148115
20
-6.075853878280566
30
0
10
4.6325481677464788
20
-6.0926357338339745
30
0
10
4.9691225756218271
20
-6.1752449190084562
30
0
0
SPLINE
5
598
100
AcDbEntity
8
0
100
AcDbSpline
70
0
71
2
72
6
73
3
74
0
42
0.000000001
43
0.0000000001
44
0.0000000001
40
0
40
0
40
0
40
1
40
1
40
1
10
4.9691225756218271
20
-6.1752449190084562
30
0
10
5.2491328951109759
20
-6.244988298112693
30
0
10
5.3395495436098237
20
-6.2568671842801491
30
0
0
SPLINE
5
599
100
AcDbEntity
8
0
100
AcDbSpline
70
0
71
2
72
6
73
3
74
0
42
0.000000001
43
0.0000000001
44
0.0000000001
40
0
40
0
40
0
40
1
40
1
40
1
10
5.3395495436098237
20
-6.2568671842801491
30
0
10
5.4299663345583049
20
-6.26874601299901
30
0
10
5.5081046302799299
20
-6.2625646106890764
30
0
0
LINE
5
600
100
AcDbEntity
8
0
100
AcDbLine
10
5.5081046302799299
20
-6.2625646106890764
30
0
11
4.9315458984839617
21
-5.4689995961553173
31
0
0
LINE
5
601
100
AcDbEntity
8
0
100
AcDbLine
10
4.5438990183285863
20
-5.4251828875592221
30
0
11
4.3746825208594782
21
-5.2294125671132843
31
0
0
SPLINE
5
602
100
AcDbEntity
8
0
100
AcDbSpline
70
0
71
2
72
6
73
3
74
0
42
0.000000001
43
0.0000000001
44
0.0000000001
40
0
40
0
40
0
40
1
40
1
40
1
10
4.3746825208594782
20
-5.2294125671132825
30
0
10
4.5101543244692923
20
-5.0955739103702395
30
0
10
4.5255174099716671
20
-4.9554091255709478
30
0
0
SPLINE
5
603
100
AcDbEntity
8
0
100
AcDbSpline
70
0
71
2
72
6
73
3
74
0
42
0.000000001
43
0.0000000001
44
0.0000000001
40
0
40
0
40
0
40
1
40
1
40
1
10
4.5255174099716671
20
-4.9554091255709478
30
0
10
4.540880528440141
20
-4.8152441326319018
30
0
10
4.4542764247316127
20
-4.6960438100488728
30
0
0
SPLINE
5
604
100
AcDbEntity
8
0
100
AcDbSpline
70
0
71
2
72
6
73
3
74
0
42
0.000000001
43
0.0000000001
44
0.0000000001
40
0
40
0
40
0
40
1
40
1
40
1
10
4.4542764247316127
20
-4.6960438100488728
30
0
10
4.3500307573175441
20
-4.5525619581326975
30
0
10
4.1696972719918177
20
-4.5318135424637287
30
0
0
SPLINE
5
605
100
AcDbEntity
8
0
100
AcDbSpline
70
0
71
2
72
6
73
3
74
0
42
0.000000001
43
0.0000000001
44
0.0000000001
40
0
40
0
40
0
40
1
40
1
40
1
10
4.1696972719918177
20
-4.5318135424637287
30
0
10
3.9893640823926746
20
-4.511065280313785
30
0
10
3.8105635985181321
20
-4.6409714358765779
30
0
0
SPLINE
5
606
100
AcDbEntity
8
0
100
AcDbSpline
70
0
71
2
72
6
73
3
74
0
42
0.000000001
43
0.0000000001
44
0.0000000001
40
0
40
0
40
0
40
1
40
1
40
1
10
3.8105635985181321
20
-4.6409714358765779
30
0
10
3.6405927726331804
20
-4.7644624694021882
30
0
10
3.6117262100338565
20
-4.9313011126619344
30
0
0
SPLINE
5
607
100
AcDbEntity
8
0
100
AcDbSpline
70
0
71
2
72
6
73
3
74
0
42
0.000000001
43
0.0000000001
44
0.0000000001
40
0
40
0
40
0
40
1
40
1
40
1
10
3.6117262100338565
20
-4.9313011126619344
30
0
10
3.5828598226081882
20
-5.0981399970275332
30
0
10
3.6951244144654396
20
-5.2526589515689288
30
0
0
SPLINE
5
608
100
AcDbEntity
8
0
100
AcDbSpline
70
0
71
2
72
6
73
3
74
0
42
0.000000001
43
0.0000000001
44
0.0000000001
40
0
40
0
40
0
40
1
40
1
40
1
10
3.6951244144654396
20
-5.2526589515689288
30
0
10
3.7648888118780146
20
-5.3486814068601625
30
0
10
3.8646175064574617
20
-5.3942662464431645
30
0
0
SPLINE
5
609
100
AcDbEntity
8
0
100
AcDbSpline
70
0
71
2
72
6
73
3
74
0
42
0.000000001
43
0.0000000001
44
0.0000000001
40
0
40
0
40
0
40
1
40
1
40
1
10
3.8646175064574617
20
-5.3942662464431645
30
0
10
3.9643462010369079
20
-5.4398510860261666
30
0
10
4.0659554130981972
20
-5.4334802570862664
30
0
0
LINE
5
610
100
AcDbEntity
8
0
100
AcDbLine
10
4.0659554130981972
20
-5.4334802570862664
30
0
11
4.1771932163686092
21
-5.6376481800616638
31
0
0
LINE
5
611
100
AcDbEntity
8
0
100
AcDbLine
10
4.1771932163686092
20
-5.6376481800616638
30
0
11
3.2322337582879621
21
-6.0847449675816723
31
0
0
LINE
5
612
100
AcDbEntity
8
0
100
AcDbLine
10
3.2322337582879621
20
-6.0847449675816723
30
0
11
2.647656058255397
21
-5.2801427901462281
31
0
0
LINE
5
613
100
AcDbEntity
8
0
100
AcDbLine
10
2.6476560582553974
20
-5.2801427901462281
30
0
11
2.8374935242022357
21
-5.1422177977270813
31
0
0
LINE
5
614
100
AcDbEntity
8
0
100
AcDbLine
10
2.8374935242022357
20
-5.1422177977270795
30
0
11
3.3065990275655448
21
-5.7878861313498682
31
0
0
LINE
5
615
100
AcDbEntity
8
0
100
AcDbLine
10
3.3065990275655448
20
-5.7878861313498682
30
0
11
3.8048088355475511
21
-5.559134442150226
31
0
0
SPLINE
5
616
100
AcDbEntity
8
0
100
AcDbSpline
70
0
71
2
72
6
73
3
74
0
42
0.000000001
43
0.0000000001
44
0.0000000001
40
0
40
0
40
0
40
1
40
1
40
1
10
3.8048088355475511
20
-5.559134442150226
30
0
10
3.5974183591236359
20
-5.4872190052325891
30
0
10
3.4811443050447926
20
-5.3271814993785807
30
0
0
SPLINE
5
617
100
AcDbEntity
8
0
100
AcDbSpline
70
0
71
2
72
6
73
3
74
0
42
0.000000001
43
0.0000000001
44
0.0000000001
40
0
40
0
40
0
40
1
40
1
40
1
10
3.4811443050447926
20
-5.3271814993785807
30
0
10
3.3271813761524509
20
-5.1152697076283724
30
0
10
3.368124952512364
20
-4.862929204399836
30
0
0
SPLINE
5
618
100
AcDbEntity
8
0
100
AcDbSpline
70
0
71
2
72
6
73
3
74
0
42
0.000000001
43
0.0000000001
44
0.0000000001
40
0
40
0
40
0
40
1
40
1
40
1
10
3.368124952512364
20
-4.862929204399836
30
0
10
3.4090686494252043
20
-4.610588613584472
30
0
10
3.6397432986430212
20
-4.4429936707950093
30
0
0
SPLINE
5
619
100
AcDbEntity
8
0
100
AcDbSpline
70
0
71
2
72
6
73
3
74
0
42
0.000000001
43
0.0000000001
44
0.0000000001
40
0
40
0
40
0
40
1
40
1
40
1
10
3.6397432986430212
20
-4.4429936707950093
30
0
10
3.8593809657885436
20
-4.2834175648619022
30
0
10
4.1124374892485056
20
-4.2951734583895806
30
0
0
SPLINE
5
620
100
AcDbEntity
8
0
100
AcDbSpline
70
0
71
2
72
6
73
3
74
0
42
0.000000001
43
0.0000000001
44
0.0000000001
40
0
40
0
40
0
40
1
40
1
40
1
10
4.1124374892485056
20
-4.2951734583895806
30
0
10
4.4219638259558991
20
-4.3080597958881022
30
0
10
4.6176249167096746
20
-4.5773641837412686
30
0
0
SPLINE
5
621
100
AcDbEntity
8
0
100
AcDbSpline
70
0
71
2
72
6
73
3
74
0
42
0.000000001
43
0.0000000001
44
0.0000000001
40
0
40
0
40
0
40
1
40
1
40
1
10
4.6176249167096746
20
-4.5773641837412686
30
0
10
4.7780028800523695
20
-4.7981055129281414
30
0
10
4.7558268238512795
20
-5.0275359878039012
30
0
0
SPLINE
5
622
100
AcDbEntity
8
0
100
AcDbSpline
70
0
71
2
72
6
73
3
74
0
42
0.000000001
43
0.0000000001
44
0.0000000001
40
0
40
0
40
0
40
1
40
1
40
1
10
4.7558268238512795
20
-5.0275359878039012
30
0
10
4.7336506470972637
20
-5.2569665502664886
30
0
10
4.5438990183285863
20
-5.4251828875592221
30
0
0
LINE
5
623
100
AcDbEntity
8
0
100
AcDbLine
10
4.0022468882681501
20
-3.7883942200027683
30
0
11
2.3842128754076697
21
-4.9639647421050794
31
0
0
LINE
5
624
100
AcDbEntity
8
0
100
AcDbLine
10
2.3842128754076692
20
-4.9639647421050794
30
0
11
2.2286462316961537
21
-4.7498456262721689
31
0
0
LINE
5
625
100
AcDbEntity
8
0
100
AcDbLine
10
2.2286462316961537
20
-4.749845626272168
30
0
11
3.6557389960155176
21
-3.713002041585419
31
0
0
LINE
5
626
100
AcDbEntity
8
0
100
AcDbLine
10
3.655738996015518
20
-3.713002041585419
30
0
11
3.0767744730237183
21
-2.9161257395452891
31
0
0
LINE
5
627
100
AcDbEntity
8
0
100
AcDbLine
10
3.0767744730237183
20
-2.9161257395452891
30
0
11
3.2677157215648349
21
-2.7773988021297265
31
0
0
LINE
5
628
100
AcDbEntity
8
0
100
AcDbLine
10
3.2677157215648345
20
-2.7773988021297269
30
0
11
4.0022468882681492
21
-3.7883942200027683
31
0
0
ENDSEC
0
SECTION
2
OBJECTS
0
DICTIONARY
5
C
100
AcDbDictionary
3
ACAD_GROUP
350
D
3
ACAD_MLINESTYLE
350
17
0
DICTIONARY
5
D
100
AcDbDictionary
0
DICTIONARY
5
1A
330
C
100
AcDbDictionary
0
DICTIONARY
5
17
100
AcDbDictionary
0
ENDSEC
0
EOF
