0
SECTION
2
HEADER
9
$INSUNITS
70
4
9
$ACADVER
1
AC1014
9
$HANDSEED
5
FFFF
0
ENDSEC
0
SECTION
2
TABLES
0
TABLE
2
VPORT
5
8
100
AcDbSymbolTable
0
ENDTAB
0
TABLE
2
LTYPE
5
5
100
AcDbSymbolTable
0
LTYPE
5
14
100
AcDbSymbolTableRecord
100
AcDbLinetypeTableRecord
2
BYBLOCK
70
0
0
LTYPE
5
15
100
AcDbSymbolTableRecord
100
AcDbLinetypeTableRecord
2
BYLAYER
70
0
0
ENDTAB
0
TABLE
2
LAYER
5
2
100
AcDbSymbolTable
70
2
0
LAYER
5
50
100
AcDbSymbolTableRecord
100
AcDbLayerTableRecord
2
0
70
0
6
CONTINUOUS
0
ENDTAB
0
TABLE
2
STYLE
5
3
100
AcDbSymbolTable
70
1
0
STYLE
5
11
100
AcDbSymbolTableRecord
100
AcDbTextStyleTableRecord
2
STANDARD
70
0
0
ENDTAB
0
TABLE
2
VIEW
5
6
100
AcDbSymbolTable
70
0
0
ENDTAB
0
TABLE
2
UCS
5
7
100
AcDbSymbolTable
70
0
0
ENDTAB
0
TABLE
2
APPID
5
9
100
AcDbSymbolTable
70
2
0
APPID
5
12
100
AcDbSymbolTableRecord
100
AcDbRegAppTableRecord
2
ACAD
70
0
0
ENDTAB
0
TABLE
2
DIMSTYLE
5
A
100
AcDbSymbolTable
70
1
0
ENDTAB
0
TABLE
2
BLOCK_RECORD
5
1
100
AcDbSymbolTable
70
1
0
BLOCK_RECORD
5
1F
100
AcDbSymbolTableRecord
100
AcDbBlockTableRecord
2
*MODEL_SPACE
0
BLOCK_RECORD
5
1B
100
AcDbSymbolTableRecord
100
AcDbBlockTableRecord
2
*PAPER_SPACE
0
ENDTAB
0
ENDSEC
0
SECTION
2
BLOCKS
0
BLOCK
5
20
100
AcDbEntity
100
AcDbBlockBegin
2
*MODEL_SPACE
0
ENDBLK
5
21
100
AcDbEntity
100
AcDbBlockEnd
0
BLOCK
5
1C
100
AcDbEntity
100
AcDbBlockBegin
2
*PAPER_SPACE
0
ENDBLK
5
1D
100
AcDbEntity
100
AcDbBlockEnd
0
ENDSEC
0
SECTION
2
ENTITIES
0
CIRCLE
5
100
100
AcDbEntity
8
0
100
AcDbCircle
10
0
20
0
30
0
40
9.2988241800247593
210
0
220
-0
230
1
0
LWPOLYLINE
5
101
100
AcDbEntity
8
0
100
AcDbPolyline
90
4
70
1
43
0.0
10
-1.0111234959055069
20
8.6478965022658389
10
-1.0111234959055067
20
2.0950118831817366
10
0.98887653389680996
20
2.0950118831817366
10
0.98887653389680974
20
8.6478965022658389
0
CIRCLE
5
102
100
AcDbEntity
8
0
100
AcDbCircle
10
0
20
0
30
0
40
10
210
0
220
0
230
1
0
LWPOLYLINE
5
103
100
AcDbEntity
8
0
100
AcDbPolyline
90
4
70
1
43
0.0
10
-5.9011221189828831
20
6.4019717567890631
10
-2.0494331799110688
20
1.1005767377718214
10
-0.431399167050593
20
2.2761472598741301
10
-4.2830881061224071
20
7.5775422788913716
0
LWPOLYLINE
5
104
100
AcDbEntity
8
0
100
AcDbPolyline
90
4
70
1
43
0.0
10
-7.9121839770793834
20
-3.6339825743558771
10
-1.6800203595691627
20
-1.6090298648806869
10
-2.2980543575284798
20
0.29308319605330801
10
-8.5302179750386991
20
-1.7318695134218829
0
LWPOLYLINE
5
105
100
AcDbEntity
8
0
100
AcDbPolyline
90
4
70
1
43
0.0
10
-8.5370926643726008
20
1.7107113952357418
10
-2.3049290468623811
20
-0.31424131423944945
10
-1.6868950489030636
20
1.5878717466945451
10
-7.9190586664132843
20
3.6128244561697365
0
LWPOLYLINE
5
106
100
AcDbEntity
8
0
100
AcDbPolyline
90
4
70
1
43
0.0
10
1.0111234959055055
20
-8.6478965022658389
10
1.0111234959055069
20
-2.095011883181737
10
-0.98887653389681029
20
-2.095011883181737
10
-0.98887653389681063
20
-8.6478965022658372
0
LWPOLYLINE
5
107
100
AcDbEntity
8
0
100
AcDbPolyline
90
4
70
1
43
0.0
10
-4.2650899357841592
20
-7.5906187150683957
10
-0.41340099671234409
20
-2.2892236960511529
10
-2.0314350095728195
20
-1.1136531739488444
10
-5.8831239486446352
20
-6.4150481929660881
0
LWPOLYLINE
5
108
100
AcDbEntity
8
0
100
AcDbPolyline
90
4
70
1
43
0.0
10
4.2650899357841601
20
7.5906187150683957
10
0.41340099671234432
20
2.2892236960511529
10
2.0314350095728195
20
1.1136531739488442
10
5.8831239486446361
20
6.4150481929660872
0
LWPOLYLINE
5
109
100
AcDbEntity
8
0
100
AcDbPolyline
90
4
70
1
43
0.0
10
7.9121839770793834
20
3.6339825743558762
10
1.680020359569163
20
1.6090298648806867
10
2.2980543575284798
20
-0.29308319605330824
10
8.5302179750386991
20
1.7318695134218818
0
LWPOLYLINE
5
110
100
AcDbEntity
8
0
100
AcDbPolyline
90
4
70
1
43
0.0
10
8.5370926643726008
20
-1.7107113952357427
10
2.3049290468623811
20
0.31424131423944912
10
1.6868950489030634
20
-1.5878717466945456
10
7.9190586664132843
20
-3.6128244561697374
0
LWPOLYLINE
5
111
100
AcDbEntity
8
0
100
AcDbPolyline
90
4
70
1
43
0.0
10
5.9011221189828822
20
-6.4019717567890648
10
2.0494331799110688
20
-1.1005767377718216
10
0.43139916705059278
20
-2.2761472598741301
10
4.2830881061224062
20
-7.5775422788913716
0
SPLINE
5
112
100
AcDbEntity
8
0
100
AcDbSpline
70
0
71
2
72
6
73
3
74
0
42
0.000000001
43
0.0000000001
44
0.0000000001
40
0
40
0
40
0
40
1
40
1
40
1
10
-0.024766015617960768
20
8.6478965022658389
30
0
10
0.32994062939394109
20
8.6478965022658389
30
0
10
0.54617525377977483
20
8.5749087800329011
30
0
0
SPLINE
5
113
100
AcDbEntity
8
0
100
AcDbSpline
70
0
71
2
72
6
73
3
74
0
42
0.000000001
43
0.0000000001
44
0.0000000001
40
0
40
0
40
0
40
1
40
1
40
1
10
0.54617525377977483
20
8.5749087800329011
30
0
10
0.76240987816560857
20
8.5019210671131891
30
0
10
0.87973595896471135
20
8.357992017740516
30
0
0
SPLINE
5
114
100
AcDbEntity
8
0
100
AcDbSpline
70
0
71
2
72
6
73
3
74
0
42
0.000000001
43
0.0000000001
44
0.0000000001
40
0
40
0
40
0
40
1
40
1
40
1
10
0.87973595896471135
20
8.357992017740516
30
0
10
0.99706203976381413
20
8.21406293111494
30
0
10
0.99706203976381413
20
7.9957818930094513
30
0
0
SPLINE
5
115
100
AcDbEntity
8
0
100
AcDbSpline
70
0
71
2
72
6
73
3
74
0
42
0.000000001
43
0.0000000001
44
0.0000000001
40
0
40
0
40
0
40
1
40
1
40
1
10
0.99706203976381413
20
7.9957818930094513
30
0
10
0.99706203976381413
20
7.8347996567433151
30
0
10
0.93225986996400945
20
7.7133808230107102
30
0
0
SPLINE
5
116
100
AcDbEntity
8
0
100
AcDbSpline
70
0
71
2
72
6
73
3
74
0
42
0.000000001
43
0.0000000001
44
0.0000000001
40
0
40
0
40
0
40
1
40
1
40
1
10
0.93225986996400945
20
7.7133808230107102
30
0
10
0.86745770016420476
20
7.5919619892781052
30
0
10
0.74535669127214543
20
7.5128351842110428
30
0
0
SPLINE
5
117
100
AcDbEntity
8
0
100
AcDbSpline
70
0
71
2
72
6
73
3
74
0
42
0.000000001
43
0.0000000001
44
0.0000000001
40
0
40
0
40
0
40
1
40
1
40
1
10
0.74535669127214543
20
7.5128351842110428
30
0
10
0.62325583139169805
20
7.4337082301323685
30
0
10
0.44794888535249822
20
7.3886877988522324
30
0
0
SPLINE
5
118
100
AcDbEntity
8
0
100
AcDbSpline
70
0
71
2
72
6
73
3
74
0
42
0.000000001
43
0.0000000001
44
0.0000000001
40
0
40
0
40
0
40
1
40
1
40
1
10
0.44794888535249822
20
7.3886877988522324
30
0
10
0.27264193931329839
20
7.3436673675720963
30
0
10
-0.024766015617960768
20
7.3436673675720963
30
0
0
SPLINE
5
119
100
AcDbEntity
8
0
100
AcDbSpline
70
0
71
2
72
6
73
3
74
0
42
0.000000001
43
0.0000000001
44
0.0000000001
40
0
40
0
40
0
40
1
40
1
40
1
10
-0.024766015617960768
20
7.3436673675720963
30
0
10
-0.37674425801526912
20
7.3436673675720963
30
0
10
-0.59297888240110286
20
7.4159730170910629
30
0
0
SPLINE
5
120
100
AcDbEntity
8
0
100
AcDbSpline
70
0
71
2
72
6
73
3
74
0
42
0.000000001
43
0.0000000001
44
0.0000000001
40
0
40
0
40
0
40
1
40
1
40
1
10
-0.59297888240110286
20
7.4159730170910629
30
0
10
-0.8092135067869366
20
7.4882785175984177
30
0
10
-0.92722176274549373
20
7.6322075669710907
30
0
0
SPLINE
5
121
100
AcDbEntity
8
0
100
AcDbSpline
70
0
71
2
72
6
73
3
74
0
42
0.000000001
43
0.0000000001
44
0.0000000001
40
0
40
0
40
0
40
1
40
1
40
1
10
-0.92722176274549373
20
7.6322075669710907
30
0
10
-1.0452298696924389
20
7.7761366163437637
30
0
10
-1.0452298696924389
20
7.9957818930094513
30
0
0
SPLINE
5
122
100
AcDbEntity
8
0
100
AcDbSpline
70
0
71
2
72
6
73
3
74
0
42
0.000000001
43
0.0000000001
44
0.0000000001
40
0
40
0
40
0
40
1
40
1
40
1
10
-1.0452298696924389
20
7.9957818930094513
30
0
10
-1.0452298696924389
20
8.285004267567901
30
0
10
-0.83786292633306392
20
8.4500793312733453
30
0
0
SPLINE
5
123
100
AcDbEntity
8
0
100
AcDbSpline
70
0
71
2
72
6
73
3
74
0
42
0.000000001
43
0.0000000001
44
0.0000000001
40
0
40
0
40
0
40
1
40
1
40
1
10
-0.83786292633306392
20
8.4500793312733453
30
0
10
-0.58820395430814632
20
8.6478965022658389
30
0
10
-0.024766015617960768
20
8.6478965022658389
30
0
0
SPLINE
5
124
100
AcDbEntity
8
0
100
AcDbSpline
70
0
71
2
72
6
73
3
74
0
42
0.000000001
43
0.0000000001
44
0.0000000001
40
0
40
0
40
0
40
1
40
1
40
1
10
-0.024766015617960768
20
8.3955090438072961
30
0
10
-0.51726265510808833
20
8.3955090438072961
30
0
10
-0.68029134234678157
20
8.2802293767278474
30
0
0
SPLINE
5
125
100
AcDbEntity
8
0
100
AcDbSpline
70
0
71
2
72
6
73
3
74
0
42
0.000000001
43
0.0000000001
44
0.0000000001
40
0
40
0
40
0
40
1
40
1
40
1
10
-0.68029134234678157
20
8.2802293767278474
30
0
10
-0.84332002958547481
20
8.1649497096483987
30
0
10
-0.84332002958547481
20
7.9957818930094513
30
0
0
SPLINE
5
126
100
AcDbEntity
8
0
100
AcDbSpline
70
0
71
2
72
6
73
3
74
0
42
0.000000001
43
0.0000000001
44
0.0000000001
40
0
40
0
40
0
40
1
40
1
40
1
10
-0.84332002958547481
20
7.9957818930094513
30
0
10
-0.84332002958547481
20
7.8266140763705048
30
0
10
-0.67960916718732722
20
7.7113344465439591
30
0
0
SPLINE
5
127
100
AcDbEntity
8
0
100
AcDbSpline
70
0
71
2
72
6
73
3
74
0
42
0.000000001
43
0.0000000001
44
0.0000000001
40
0
40
0
40
0
40
1
40
1
40
1
10
-0.67960916718732722
20
7.7113344465439591
30
0
10
-0.51589845380079158
20
7.5960547422116074
30
0
10
-0.024766015617960768
20
7.5960547422116074
30
0
0
SPLINE
5
128
100
AcDbEntity
8
0
100
AcDbSpline
70
0
71
2
72
6
73
3
74
0
42
0.000000001
43
0.0000000001
44
0.0000000001
40
0
40
0
40
0
40
1
40
1
40
1
10
-0.024766015617960768
20
7.5960547422116074
30
0
10
0.46909482517946355
20
7.5960547422116074
30
0
10
0.63144133725870244
20
7.7113344465439591
30
0
0
SPLINE
5
129
100
AcDbEntity
8
0
100
AcDbSpline
70
0
71
2
72
6
73
3
74
0
42
0.000000001
43
0.0000000001
44
0.0000000001
40
0
40
0
40
0
40
1
40
1
40
1
10
0.63144133725870244
20
7.7113344465439591
30
0
10
0.79378784933794133
20
7.8266140763705048
30
0
10
0.79378784933794133
20
7.9985104446356567
30
0
0
SPLINE
5
130
100
AcDbEntity
8
0
100
AcDbSpline
70
0
71
2
72
6
73
3
74
0
42
0.000000001
43
0.0000000001
44
0.0000000001
40
0
40
0
40
0
40
1
40
1
40
1
10
0.79378784933794133
20
7.9985104446356567
30
0
10
0.79378784933794133
20
8.1676782240217012
30
0
10
0.65054090061891667
20
8.2686331813280862
30
0
0
SPLINE
5
131
100
AcDbEntity
8
0
100
AcDbSpline
70
0
71
2
72
6
73
3
74
0
42
0.000000001
43
0.0000000001
44
0.0000000001
40
0
40
0
40
0
40
1
40
1
40
1
10
0.65054090061891667
20
8.2686331813280862
30
0
10
0.46773047486055486
20
8.3955090438072961
30
0
10
-0.024766015617960768
20
8.3955090438072961
30
0
0
SPLINE
5
132
100
AcDbEntity
8
0
100
AcDbSpline
70
0
71
2
72
6
73
3
74
0
42
0.000000001
43
0.0000000001
44
0.0000000001
40
0
40
0
40
0
40
1
40
1
40
1
10
-0.024766015617960768
20
7.0940083955471787
30
0
10
0.3299406293939412
20
7.0940083955471787
30
0
10
0.54617525377977494
20
7.0210207198803696
30
0
0
SPLINE
5
133
100
AcDbEntity
8
0
100
AcDbSpline
70
0
71
2
72
6
73
3
74
0
42
0.000000001
43
0.0000000001
44
0.0000000001
40
0
40
0
40
0
40
1
40
1
40
1
10
0.54617525377977494
20
7.0210207198803696
30
0
10
0.76240987816560868
20
6.9480328952019486
30
0
10
0.87973595896471146
20
6.8041039203350815
30
0
0
SPLINE
5
134
100
AcDbEntity
8
0
100
AcDbSpline
70
0
71
2
72
6
73
3
74
0
42
0.000000001
43
0.0000000001
44
0.0000000001
40
0
40
0
40
0
40
1
40
1
40
1
10
0.87973595896471146
20
6.8041039203350815
30
0
10
0.99706203976381413
20
6.6601747964566025
30
0
10
0.99706203976381413
20
6.4418937956040176
30
0
0
SPLINE
5
135
100
AcDbEntity
8
0
100
AcDbSpline
70
0
71
2
72
6
73
3
74
0
42
0.000000001
43
0.0000000001
44
0.0000000001
40
0
40
0
40
0
40
1
40
1
40
1
10
0.99706203976381413
20
6.4418937956040176
30
0
10
0.99706203976381425
20
6.2809114848320755
30
0
10
0.93225986996400956
20
6.1594926510994705
30
0
0
SPLINE
5
136
100
AcDbEntity
8
0
100
AcDbSpline
70
0
71
2
72
6
73
3
74
0
42
0.000000001
43
0.0000000001
44
0.0000000001
40
0
40
0
40
0
40
1
40
1
40
1
10
0.93225986996400956
20
6.1594926510994705
30
0
10
0.86745770016420487
20
6.0380738173668655
30
0
10
0.74535669127214554
20
5.9589471613114151
30
0
0
SPLINE
5
137
100
AcDbEntity
8
0
100
AcDbSpline
70
0
71
2
72
6
73
3
74
0
42
0.000000001
43
0.0000000001
44
0.0000000001
40
0
40
0
40
0
40
1
40
1
40
1
10
0.74535669127214554
20
5.9589471613114151
30
0
10
0.62325583139169816
20
5.8798202072327408
30
0
10
0.44794888535249833
20
5.8347996269409927
30
0
0
SPLINE
5
138
100
AcDbEntity
8
0
100
AcDbSpline
70
0
71
2
72
6
73
3
74
0
42
0.000000001
43
0.0000000001
44
0.0000000001
40
0
40
0
40
0
40
1
40
1
40
1
10
0.44794888535249833
20
5.8347996269409927
30
0
10
0.2726419393132985
20
5.7897790466492447
30
0
10
-0.024766015617960768
20
5.7897790466492447
30
0
0
SPLINE
5
139
100
AcDbEntity
8
0
100
AcDbSpline
70
0
71
2
72
6
73
3
74
0
42
0.000000001
43
0.0000000001
44
0.0000000001
40
0
40
0
40
0
40
1
40
1
40
1
10
-0.024766015617960768
20
5.7897790466492447
30
0
10
-0.37674425801526912
20
5.7897790466492447
30
0
10
-0.59297888240110286
20
5.8620848451798233
30
0
0
SPLINE
5
140
100
AcDbEntity
8
0
100
AcDbSpline
70
0
71
2
72
6
73
3
74
0
42
0.000000001
43
0.0000000001
44
0.0000000001
40
0
40
0
40
0
40
1
40
1
40
1
10
-0.59297888240110286
20
5.8620848451798233
30
0
10
-0.8092135067869366
20
5.934390345687178
30
0
10
-0.92722176274549373
20
6.0783194695656571
30
0
0
SPLINE
5
141
100
AcDbEntity
8
0
100
AcDbSpline
70
0
71
2
72
6
73
3
74
0
42
0.000000001
43
0.0000000001
44
0.0000000001
40
0
40
0
40
0
40
1
40
1
40
1
10
-0.92722176274549373
20
6.0783194695656571
30
0
10
-1.0452298696924389
20
6.2222485934441361
30
0
10
-1.0452298696924389
20
6.4418937956040176
30
0
0
SPLINE
5
142
100
AcDbEntity
8
0
100
AcDbSpline
70
0
71
2
72
6
73
3
74
0
42
0.000000001
43
0.0000000001
44
0.0000000001
40
0
40
0
40
0
40
1
40
1
40
1
10
-1.0452298696924389
20
6.4418937956040176
30
0
10
-1.0452298696924389
20
6.7311160956566605
30
0
10
-0.83786292633306392
20
6.8961911593621048
30
0
0
SPLINE
5
143
100
AcDbEntity
8
0
100
AcDbSpline
70
0
71
2
72
6
73
3
74
0
42
0.000000001
43
0.0000000001
44
0.0000000001
40
0
40
0
40
0
40
1
40
1
40
1
10
-0.83786292633306392
20
6.8961911593621048
30
0
10
-0.58820395430814632
20
7.0940083955471787
30
0
10
-0.024766015617960768
20
7.0940083955471787
30
0
0
SPLINE
5
144
100
AcDbEntity
8
0
100
AcDbSpline
70
0
71
2
72
6
73
3
74
0
42
0.000000001
43
0.0000000001
44
0.0000000001
40
0
40
0
40
0
40
1
40
1
40
1
10
-0.024766015617960768
20
6.8416210209076675
30
0
10
-0.51726265510808833
20
6.8416210209076675
30
0
10
-0.68029134234678157
20
6.7263413165753159
30
0
0
SPLINE
5
145
100
AcDbEntity
8
0
100
AcDbSpline
70
0
71
2
72
6
73
3
74
0
42
0.000000001
43
0.0000000001
44
0.0000000001
40
0
40
0
40
0
40
1
40
1
40
1
10
-0.68029134234678157
20
6.7263413165753159
30
0
10
-0.84332002958547481
20
6.6110616122429642
30
0
10
-0.84332002958547481
20
6.4418937956040176
30
0
0
SPLINE
5
146
100
AcDbEntity
8
0
100
AcDbSpline
70
0
71
2
72
6
73
3
74
0
42
0.000000001
43
0.0000000001
44
0.0000000001
40
0
40
0
40
0
40
1
40
1
40
1
10
-0.84332002958547481
20
6.4418937956040176
30
0
10
-0.84332002958547481
20
6.2727259789650711
30
0
10
-0.67960916718732722
20
6.1574464236443314
30
0
0
SPLINE
5
147
100
AcDbEntity
8
0
100
AcDbSpline
70
0
71
2
72
6
73
3
74
0
42
0.000000001
43
0.0000000001
44
0.0000000001
40
0
40
0
40
0
40
1
40
1
40
1
10
-0.67960916718732722
20
6.1574464236443314
30
0
10
-0.51589845380079158
20
6.0421665703003677
30
0
10
-0.024766015617960768
20
6.0421665703003677
30
0
0
SPLINE
5
148
100
AcDbEntity
8
0
100
AcDbSpline
70
0
71
2
72
6
73
3
74
0
42
0.000000001
43
0.0000000001
44
0.0000000001
40
0
40
0
40
0
40
1
40
1
40
1
10
-0.024766015617960768
20
6.0421665703003677
30
0
10
0.46909482517946366
20
6.0421665703003677
30
0
10
0.63144133725870255
20
6.1574464236443314
30
0
0
SPLINE
5
149
100
AcDbEntity
8
0
100
AcDbSpline
70
0
71
2
72
6
73
3
74
0
42
0.000000001
43
0.0000000001
44
0.0000000001
40
0
40
0
40
0
40
1
40
1
40
1
10
0.63144133725870255
20
6.1574464236443314
30
0
10
0.79378784933794144
20
6.2727259789650711
30
0
10
0.79378784933794144
20
6.4446223472302231
30
0
0
SPLINE
5
150
100
AcDbEntity
8
0
100
AcDbSpline
70
0
71
2
72
6
73
3
74
0
42
0.000000001
43
0.0000000001
44
0.0000000001
40
0
40
0
40
0
40
1
40
1
40
1
10
0.79378784933794144
20
6.4446223472302231
30
0
10
0.79378784933794144
20
6.6137901638691696
30
0
10
0.65054090061891678
20
6.7147450839226517
30
0
0
SPLINE
5
151
100
AcDbEntity
8
0
100
AcDbSpline
70
0
71
2
72
6
73
3
74
0
42
0.000000001
43
0.0000000001
44
0.0000000001
40
0
40
0
40
0
40
1
40
1
40
1
10
0.65054090061891678
20
6.7147450839226517
30
0
10
0.46773047486055497
20
6.8416210209076675
30
0
10
-0.024766015617960768
20
6.8416210209076675
30
0
0
SPLINE
5
152
100
AcDbEntity
8
0
100
AcDbSpline
70
0
71
2
72
6
73
3
74
0
42
0.000000001
43
0.0000000001
44
0.0000000001
40
0
40
0
40
0
40
1
40
1
40
1
10
-5.1031421549014055
20
6.9817381371904466
30
0
10
-4.8161784510690557
20
7.1902294720185829
30
0
10
-4.5983398584416921
20
7.2582806876004131
30
0
0
SPLINE
5
153
100
AcDbEntity
8
0
100
AcDbSpline
70
0
71
2
72
6
73
3
74
0
42
0.000000001
43
0.0000000001
44
0.0000000001
40
0
40
0
40
0
40
1
40
1
40
1
10
-4.5983398584416921
20
7.2582806876004131
30
0
10
-4.3805012712885061
20
7.3263319107168021
30
0
10
-4.2009831054408915
20
7.2788534037930663
30
0
0
SPLINE
5
154
100
AcDbEntity
8
0
100
AcDbSpline
70
0
71
2
72
6
73
3
74
0
42
0.000000001
43
0.0000000001
44
0.0000000001
40
0
40
0
40
0
40
1
40
1
40
1
10
-4.2009831054408915
20
7.2788534037930663
30
0
10
-4.0214649176965693
20
7.2313748667311
30
0
10
-3.893162542643072
20
7.0547817973539555
30
0
0
SPLINE
5
155
100
AcDbEntity
8
0
100
AcDbSpline
70
0
71
2
72
6
73
3
74
0
42
0.000000001
43
0.0000000001
44
0.0000000001
40
0
40
0
40
0
40
1
40
1
40
1
10
-3.893162542643072
20
7.0547817973539555
30
0
10
-3.7985395582847747
20
6.9245444324221674
30
0
10
-3.7795974151066107
20
6.7882247727704259
30
0
0
SPLINE
5
156
100
AcDbEntity
8
0
100
AcDbSpline
70
0
71
2
72
6
73
3
74
0
42
0.000000001
43
0.0000000001
44
0.0000000001
40
0
40
0
40
0
40
1
40
1
40
1
10
-3.7795974151066107
20
6.7882247727704259
30
0
10
-3.7606552719284467
20
6.6519051131186844
30
0
10
-3.8129274940730085
20
6.5161210107920535
30
0
0
SPLINE
5
157
100
AcDbEntity
8
0
100
AcDbSpline
70
0
71
2
72
6
73
3
74
0
42
0.000000001
43
0.0000000001
44
0.0000000001
40
0
40
0
40
0
40
1
40
1
40
1
10
-3.8129274940730085
20
6.5161210107920535
30
0
10
-3.8651995080778168
20
6.3803368754993217
30
0
10
-3.9805634610971903
20
6.2408717439933277
30
0
0
SPLINE
5
158
100
AcDbEntity
8
0
100
AcDbSpline
70
0
71
2
72
6
73
3
74
0
42
0.000000001
43
0.0000000001
44
0.0000000001
40
0
40
0
40
0
40
1
40
1
40
1
10
-3.9805634610971903
20
6.2408717439933277
30
0
10
-4.0959274141165638
20
6.1014066124873345
30
0
10
-4.3365355039182516
20
5.9265946026642773
30
0
0
SPLINE
5
159
100
AcDbEntity
8
0
100
AcDbSpline
70
0
71
2
72
6
73
3
74
0
42
0.000000001
43
0.0000000001
44
0.0000000001
40
0
40
0
40
0
40
1
40
1
40
1
10
-4.3365355039182516
20
5.9265946026642773
30
0
10
-4.6212918836678982
20
5.719706982655314
30
0
10
-4.8387295640129979
20
5.6511039586564804
30
0
0
SPLINE
5
160
100
AcDbEntity
8
0
100
AcDbSpline
70
0
71
2
72
6
73
3
74
0
42
0.000000001
43
0.0000000001
44
0.0000000001
40
0
40
0
40
0
40
1
40
1
40
1
10
-4.8387295640129979
20
5.6511039586564804
30
0
10
-5.05616715677127
20
5.5825008141047219
30
0
10
-5.2362372139160236
20
5.6295783485302495
30
0
0
SPLINE
5
161
100
AcDbEntity
8
0
100
AcDbSpline
70
0
71
2
72
6
73
3
74
0
42
0.000000001
43
0.0000000001
44
0.0000000001
40
0
40
0
40
0
40
1
40
1
40
1
10
-5.2362372139160236
20
5.6295783485302495
30
0
10
-5.4163071505078513
20
5.6766559705426056
30
0
10
-5.5454114048676431
20
5.8543527320993345
30
0
0
SPLINE
5
162
100
AcDbEntity
8
0
100
AcDbSpline
70
0
71
2
72
6
73
3
74
0
42
0.000000001
43
0.0000000001
44
0.0000000001
40
0
40
0
40
0
40
1
40
1
40
1
10
-5.5454114048676431
20
5.8543527320993345
30
0
10
-5.7154120512661084
20
6.0883385482705954
30
0
10
-5.6446773579840883
20
6.3437743112754363
30
0
0
SPLINE
5
163
100
AcDbEntity
8
0
100
AcDbSpline
70
0
71
2
72
6
73
3
74
0
42
0.000000001
43
0.0000000001
44
0.0000000001
40
0
40
0
40
0
40
1
40
1
40
1
10
-5.6446773579840883
20
6.3437743112754363
30
0
10
-5.5589730225773559
20
6.6505576262462851
30
0
10
-5.1031421549014055
20
6.9817381371904466
30
0
0
SPLINE
5
164
100
AcDbEntity
8
0
100
AcDbSpline
70
0
71
2
72
6
73
3
74
0
42
0.000000001
43
0.0000000001
44
0.0000000001
40
0
40
0
40
0
40
1
40
1
40
1
10
-4.9547925289558954
20
6.7775523941303835
30
0
10
-5.3532306799759599
20
6.4880701326344852
30
0
10
-5.4173639703242156
20
6.2989810648018185
30
0
0
SPLINE
5
165
100
AcDbEntity
8
0
100
AcDbSpline
70
0
71
2
72
6
73
3
74
0
42
0.000000001
43
0.0000000001
44
0.0000000001
40
0
40
0
40
0
40
1
40
1
40
1
10
-5.4173639703242156
20
6.2989810648018185
30
0
10
-5.4814972606724695
20
6.1098919969691519
30
0
10
-5.3820629128895803
20
5.9730323584069387
30
0
0
SPLINE
5
166
100
AcDbEntity
8
0
100
AcDbSpline
70
0
71
2
72
6
73
3
74
0
42
0.000000001
43
0.0000000001
44
0.0000000001
40
0
40
0
40
0
40
1
40
1
40
1
10
-5.3820629128895803
20
5.9730323584069387
30
0
10
-5.2826285651066911
20
5.8361727198447264
30
0
10
-5.0824240289610314
20
5.8391363707675117
30
0
0
SPLINE
5
167
100
AcDbEntity
8
0
100
AcDbSpline
70
0
71
2
72
6
73
3
74
0
42
0.000000001
43
0.0000000001
44
0.0000000001
40
0
40
0
40
0
40
1
40
1
40
1
10
-5.0824240289610314
20
5.8391363707675117
30
0
10
-4.8822195695748851
20
5.8420998738270047
30
0
10
-4.4848850805961709
20
6.1307802779133169
30
0
0
SPLINE
5
168
100
AcDbEntity
8
0
100
AcDbSpline
70
0
71
2
72
6
73
3
74
0
42
0.000000001
43
0.0000000001
44
0.0000000001
40
0
40
0
40
0
40
1
40
1
40
1
10
-4.4848850805961709
20
6.1307802779133169
30
0
10
-4.0853432675347543
20
6.4210643968188048
30
0
10
-4.0217618903803452
20
6.6097525222914939
30
0
0
SPLINE
5
169
100
AcDbEntity
8
0
100
AcDbSpline
70
0
71
2
72
6
73
3
74
0
42
0.000000001
43
0.0000000001
44
0.0000000001
40
0
40
0
40
0
40
1
40
1
40
1
10
-4.0217618903803452
20
6.6097525222914939
30
0
10
-3.9581804694325227
20
6.7984405874877218
30
0
10
-4.0592186196214151
20
6.9375076706855641
30
0
0
SPLINE
5
170
100
AcDbEntity
8
0
100
AcDbSpline
70
0
71
2
72
6
73
3
74
0
42
0.000000001
43
0.0000000001
44
0.0000000001
40
0
40
0
40
0
40
1
40
1
40
1
10
-4.0592186196214151
20
6.9375076706855641
30
0
10
-4.1586529455075985
20
7.0743672791095458
30
0
10
-4.3338819964641555
20
7.0718431113438696
30
0
0
SPLINE
5
171
100
AcDbEntity
8
0
100
AcDbSpline
70
0
71
2
72
6
73
3
74
0
42
0.000000001
43
0.0000000001
44
0.0000000001
40
0
40
0
40
0
40
1
40
1
40
1
10
-4.3338819964641555
20
7.0718431113438696
30
0
10
-4.5563544984887567
20
7.0670345680394551
30
0
10
-4.9547925289558954
20
6.7775523941303835
30
0
0
LINE
5
172
100
AcDbEntity
8
0
100
AcDbLine
10
-4.5639462637464243
20
5.4527755537075793
30
0
11
-4.3947297662773153
21
5.2570052332616415
31
0
0
SPLINE
5
173
100
AcDbEntity
8
0
100
AcDbSpline
70
0
71
2
72
6
73
3
74
0
42
0.000000001
43
0.0000000001
44
0.0000000001
40
0
40
0
40
0
40
1
40
1
40
1
10
-4.3947297662773153
20
5.2570052332616406
30
0
10
-4.5302015698871294
20
5.1231665765185959
30
0
10
-4.545564655389505
20
4.983001791719305
30
0
0
SPLINE
5
174
100
AcDbEntity
8
0
100
AcDbSpline
70
0
71
2
72
6
73
3
74
0
42
0.000000001
43
0.0000000001
44
0.0000000001
40
0
40
0
40
0
40
1
40
1
40
1
10
-4.545564655389505
20
4.983001791719305
30
0
10
-4.5609277738579781
20
4.842836798780259
30
0
10
-4.4743236701494506
20
4.72363647619723
30
0
0
SPLINE
5
175
100
AcDbEntity
8
0
100
AcDbSpline
70
0
71
2
72
6
73
3
74
0
42
0.000000001
43
0.0000000001
44
0.0000000001
40
0
40
0
40
0
40
1
40
1
40
1
10
-4.4743236701494506
20
4.72363647619723
30
0
10
-4.3700780027353812
20
4.5801546242810547
30
0
10
-4.1897445174096557
20
4.5594062086120859
30
0
0
SPLINE
5
176
100
AcDbEntity
8
0
100
AcDbSpline
70
0
71
2
72
6
73
3
74
0
42
0.000000001
43
0.0000000001
44
0.0000000001
40
0
40
0
40
0
40
1
40
1
40
1
10
-4.1897445174096557
20
4.5594062086120859
30
0
10
-4.009411327810513
20
4.5386579464621422
30
0
10
-3.8306108439359687
20
4.6685641020249342
30
0
0
SPLINE
5
177
100
AcDbEntity
8
0
100
AcDbSpline
70
0
71
2
72
6
73
3
74
0
42
0.000000001
43
0.0000000001
44
0.0000000001
40
0
40
0
40
0
40
1
40
1
40
1
10
-3.8306108439359687
20
4.6685641020249342
30
0
10
-3.6606400180510179
20
4.7920551355505463
30
0
10
-3.6317734554516941
20
4.9588937788102916
30
0
0
SPLINE
5
178
100
AcDbEntity
8
0
100
AcDbSpline
70
0
71
2
72
6
73
3
74
0
42
0.000000001
43
0.0000000001
44
0.0000000001
40
0
40
0
40
0
40
1
40
1
40
1
10
-3.6317734554516941
20
4.9588937788102916
30
0
10
-3.6029070680260258
20
5.1257326631758904
30
0
10
-3.7151716598832776
20
5.2802516177172869
30
0
0
SPLINE
5
179
100
AcDbEntity
8
0
100
AcDbSpline
70
0
71
2
72
6
73
3
74
0
42
0.000000001
43
0.0000000001
44
0.0000000001
40
0
40
0
40
0
40
1
40
1
40
1
10
-3.7151716598832776
20
5.2802516177172869
30
0
10
-3.7849360572958526
20
5.3762740730085206
30
0
10
-3.8846647518752992
20
5.4218589125915218
30
0
0
SPLINE
5
180
100
AcDbEntity
8
0
100
AcDbSpline
70
0
71
2
72
6
73
3
74
0
42
0.000000001
43
0.0000000001
44
0.0000000001
40
0
40
0
40
0
40
1
40
1
40
1
10
-3.8846647518752992
20
5.4218589125915218
30
0
10
-3.9843934464547459
20
5.4674437521745229
30
0
10
-4.0860026585160352
20
5.4610729232346236
30
0
0
LINE
5
181
100
AcDbEntity
8
0
100
AcDbLine
10
-4.0860026585160352
20
5.4610729232346236
30
0
11
-4.1972404617864463
21
5.665240846210021
31
0
0
LINE
5
182
100
AcDbEntity
8
0
100
AcDbLine
10
-4.1972404617864463
20
5.665240846210021
30
0
11
-3.2522810037058001
21
6.1123376337300295
31
0
0
LINE
5
183
100
AcDbEntity
8
0
100
AcDbLine
10
-3.2522810037058001
20
6.1123376337300295
30
0
11
-2.6677033036732349
21
5.3077354562945853
31
0
0
LINE
5
184
100
AcDbEntity
8
0
100
AcDbLine
10
-2.6677033036732349
20
5.3077354562945853
30
0
11
-2.8575407696200732
21
5.1698104638754385
31
0
0
LINE
5
185
100
AcDbEntity
8
0
100
AcDbLine
10
-2.8575407696200732
20
5.1698104638754376
30
0
11
-3.3266462729833823
21
5.8154787974982263
31
0
0
LINE
5
186
100
AcDbEntity
8
0
100
AcDbLine
10
-3.3266462729833823
20
5.8154787974982263
30
0
11
-3.8248560809653886
21
5.5867271082985841
31
0
0
SPLINE
5
187
100
AcDbEntity
8
0
100
AcDbSpline
70
0
71
2
72
6
73
3
74
0
42
0.000000001
43
0.0000000001
44
0.0000000001
40
0
40
0
40
0
40
1
40
1
40
1
10
-3.8248560809653891
20
5.5867271082985841
30
0
10
-3.617465604541473
20
5.5148116713809454
30
0
10
-3.5011915504626301
20
5.3547741655269379
30
0
0
SPLINE
5
188
100
AcDbEntity
8
0
100
AcDbSpline
70
0
71
2
72
6
73
3
74
0
42
0.000000001
43
0.0000000001
44
0.0000000001
40
0
40
0
40
0
40
1
40
1
40
1
10
-3.5011915504626301
20
5.3547741655269379
30
0
10
-3.3472286215702884
20
5.1428623737767296
30
0
10
-3.3881721979302015
20
4.8905218705481932
30
0
0
SPLINE
5
189
100
AcDbEntity
8
0
100
AcDbSpline
70
0
71
2
72
6
73
3
74
0
42
0.000000001
43
0.0000000001
44
0.0000000001
40
0
40
0
40
0
40
1
40
1
40
1
10
-3.3881721979302015
20
4.8905218705481932
30
0
10
-3.4291158948430409
20
4.6381812797328292
30
0
10
-3.6597905440608587
20
4.4705863369433665
30
0
0
SPLINE
5
190
100
AcDbEntity
8
0
100
AcDbSpline
70
0
71
2
72
6
73
3
74
0
42
0.000000001
43
0.0000000001
44
0.0000000001
40
0
40
0
40
0
40
1
40
1
40
1
10
-3.6597905440608587
20
4.4705863369433665
30
0
10
-3.8794282112063803
20
4.3110102310102594
30
0
10
-4.1324847346663427
20
4.3227661245379378
30
0
0
SPLINE
5
191
100
AcDbEntity
8
0
100
AcDbSpline
70
0
71
2
72
6
73
3
74
0
42
0.000000001
43
0.0000000001
44
0.0000000001
40
0
40
0
40
0
40
1
40
1
40
1
10
-4.1324847346663427
20
4.3227661245379378
30
0
10
-4.4420110713737371
20
4.3356524620364585
30
0
10
-4.6376721621275125
20
4.6049568498896249
30
0
0
SPLINE
5
192
100
AcDbEntity
8
0
100
AcDbSpline
70
0
71
2
72
6
73
3
74
0
42
0.000000001
43
0.0000000001
44
0.0000000001
40
0
40
0
40
0
40
1
40
1
40
1
10
-4.6376721621275125
20
4.6049568498896249
30
0
10
-4.7980501254702066
20
4.8256981790764986
30
0
10
-4.7758740692691175
20
5.0551286539522593
30
0
0
SPLINE
5
193
100
AcDbEntity
8
0
100
AcDbSpline
70
0
71
2
72
6
73
3
74
0
42
0.000000001
43
0.0000000001
44
0.0000000001
40
0
40
0
40
0
40
1
40
1
40
1
10
-4.7758740692691175
20
5.0551286539522593
30
0
10
-4.7536978925151017
20
5.2845592164148458
30
0
10
-4.5639462637464243
20
5.4527755537075793
30
0
0
LINE
5
194
100
AcDbEntity
8
0
100
AcDbLine
10
-7.2115420602512836
20
-3.4063302155720567
30
0
11
-7.4450893422409052
21
-3.4822143274921453
31
0
0
LINE
5
195
100
AcDbEntity
8
0
100
AcDbLine
10
-7.4450893422409061
20
-3.4822143274921444
30
0
11
-7.9286398239626852
21
-1.993998970503859
31
0
0
SPLINE
5
196
100
AcDbEntity
8
0
100
AcDbSpline
70
0
71
2
72
6
73
3
74
0
42
0.000000001
43
0.0000000001
44
0.0000000001
40
0
40
0
40
0
40
1
40
1
40
1
10
-7.928639823962687
20
-1.993998970503859
30
0
10
-7.9868384753692565
20
-2.1018456430164059
30
0
10
-8.097585341397167
20
-2.2267662654613001
30
0
0
SPLINE
5
197
100
AcDbEntity
8
0
100
AcDbSpline
70
0
71
2
72
6
73
3
74
0
42
0.000000001
43
0.0000000001
44
0.0000000001
40
0
40
0
40
0
40
1
40
1
40
1
10
-8.097585341397167
20
-2.2267662654613001
30
0
10
-8.2083321365658453
20
-2.3516868648826335
30
0
10
-8.304251907852807
20
-2.4273215583601435
30
0
0
LINE
5
198
100
AcDbEntity
8
0
100
AcDbLine
10
-8.304251907852807
20
-2.4273215583601435
30
0
11
-8.3776065823759964
21
-2.2015590842052761
31
0
0
SPLINE
5
199
100
AcDbEntity
8
0
100
AcDbSpline
70
0
71
2
72
6
73
3
74
0
42
0.000000001
43
0.0000000001
44
0.0000000001
40
0
40
0
40
0
40
1
40
1
40
1
10
-8.3776065823759964
20
-2.2015590842052761
30
0
10
-8.2116183879247568
20
-2.0457793408014187
30
0
10
-8.1075820331687076
20
-1.8670950626251313
30
0
0
SPLINE
5
200
100
AcDbEntity
8
0
100
AcDbSpline
70
0
71
2
72
6
73
3
74
0
42
0.000000001
43
0.0000000001
44
0.0000000001
40
0
40
0
40
0
40
1
40
1
40
1
10
-8.1075820331687076
20
-1.8670950626251313
30
0
10
-8.0035456536005469
20
-1.6884106197068192
30
0
10
-7.9826137874948202
20
-1.5453353769438216
30
0
0
LINE
5
201
100
AcDbEntity
8
0
100
AcDbLine
10
-7.9826137874948202
20
-1.5453353769438216
30
0
11
-7.8321055186310629
21
-1.4964322759440694
31
0
0
LINE
5
202
100
AcDbEntity
8
0
100
AcDbLine
10
-7.8321055186310629
20
-1.4964322759440689
30
0
11
-7.2115420602512836
21
-3.4063302155720558
31
0
0
LINE
5
203
100
AcDbEntity
8
0
100
AcDbLine
10
-6.7752876065716228
20
-2.7137483443331822
30
0
11
-6.5368081941677625
21
-2.6133102477625685
31
0
0
SPLINE
5
204
100
AcDbEntity
8
0
100
AcDbSpline
70
0
71
2
72
6
73
3
74
0
42
0.000000001
43
0.0000000001
44
0.0000000001
40
0
40
0
40
0
40
1
40
1
40
1
10
-6.5368081941677625
20
-2.613310247762568
30
0
10
-6.451383157114158
20
-2.7835100087978546
30
0
10
-6.3228259796819515
20
-2.8414344718911764
30
0
0
SPLINE
5
205
100
AcDbEntity
8
0
100
AcDbSpline
70
0
71
2
72
6
73
3
74
0
42
0.000000001
43
0.0000000001
44
0.0000000001
40
0
40
0
40
0
40
1
40
1
40
1
10
-6.3228259796819515
20
-2.8414344718911764
30
0
10
-6.1942686144841623
20
-2.8993590306558428
30
0
10
-6.0541402311185433
20
-2.8538285588990773
30
0
0
SPLINE
5
206
100
AcDbEntity
8
0
100
AcDbSpline
70
0
71
2
72
6
73
3
74
0
42
0.000000001
43
0.0000000001
44
0.0000000001
40
0
40
0
40
0
40
1
40
1
40
1
10
-6.0541402311185433
20
-2.8538285588990773
30
0
10
-5.8854671980626616
20
-2.7990233682358778
30
0
10
-5.8100081705173761
20
-2.633927644958697
30
0
0
SPLINE
5
207
100
AcDbEntity
8
0
100
AcDbSpline
70
0
71
2
72
6
73
3
74
0
42
0.000000001
43
0.0000000001
44
0.0000000001
40
0
40
0
40
0
40
1
40
1
40
1
10
-5.8100081705173761
20
-2.633927644958697
30
0
10
-5.7345493803618961
20
-2.468832155494221
30
0
10
-5.8028450879970439
20
-2.2586395804457919
30
0
0
SPLINE
5
208
100
AcDbEntity
8
0
100
AcDbSpline
70
0
71
2
72
6
73
3
74
0
42
0.000000001
43
0.0000000001
44
0.0000000001
40
0
40
0
40
0
40
1
40
1
40
1
10
-5.8028450879970439
20
-2.2586395804457919
30
0
10
-5.8677681663892054
20
-2.0588268908954999
30
0
10
-6.0175208868188488
20
-1.9798171823466499
30
0
0
SPLINE
5
209
100
AcDbEntity
8
0
100
AcDbSpline
70
0
71
2
72
6
73
3
74
0
42
0.000000001
43
0.0000000001
44
0.0000000001
40
0
40
0
40
0
40
1
40
1
40
1
10
-6.0175208868188488
20
-1.9798171823466499
30
0
10
-6.167273890685423
20
-1.9008075658920409
30
0
10
-6.3489218160435907
20
-1.9598285546207546
30
0
0
SPLINE
5
210
100
AcDbEntity
8
0
100
AcDbSpline
70
0
71
2
72
6
73
3
74
0
42
0.000000001
43
0.0000000001
44
0.0000000001
40
0
40
0
40
0
40
1
40
1
40
1
10
-6.3489218160435907
20
-1.9598285546207546
30
0
10
-6.4618029822617915
20
-1.9965058688587887
30
0
10
-6.5359746024433534
20
-2.0772670035831773
30
0
0
SPLINE
5
211
100
AcDbEntity
8
0
100
AcDbSpline
70
0
71
2
72
6
73
3
74
0
42
0.000000001
43
0.0000000001
44
0.0000000001
40
0
40
0
40
0
40
1
40
1
40
1
10
-6.5359746024433534
20
-2.0772670035831773
30
0
10
-6.6101462226249126
20
-2.1580281383075666
30
0
10
-6.6354861775594056
20
-2.2566329359647561
30
0
0
LINE
5
212
100
AcDbEntity
8
0
100
AcDbLine
10
-6.6354861775594056
20
-2.2566329359647561
30
0
11
-6.8640357827510989
21
-2.2993350157178067
31
0
0
LINE
5
213
100
AcDbEntity
8
0
100
AcDbLine
10
-6.8640357827510989
20
-2.2993350157178067
30
0
11
-6.9972415643943719
21
-1.2624646600013436
31
0
0
LINE
5
214
100
AcDbEntity
8
0
100
AcDbLine
10
-6.9972415643943719
20
-1.2624646600013434
30
0
11
-6.0513749766764402
21
-0.95513397564317759
31
0
0
LINE
5
215
100
AcDbEntity
8
0
100
AcDbLine
10
-6.0513749766764402
20
-0.9551339756431777
30
0
11
-5.9788635170228988
21
-1.1783013012754302
31
0
0
LINE
5
216
100
AcDbEntity
8
0
100
AcDbLine
10
-5.9788635170228988
20
-1.17830130127543
30
0
11
-6.7378921657743618
21
-1.4249246592598284
31
0
0
LINE
5
217
100
AcDbEntity
8
0
100
AcDbLine
10
-6.7378921657743618
20
-1.4249246592598284
30
0
11
-6.6742916785782382
21
-1.9694385030779382
31
0
0
SPLINE
5
218
100
AcDbEntity
8
0
100
AcDbSpline
70
0
71
2
72
6
73
3
74
0
42
0.000000001
43
0.0000000001
44
0.0000000001
40
0
40
0
40
0
40
1
40
1
40
1
10
-6.6742916785782374
20
-1.9694385030779387
30
0
10
-6.5418088519889972
20
-1.7944215312228669
30
0
10
-6.3536734804796859
20
-1.733292643461396
30
0
0
SPLINE
5
219
100
AcDbEntity
8
0
100
AcDbSpline
70
0
71
2
72
6
73
3
74
0
42
0.000000001
43
0.0000000001
44
0.0000000001
40
0
40
0
40
0
40
1
40
1
40
1
10
-6.3536734804796859
20
-1.733292643461396
30
0
10
-6.1045562285243937
20
-1.6523495416297063
30
0
10
-5.8772184095093971
20
-1.7692667005939744
30
0
0
SPLINE
5
220
100
AcDbEntity
8
0
100
AcDbSpline
70
0
71
2
72
6
73
3
74
0
42
0.000000001
43
0.0000000001
44
0.0000000001
40
0
40
0
40
0
40
1
40
1
40
1
10
-5.8772184095093971
20
-1.7692667005939744
30
0
10
-5.6498805444472815
20
-1.8861840012767068
30
0
10
-5.561770668789034
20
-2.1573583150526514
30
0
0
SPLINE
5
221
100
AcDbEntity
8
0
100
AcDbSpline
70
0
71
2
72
6
73
3
74
0
42
0.000000001
43
0.0000000001
44
0.0000000001
40
0
40
0
40
0
40
1
40
1
40
1
10
-5.561770668789034
20
-2.1573583150526514
30
0
10
-5.4778765451491811
20
-2.4155578782447731
30
0
10
-5.5672558305801223
20
-2.6525961629882522
30
0
0
SPLINE
5
222
100
AcDbEntity
8
0
100
AcDbSpline
70
0
71
2
72
6
73
3
74
0
42
0.000000001
43
0.0000000001
44
0.0000000001
40
0
40
0
40
0
40
1
40
1
40
1
10
-5.5672558305801223
20
-2.6525961629882522
30
0
10
-5.6751603640784758
20
-2.942991105196493
30
0
10
-5.9917466591939625
20
-3.0458562280369184
30
0
0
SPLINE
5
223
100
AcDbEntity
8
0
100
AcDbSpline
70
0
71
2
72
6
73
3
74
0
42
0.000000001
43
0.0000000001
44
0.0000000001
40
0
40
0
40
0
40
1
40
1
40
1
10
-5.9917466591939625
20
-3.0458562280369184
30
0
10
-6.2512436549289276
20
-3.1301719130644745
30
0
10
-6.4625922248618597
20
-3.0381833145445771
30
0
0
SPLINE
5
224
100
AcDbEntity
8
0
100
AcDbSpline
70
0
71
2
72
6
73
3
74
0
42
0.000000001
43
0.0000000001
44
0.0000000001
40
0
40
0
40
0
40
1
40
1
40
1
10
-6.4625922248618597
20
-3.0381833145445771
30
0
10
-6.6739408408419116
20
-2.9461945743062143
30
0
10
-6.7752876065716228
20
-2.7137483443331822
30
0
0
LINE
5
225
100
AcDbEntity
8
0
100
AcDbLine
10
-7.8364507475445047
20
1.4830590364519103
30
0
11
-8.0699980295341263
21
1.5589431483719989
31
0
0
LINE
5
226
100
AcDbEntity
8
0
100
AcDbLine
10
-8.0699980295341263
20
1.5589431483719989
30
0
11
-7.5864475478123472
21
3.0471585053602848
31
0
0
SPLINE
5
227
100
AcDbEntity
8
0
100
AcDbSpline
70
0
71
2
72
6
73
3
74
0
42
0.000000001
43
0.0000000001
44
0.0000000001
40
0
40
0
40
0
40
1
40
1
40
1
10
-7.5864475478123463
20
3.0471585053602839
30
0
10
-7.6969219294616567
20
2.9941170235109373
30
0
10
-7.8599445257323062
20
2.9581494915939373
30
0
0
SPLINE
5
228
100
AcDbEntity
8
0
100
AcDbSpline
70
0
71
2
72
6
73
3
74
0
42
0.000000001
43
0.0000000001
44
0.0000000001
40
0
40
0
40
0
40
1
40
1
40
1
10
-7.8599445257323062
20
2.9581494915939373
30
0
10
-8.0229670511437234
20
2.9221819366533772
30
0
10
-8.1450247335991772
20
2.9173724112314758
30
0
0
LINE
5
229
100
AcDbEntity
8
0
100
AcDbLine
10
-8.1450247335991772
20
2.9173724112314758
30
0
11
-8.0716700590759878
21
3.1431348853863428
31
0
0
SPLINE
5
230
100
AcDbEntity
8
0
100
AcDbSpline
70
0
71
2
72
6
73
3
74
0
42
0.000000001
43
0.0000000001
44
0.0000000001
40
0
40
0
40
0
40
1
40
1
40
1
10
-8.0716700590759878
20
3.1431348853863428
30
0
10
-7.8458177531206283
20
3.171597932426339
30
0
10
-7.656622590561617
20
3.2550055150707018
30
0
0
SPLINE
5
231
100
AcDbEntity
8
0
100
AcDbSpline
70
0
71
2
72
6
73
3
74
0
42
0.000000001
43
0.0000000001
44
0.0000000001
40
0
40
0
40
0
40
1
40
1
40
1
10
-7.656622590561617
20
3.2550055150707018
30
0
10
-7.4674273110962508
20
3.3384132164099696
30
0
10
-7.3663955580284828
20
3.4418600770796495
30
0
0
LINE
5
232
100
AcDbEntity
8
0
100
AcDbLine
10
-7.3663955580284828
20
3.4418600770796495
30
0
11
-7.2158872891647254
21
3.3929569760798968
31
0
0
LINE
5
233
100
AcDbEntity
8
0
100
AcDbLine
10
-7.2158872891647254
20
3.3929569760798968
30
0
11
-7.8364507475445047
21
1.4830590364519103
31
0
0
SPLINE
5
234
100
AcDbEntity
8
0
100
AcDbSpline
70
0
71
2
72
6
73
3
74
0
42
0.000000001
43
0.0000000001
44
0.0000000001
40
0
40
0
40
0
40
1
40
1
40
1
10
-6.933508958357999
20
2.2267930947106356
30
0
10
-6.8238985770315983
20
2.5641391608223962
30
0
10
-6.6876629987719376
20
2.7472360772322082
30
0
0
SPLINE
5
235
100
AcDbEntity
8
0
100
AcDbSpline
70
0
71
2
72
6
73
3
74
0
42
0.000000001
43
0.0000000001
44
0.0000000001
40
0
40
0
40
0
40
1
40
1
40
1
10
-6.6876629987719376
20
2.7472360772322082
30
0
10
-6.5514272787938097
20
2.930332947594898
30
0
10
-6.378286936512664
20
2.9974401820534302
30
0
0
SPLINE
5
236
100
AcDbEntity
8
0
100
AcDbSpline
70
0
71
2
72
6
73
3
74
0
42
0.000000001
43
0.0000000001
44
0.0000000001
40
0
40
0
40
0
40
1
40
1
40
1
10
-6.378286936512664
20
2.9974401820534302
30
0
10
-6.2051464525130529
20
3.064547370464842
30
0
10
-5.9975488842687739
20
2.9970948316522206
30
0
0
SPLINE
5
237
100
AcDbEntity
8
0
100
AcDbSpline
70
0
71
2
72
6
73
3
74
0
42
0.000000001
43
0.0000000001
44
0.0000000001
40
0
40
0
40
0
40
1
40
1
40
1
10
-5.9975488842687739
20
2.9970948316522206
30
0
10
-5.8444456086008678
20
2.9473485618299411
30
0
10
-5.7489944073190262
20
2.8481975529112109
30
0
0
SPLINE
5
238
100
AcDbEntity
8
0
100
AcDbSpline
70
0
71
2
72
6
73
3
74
0
42
0.000000001
43
0.0000000001
44
0.0000000001
40
0
40
0
40
0
40
1
40
1
40
1
10
-5.7489944073190262
20
2.8481975529112109
30
0
10
-5.6535432060371846
20
2.7490465439924803
30
0
10
-5.6160205709609752
20
2.6084701024102799
30
0
0
SPLINE
5
239
100
AcDbEntity
8
0
100
AcDbSpline
70
0
71
2
72
6
73
3
74
0
42
0.000000001
43
0.0000000001
44
0.0000000001
40
0
40
0
40
0
40
1
40
1
40
1
10
-5.6160205709609752
20
2.6084701024102799
30
0
10
-5.5784976064007186
20
2.467893710452302
30
0
10
-5.5898533157049464
20
2.2872547726631467
30
0
0
SPLINE
5
240
100
AcDbEntity
8
0
100
AcDbSpline
70
0
71
2
72
6
73
3
74
0
42
0.000000001
43
0.0000000001
44
0.0000000001
40
0
40
0
40
0
40
1
40
1
40
1
10
-5.5898533157049464
20
2.2872547726631467
30
0
10
-5.6012090250091751
20
2.1066158348739905
30
0
10
-5.6931131373452324
20
1.8237640613386015
30
0
0
SPLINE
5
241
100
AcDbEntity
8
0
100
AcDbSpline
70
0
71
2
72
6
73
3
74
0
42
0.000000001
43
0.0000000001
44
0.0000000001
40
0
40
0
40
0
40
1
40
1
40
1
10
-5.6931131373452324
20
1.8237640613386015
30
0
10
-5.8018803958962266
20
1.4890128603125259
30
0
10
-5.9374674704621633
20
1.3057052322795437
30
0
0
SPLINE
5
242
100
AcDbEntity
8
0
100
AcDbSpline
70
0
71
2
72
6
73
3
74
0
42
0.000000001
43
0.0000000001
44
0.0000000001
40
0
40
0
40
0
40
1
40
1
40
1
10
-5.9374674704621633
20
1.3057052322795437
30
0
10
-6.0730542615911709
20
1.1223975121523211
30
0
10
-6.2464055493081938
20
1.0546415366102557
30
0
0
SPLINE
5
243
100
AcDbEntity
8
0
100
AcDbSpline
70
0
71
2
72
6
73
3
74
0
42
0.000000001
43
0.0000000001
44
0.0000000001
40
0
40
0
40
0
40
1
40
1
40
1
10
-6.2464055493081938
20
1.0546415366102557
30
0
10
-6.4197567909780959
20
0.98688570278665511
30
0
10
-6.6286517917652183
20
1.0547598029869798
30
0
0
SPLINE
5
244
100
AcDbEntity
8
0
100
AcDbSpline
70
0
71
2
72
6
73
3
74
0
42
0.000000001
43
0.0000000001
44
0.0000000001
40
0
40
0
40
0
40
1
40
1
40
1
10
-6.6286517917652183
20
1.0547598029869798
30
0
10
-6.9037185448881564
20
1.1441344088554561
30
0
10
-6.996634350333423
20
1.3923630916341074
30
0
0
SPLINE
5
245
100
AcDbEntity
8
0
100
AcDbSpline
70
0
71
2
72
6
73
3
74
0
42
0.000000001
43
0.0000000001
44
0.0000000001
40
0
40
0
40
0
40
1
40
1
40
1
10
-6.996634350333423
20
1.3923630916341074
30
0
10
-7.1076208566888557
20
1.6909317715914252
30
0
10
-6.933508958357999
20
2.2267930947106356
30
0
0
SPLINE
5
246
100
AcDbEntity
8
0
100
AcDbSpline
70
0
71
2
72
6
73
3
74
0
42
0.000000001
43
0.0000000001
44
0.0000000001
40
0
40
0
40
0
40
1
40
1
40
1
10
-6.6934743010764652
20
2.1488011067813497
30
0
10
-6.8456641323514669
20
1.680408968540799
30
0
10
-6.7864052532769996
20
1.4897360854541797
30
0
0
SPLINE
5
247
100
AcDbEntity
8
0
100
AcDbSpline
70
0
71
2
72
6
73
3
74
0
42
0.000000001
43
0.0000000001
44
0.0000000001
40
0
40
0
40
0
40
1
40
1
40
1
10
-6.7864052532769996
20
1.4897360854541797
30
0
10
-6.7271463742025315
20
1.2990632023675597
30
0
10
-6.5662582198406376
20
1.24678747212482
30
0
0
SPLINE
5
248
100
AcDbEntity
8
0
100
AcDbSpline
70
0
71
2
72
6
73
3
74
0
42
0.000000001
43
0.0000000001
44
0.0000000001
40
0
40
0
40
0
40
1
40
1
40
1
10
-6.5662582198406376
20
1.24678747212482
30
0
10
-6.4053700654787438
20
1.1945117418820805
30
0
10
-6.2451432545505403
20
1.3145866826560426
30
0
0
SPLINE
5
249
100
AcDbEntity
8
0
100
AcDbSpline
70
0
71
2
72
6
73
3
74
0
42
0.000000001
43
0.0000000001
44
0.0000000001
40
0
40
0
40
0
40
1
40
1
40
1
10
-6.2451432545505403
20
1.3145866826560426
30
0
10
-6.0849162062325295
20
1.4346613896172995
30
0
10
-5.9331479363452306
20
1.901756095315007
30
0
0
SPLINE
5
250
100
AcDbEntity
8
0
100
AcDbSpline
70
0
71
2
72
6
73
3
74
0
42
0.000000001
43
0.0000000001
44
0.0000000001
40
0
40
0
40
0
40
1
40
1
40
1
10
-5.9331479363452306
20
1.901756095315007
30
0
10
-5.7805365436825262
20
2.3714456660984009
30
0
10
-5.8400063681928689
20
2.5614698081014877
30
0
0
SPLINE
5
251
100
AcDbEntity
8
0
100
AcDbSpline
70
0
71
2
72
6
73
3
74
0
42
0.000000001
43
0.0000000001
44
0.0000000001
40
0
40
0
40
0
40
1
40
1
40
1
10
-5.8400063681928689
20
2.5614698081014877
30
0
10
-5.8994759092662852
20
2.7514938580103325
30
0
10
-6.0629590704323286
20
2.8046127570755992
30
0
0
SPLINE
5
252
100
AcDbEntity
8
0
100
AcDbSpline
70
0
71
2
72
6
73
3
74
0
42
0.000000001
43
0.0000000001
44
0.0000000001
40
0
40
0
40
0
40
1
40
1
40
1
10
-6.0629590704323286
20
2.8046127570755992
30
0
10
-6.2238472247942225
20
2.8568884873183387
30
0
10
-6.3641268009096787
20
2.7518493292620025
30
0
0
SPLINE
5
253
100
AcDbEntity
8
0
100
AcDbSpline
70
0
71
2
72
6
73
3
74
0
42
0.000000001
43
0.0000000001
44
0.0000000001
40
0
40
0
40
0
40
1
40
1
40
1
10
-6.3641268009096787
20
2.7518493292620025
30
0
10
-6.5412845158485844
20
2.6171931033034355
30
0
10
-6.6934743010764652
20
2.1488011067813497
30
0
0
LINE
5
254
100
AcDbEntity
8
0
100
AcDbLine
10
0.775107133000009
20
-7.3232035656516832
30
0
11
1.0111234959055113
21
-7.3232035656516832
31
0
0
LINE
5
255
100
AcDbEntity
8
0
100
AcDbLine
10
1.0111234959055115
20
-7.3232035656516832
30
0
11
1.0111234959055113
21
-8.6451679878925365
31
0
0
SPLINE
5
256
100
AcDbEntity
8
0
100
AcDbSpline
70
0
71
2
72
6
73
3
74
0
42
0.000000001
43
0.0000000001
44
0.0000000001
40
0
40
0
40
0
40
1
40
1
40
1
10
1.0111234959055109
20
-8.6451679878925365
30
0
10
0.92244683465253552
20
-8.6478965022658389
30
0
10
0.8405914779592677
20
-8.6165186055993122
30
0
0
SPLINE
5
257
100
AcDbEntity
8
0
100
AcDbSpline
70
0
71
2
72
6
73
3
74
0
42
0.000000001
43
0.0000000001
44
0.0000000001
40
0
40
0
40
0
40
1
40
1
40
1
10
0.8405914779592677
20
-8.6165186055993122
30
0
10
0.70553003510724743
20
-8.5660411176328939
30
0
10
0.57456149420034131
20
-8.4548542221133989
30
0
0
SPLINE
5
258
100
AcDbEntity
8
0
100
AcDbSpline
70
0
71
2
72
6
73
3
74
0
42
0.000000001
43
0.0000000001
44
0.0000000001
40
0
40
0
40
0
40
1
40
1
40
1
10
0.57456149420034131
20
-8.4548542221133989
30
0
10
0.44359280428182324
20
-8.3436673079674524
30
0
10
0.2716965850282832
20
-8.1335718129818719
30
0
0
SPLINE
5
259
100
AcDbEntity
8
0
100
AcDbSpline
70
0
71
2
72
6
73
3
74
0
42
0.000000001
43
0.0000000001
44
0.0000000001
40
0
40
0
40
0
40
1
40
1
40
1
10
0.2716965850282832
20
-8.1335718129818719
30
0
10
0.0043022509504483941
20
-7.8075145502631944
30
0
10
-0.1519051317285372
20
-7.6929170210902971
30
0
0
SPLINE
5
260
100
AcDbEntity
8
0
100
AcDbSpline
70
0
71
2
72
6
73
3
74
0
42
0.000000001
43
0.0000000001
44
0.0000000001
40
0
40
0
40
0
40
1
40
1
40
1
10
-0.1519051317285372
20
-7.6929170210902971
30
0
10
-0.3081125144075228
20
-7.5783194919173997
30
0
10
-0.44726671019304526
20
-7.5783194919173997
30
0
0
SPLINE
5
261
100
AcDbEntity
8
0
100
AcDbSpline
70
0
71
2
72
6
73
3
74
0
42
0.000000001
43
0.0000000001
44
0.0000000001
40
0
40
0
40
0
40
1
40
1
40
1
10
-0.44726671019304526
20
-7.5783194919173997
30
0
10
-0.59324206152666337
20
-7.5783194919173997
30
0
10
-0.69351495543230302
20
-7.6826850642507356
30
0
0
SPLINE
5
262
100
AcDbEntity
8
0
100
AcDbSpline
70
0
71
2
72
6
73
3
74
0
42
0.000000001
43
0.0000000001
44
0.0000000001
40
0
40
0
40
0
40
1
40
1
40
1
10
-0.69351495543230302
20
-7.6826850642507356
30
0
10
-0.79378784933794289
20
-7.7870507110898775
30
0
10
-0.79378784933794289
20
-7.9548542519157213
30
0
0
SPLINE
5
263
100
AcDbEntity
8
0
100
AcDbSpline
70
0
71
2
72
6
73
3
74
0
42
0.000000001
43
0.0000000001
44
0.0000000001
40
0
40
0
40
0
40
1
40
1
40
1
10
-0.79378784933794289
20
-7.9548542519157213
30
0
10
-0.79378784933794289
20
-8.1322075371687692
30
0
10
-0.68737582603204994
20
-8.2386195604746622
30
0
0
SPLINE
5
264
100
AcDbEntity
8
0
100
AcDbSpline
70
0
71
2
72
6
73
3
74
0
42
0.000000001
43
0.0000000001
44
0.0000000001
40
0
40
0
40
0
40
1
40
1
40
1
10
-0.68737582603204994
20
-8.2386195604746622
30
0
10
-0.580963802726157
20
-8.3450315837805551
30
0
10
-0.39269642272699623
20
-8.3463958223407548
30
0
0
LINE
5
265
100
AcDbEntity
8
0
100
AcDbLine
10
-0.39269642272699623
20
-8.3463958223407548
30
0
11
-0.41861729064691816
21
-8.5987832714860719
31
0
0
SPLINE
5
266
100
AcDbEntity
8
0
100
AcDbSpline
70
0
71
2
72
6
73
3
74
0
42
0.000000001
43
0.0000000001
44
0.0000000001
40
0
40
0
40
0
40
1
40
1
40
1
10
-0.41861729064691822
20
-8.5987832714860719
30
0
10
-0.7010182861398534
20
-8.57286240356615
30
0
10
-0.8490401629518346
20
-8.4036945869272035
30
0
0
SPLINE
5
267
100
AcDbEntity
8
0
100
AcDbSpline
70
0
71
2
72
6
73
3
74
0
42
0.000000001
43
0.0000000001
44
0.0000000001
40
0
40
0
40
0
40
1
40
1
40
1
10
-0.8490401629518346
20
-8.4036945869272035
30
0
10
-0.99706203976381569
20
-8.234526770288257
30
0
10
-0.99706203976381569
20
-7.9493972231691163
30
0
0
SPLINE
5
268
100
AcDbEntity
8
0
100
AcDbSpline
70
0
71
2
72
6
73
3
74
0
42
0.000000001
43
0.0000000001
44
0.0000000001
40
0
40
0
40
0
40
1
40
1
40
1
10
-0.99706203976381569
20
-7.9493972231691163
30
0
10
-0.99706203976381547
20
-7.6615391244237703
30
0
10
-0.83744407931078202
20
-7.4937355835979265
30
0
0
SPLINE
5
269
100
AcDbEntity
8
0
100
AcDbSpline
70
0
71
2
72
6
73
3
74
0
42
0.000000001
43
0.0000000001
44
0.0000000001
40
0
40
0
40
0
40
1
40
1
40
1
10
-0.83744407931078202
20
-7.4937355835979265
30
0
10
-0.67782596984613663
20
-7.3259319682662767
30
0
10
-0.44180960694063437
20
-7.3259319682662767
30
0
0
SPLINE
5
270
100
AcDbEntity
8
0
100
AcDbSpline
70
0
71
2
72
6
73
3
74
0
42
0.000000001
43
0.0000000001
44
0.0000000001
40
0
40
0
40
0
40
1
40
1
40
1
10
-0.44180960694063437
20
-7.3259319682662767
30
0
10
-0.32175512352693808
20
-7.3259319682662767
30
0
10
-0.20579324403513205
20
-7.3750453014915269
30
0
0
SPLINE
5
271
100
AcDbEntity
8
0
100
AcDbSpline
70
0
71
2
72
6
73
3
74
0
42
0.000000001
43
0.0000000001
44
0.0000000001
40
0
40
0
40
0
40
1
40
1
40
1
10
-0.20579324403513205
20
-7.3750453014915269
30
0
10
-0.089831513554937958
20
-7.4241584857051652
30
0
10
0.038408624737374664
20
-7.5380739142244142
30
0
0
SPLINE
5
272
100
AcDbEntity
8
0
100
AcDbSpline
70
0
71
2
72
6
73
3
74
0
42
0.000000001
43
0.0000000001
44
0.0000000001
40
0
40
0
40
0
40
1
40
1
40
1
10
0.038408624737374664
20
-7.5380739142244142
30
0
10
0.16664876302968729
20
-7.6519893427436632
30
0
10
0.39038671812307107
20
-7.9166550506894868
30
0
0
SPLINE
5
273
100
AcDbEntity
8
0
100
AcDbSpline
70
0
71
2
72
6
73
3
74
0
42
0.000000001
43
0.0000000001
44
0.0000000001
40
0
40
0
40
0
40
1
40
1
40
1
10
0.39038671812307107
20
-7.9166550506894868
30
0
10
0.57592569550763806
20
-8.1376645659153741
30
0
10
0.6420920666147395
20
-8.2004203592484277
30
0
0
SPLINE
5
274
100
AcDbEntity
8
0
100
AcDbSpline
70
0
71
2
72
6
73
3
74
0
42
0.000000001
43
0.0000000001
44
0.0000000001
40
0
40
0
40
0
40
1
40
1
40
1
10
0.6420920666147395
20
-8.2004203592484277
30
0
10
0.70825858673345288
20
-8.2631761898343843
30
0
10
0.77510713300000866
20
-8.3041038681810182
30
0
0
LINE
5
275
100
AcDbEntity
8
0
100
AcDbLine
10
0.77510713300000866
20
-8.3041038681810182
30
0
11
0.77510713300000877
21
-7.3232035656516832
31
0
0
LINE
5
276
100
AcDbEntity
8
0
100
AcDbLine
10
0.48724903425466287
20
-7.0599019845073503
30
0
11
0.46542091926824325
21
-6.8020575066154283
31
0
0
SPLINE
5
277
100
AcDbEntity
8
0
100
AcDbSpline
70
0
71
2
72
6
73
3
74
0
42
0.000000001
43
0.0000000001
44
0.0000000001
40
0
40
0
40
0
40
1
40
1
40
1
10
0.46542091926824319
20
-6.8020575066154283
30
0
10
0.65368829926740402
20
-6.773408087069301
30
0
10
0.748504089920633
20
-6.6690425892417711
30
0
0
SPLINE
5
278
100
AcDbEntity
8
0
100
AcDbSpline
70
0
71
2
72
6
73
3
74
0
42
0.000000001
43
0.0000000001
44
0.0000000001
40
0
40
0
40
0
40
1
40
1
40
1
10
0.748504089920633
20
-6.6690425892417711
30
0
10
0.8433200295854737
20
-6.5646769424026292
30
0
10
0.8433200295854737
20
-6.4173372407501024
30
0
0
SPLINE
5
279
100
AcDbEntity
8
0
100
AcDbSpline
70
0
71
2
72
6
73
3
74
0
42
0.000000001
43
0.0000000001
44
0.0000000001
40
0
40
0
40
0
40
1
40
1
40
1
10
0.8433200295854737
20
-6.4173372407501024
30
0
10
0.8433200295854737
20
-6.2399839182441514
30
0
10
0.70962278804075019
20
-6.1172007341926378
30
0
0
SPLINE
5
280
100
AcDbEntity
8
0
100
AcDbSpline
70
0
71
2
72
6
73
3
74
0
42
0.000000001
43
0.0000000001
44
0.0000000001
40
0
40
0
40
0
40
1
40
1
40
1
10
0.70962278804075019
20
-6.1172007341926378
30
0
10
0.57592569550763861
20
-5.994417848164348
30
0
10
0.35491614302884833
20
-5.994417848164348
30
0
0
SPLINE
5
281
100
AcDbEntity
8
0
100
AcDbSpline
70
0
71
2
72
6
73
3
74
0
42
0.000000001
43
0.0000000001
44
0.0000000001
40
0
40
0
40
0
40
1
40
1
40
1
10
0.35491614302884833
20
-5.994417848164348
30
0
10
0.14482064804326789
20
-5.994417848164348
30
0
10
0.023401814310662905
20
-6.1124258060996812
30
0
0
SPLINE
5
282
100
AcDbEntity
8
0
100
AcDbSpline
70
0
71
2
72
6
73
3
74
0
42
0.000000001
43
0.0000000001
44
0.0000000001
40
0
40
0
40
0
40
1
40
1
40
1
10
0.023401814310662905
20
-6.1124258060996812
30
0
10
-0.098017019421942075
20
-6.2304340620582384
30
0
10
-0.098017019421942075
20
-6.4214299936836046
30
0
0
SPLINE
5
283
100
AcDbEntity
8
0
100
AcDbSpline
70
0
71
2
72
6
73
3
74
0
42
0.000000001
43
0.0000000001
44
0.0000000001
40
0
40
0
40
0
40
1
40
1
40
1
10
-0.098017019421942075
20
-6.4214299936836046
30
0
10
-0.098017019421942075
20
-6.5401202757900041
30
0
10
-0.044128907115347227
20
-6.6356182416026872
30
0
0
SPLINE
5
284
100
AcDbEntity
8
0
100
AcDbSpline
70
0
71
2
72
6
73
3
74
0
42
0.000000001
43
0.0000000001
44
0.0000000001
40
0
40
0
40
0
40
1
40
1
40
1
10
-0.044128907115347227
20
-6.6356182416026872
30
0
10
0.0097592051912476219
20
-6.7311162074153703
30
0
10
0.095707463829629302
20
-6.7856864948814195
30
0
0
LINE
5
285
100
AcDbEntity
8
0
100
AcDbLine
10
0.095707463829629302
20
-6.7856864948814195
30
0
11
0.065693842976205175
21
-7.0162457545345109
31
0
0
LINE
5
286
100
AcDbEntity
8
0
100
AcDbLine
10
0.06569384297620523
20
-7.0162457545345109
30
0
11
-0.96159131565798051
21
-6.8225214202945512
31
0
0
LINE
5
287
100
AcDbEntity
8
0
100
AcDbLine
10
-0.96159131565798039
20
-6.8225214202945512
30
0
11
-0.96159131565798017
21
-5.8279784341399949
31
0
0
LINE
5
288
100
AcDbEntity
8
0
100
AcDbLine
10
-0.96159131565798028
20
-5.8279784341399949
30
0
11
-0.72693930307138666
21
-5.8279784341399949
31
0
0
LINE
5
289
100
AcDbEntity
8
0
100
AcDbLine
10
-0.72693930307138666
20
-5.8279784341399949
30
0
11
-0.72693930307138677
21
-6.6260683854167741
31
0
0
LINE
5
290
100
AcDbEntity
8
0
100
AcDbLine
10
-0.72693930307138677
20
-6.6260683854167741
30
0
11
-0.18942223230112312
21
-6.7338447590415758
31
0
0
SPLINE
5
291
100
AcDbEntity
8
0
100
AcDbSpline
70
0
71
2
72
6
73
3
74
0
42
0.000000001
43
0.0000000001
44
0.0000000001
40
0
40
0
40
0
40
1
40
1
40
1
10
-0.18942223230112298
20
-6.7338447590415758
30
0
10
-0.31493381896723027
20
-6.5537628849094194
30
0
10
-0.31493381896723016
20
-6.3559456487243455
30
0
0
SPLINE
5
292
100
AcDbEntity
8
0
100
AcDbSpline
70
0
71
2
72
6
73
3
74
0
42
0.000000001
43
0.0000000001
44
0.0000000001
40
0
40
0
40
0
40
1
40
1
40
1
10
-0.31493381896723016
20
-6.3559456487243455
30
0
10
-0.31493381896723016
20
-6.0940082688873094
30
0
10
-0.13348774352777704
20
-5.913926543766765
30
0
0
SPLINE
5
293
100
AcDbEntity
8
0
100
AcDbSpline
70
0
71
2
72
6
73
3
74
0
42
0.000000001
43
0.0000000001
44
0.0000000001
40
0
40
0
40
0
40
1
40
1
40
1
10
-0.13348774352777704
20
-5.913926543766765
30
0
10
0.047958480923288027
20
-5.7338448186462205
30
0
10
0.33308802804242865
20
-5.7338448186462205
30
0
0
SPLINE
5
294
100
AcDbEntity
8
0
100
AcDbSpline
70
0
71
2
72
6
73
3
74
0
42
0.000000001
43
0.0000000001
44
0.0000000001
40
0
40
0
40
0
40
1
40
1
40
1
10
0.33308802804242865
20
-5.7338448186462205
30
0
10
0.60457511505376593
20
-5.7338448186462205
30
0
10
0.80239220222722785
20
-5.8920984287803453
30
0
0
SPLINE
5
295
100
AcDbEntity
8
0
100
AcDbSpline
70
0
71
2
72
6
73
3
74
0
42
0.000000001
43
0.0000000001
44
0.0000000001
40
0
40
0
40
0
40
1
40
1
40
1
10
0.80239220222722785
20
-5.8920984287803453
30
0
10
1.0452298696924378
20
-6.0844587107246202
30
0
10
1.0452298696924378
20
-6.4173372407501024
30
0
0
SPLINE
5
296
100
AcDbEntity
8
0
100
AcDbSpline
70
0
71
2
72
6
73
3
74
0
42
0.000000001
43
0.0000000001
44
0.0000000001
40
0
40
0
40
0
40
1
40
1
40
1
10
1.0452298696924378
20
-6.4173372407501024
30
0
10
1.0452298696924378
20
-6.6901885290687364
30
0
10
0.89243321379911178
20
-6.8627669234817308
30
0
0
SPLINE
5
297
100
AcDbEntity
8
0
100
AcDbSpline
70
0
71
2
72
6
73
3
74
0
42
0.000000001
43
0.0000000001
44
0.0000000001
40
0
40
0
40
0
40
1
40
1
40
1
10
0.89243321379911178
20
-6.8627669234817308
30
0
10
0.73963640889417404
20
-7.0353453178947252
30
0
10
0.48724903425466287
20
-7.0599019845073503
30
0
0
LINE
5
298
100
AcDbEntity
8
0
100
AcDbLine
10
-3.6773962123674622
20
-6.3801926796035291
30
0
11
-3.4864549638263451
21
-6.5189196170190922
31
0
0
LINE
5
299
100
AcDbEntity
8
0
100
AcDbLine
10
-3.486454963826346
20
-6.5189196170190922
30
0
11
-4.2634861552748591
21
-7.5884113005710017
31
0
0
SPLINE
5
300
100
AcDbEntity
8
0
100
AcDbSpline
70
0
71
2
72
6
73
3
74
0
42
0.000000001
43
0.0000000001
44
0.0000000001
40
0
40
0
40
0
40
1
40
1
40
1
10
-4.2634861552748591
20
-7.5884113005710008
30
0
10
-4.336830861742242
20
-7.5384958813613645
30
0
10
-4.3846097714791767
20
-7.4649972582249617
30
0
0
SPLINE
5
301
100
AcDbEntity
8
0
100
AcDbSpline
70
0
71
2
72
6
73
3
74
0
42
0.000000001
43
0.0000000001
44
0.0000000001
40
0
40
0
40
0
40
1
40
1
40
1
10
-4.3846097714791767
20
-7.4649972582249617
30
0
10
-4.4642068510318307
20
-7.3447729883650119
30
0
10
-4.5048086089194648
20
-7.177839523478605
30
0
0
SPLINE
5
302
100
AcDbEntity
8
0
100
AcDbSpline
70
0
71
2
72
6
73
3
74
0
42
0.000000001
43
0.0000000001
44
0.0000000001
40
0
40
0
40
0
40
1
40
1
40
1
10
-4.5048086089194648
20
-7.177839523478605
30
0
10
-4.5454104764116723
20
-7.0109059559362557
30
0
10
-4.5609864055309774
20
-6.73989706744924
30
0
0
SPLINE
5
303
100
AcDbEntity
8
0
100
AcDbSpline
70
0
71
2
72
6
73
3
74
0
42
0.000000001
43
0.0000000001
44
0.0000000001
40
0
40
0
40
0
40
1
40
1
40
1
10
-4.5609864055309774
20
-6.73989706744924
30
0
10
-4.5856613155706274
20
-6.3189407546529344
30
0
10
-4.6446770052077717
20
-6.1344130102007677
30
0
0
SPLINE
5
304
100
AcDbEntity
8
0
100
AcDbSpline
70
0
71
2
72
6
73
3
74
0
42
0.000000001
43
0.0000000001
44
0.0000000001
40
0
40
0
40
0
40
1
40
1
40
1
10
-4.6446770052077717
20
-6.1344130102007677
30
0
10
-4.703692694844916
20
-5.9498852657486001
30
0
10
-4.8162708040739828
20
-5.8680924816712512
30
0
0
SPLINE
5
305
100
AcDbEntity
8
0
100
AcDbSpline
70
0
71
2
72
6
73
3
74
0
42
0.000000001
43
0.0000000001
44
0.0000000001
40
0
40
0
40
0
40
1
40
1
40
1
10
-4.8162708040739828
20
-5.8680924816712512
30
0
10
-4.9343673440627338
20
-5.7822903229591374
30
0
10
-5.07683436357215
20
-5.807784916362051
30
0
0
SPLINE
5
306
100
AcDbEntity
8
0
100
AcDbSpline
70
0
71
2
72
6
73
3
74
0
42
0.000000001
43
0.0000000001
44
0.0000000001
40
0
40
0
40
0
40
1
40
1
40
1
10
-5.07683436357215
20
-5.807784916362051
30
0
10
-5.2193014268749804
20
-5.8332795700414284
30
0
10
-5.3179338734548693
20
-5.9690354862858266
30
0
0
SPLINE
5
307
100
AcDbEntity
8
0
100
AcDbSpline
70
0
71
2
72
6
73
3
74
0
42
0.000000001
43
0.0000000001
44
0.0000000001
40
0
40
0
40
0
40
1
40
1
40
1
10
-5.3179338734548693
20
-5.9690354862858266
30
0
10
-5.4221795189722313
20
-6.1125173080637696
30
0
10
-5.3986378016777481
20
-6.2611538612898663
30
0
0
SPLINE
5
308
100
AcDbEntity
8
0
100
AcDbSpline
70
0
71
2
72
6
73
3
74
0
42
0.000000001
43
0.0000000001
44
0.0000000001
40
0
40
0
40
0
40
1
40
1
40
1
10
-5.3986378016777481
20
-6.2611538612898663
30
0
10
-5.375096084383264
20
-6.4097904145159648
30
0
10
-5.2235864537837902
20
-6.5215548961467977
30
0
0
LINE
5
309
100
AcDbEntity
8
0
100
AcDbLine
10
-5.2235864537837902
20
-6.5215548961467977
30
0
11
-5.392906496911289
21
-6.7105047277823502
31
0
0
SPLINE
5
310
100
AcDbEntity
8
0
100
AcDbSpline
70
0
71
2
72
6
73
3
74
0
42
0.000000001
43
0.0000000001
44
0.0000000001
40
0
40
0
40
0
40
1
40
1
40
1
10
-5.3929064969112908
20
-6.7105047277823502
30
0
10
-5.6061377976035267
20
-6.5235431647427244
30
0
10
-5.6264556637008045
20
-6.2996784499737757
30
0
0
SPLINE
5
311
100
AcDbEntity
8
0
100
AcDbSpline
70
0
71
2
72
6
73
3
74
0
42
0.000000001
43
0.0000000001
44
0.0000000001
40
0
40
0
40
0
40
1
40
1
40
1
10
-5.6264556637008045
20
-6.2996784499737757
30
0
10
-5.6467735297980823
20
-6.0758137352048269
30
0
10
-5.4791785870086196
20
-5.84513908598701
30
0
0
SPLINE
5
312
100
AcDbEntity
8
0
100
AcDbSpline
70
0
71
2
72
6
73
3
74
0
42
0.000000001
43
0.0000000001
44
0.0000000001
40
0
40
0
40
0
40
1
40
1
40
1
10
-5.4791785870086196
20
-5.84513908598701
30
0
10
-5.3099798418131545
20
-5.6122569921335641
30
0
10
-5.0822137526192934
20
-5.570322159044462
30
0
0
SPLINE
5
313
100
AcDbEntity
8
0
100
AcDbSpline
70
0
71
2
72
6
73
3
74
0
42
0.000000001
43
0.0000000001
44
0.0000000001
40
0
40
0
40
0
40
1
40
1
40
1
10
-5.0822137526192934
20
-5.570322159044462
30
0
10
-4.8544474990790922
20
-5.5283873532657246
30
0
10
-4.6635062505379752
20
-5.6671142906812877
30
0
0
SPLINE
5
314
100
AcDbEntity
8
0
100
AcDbSpline
70
0
71
2
72
6
73
3
74
0
42
0.000000001
43
0.0000000001
44
0.0000000001
40
0
40
0
40
0
40
1
40
1
40
1
10
-4.6635062505379752
20
-5.6671142906812877
30
0
10
-4.5663801332053904
20
-5.7376805455034496
30
0
10
-4.5014330949575871
20
-5.8455747493264774
30
0
0
SPLINE
5
315
100
AcDbEntity
8
0
100
AcDbSpline
70
0
71
2
72
6
73
3
74
0
42
0.000000001
43
0.0000000001
44
0.0000000001
40
0
40
0
40
0
40
1
40
1
40
1
10
-4.5014330949575871
20
-5.8455747493264774
30
0
10
-4.4364860896758831
20
-5.9534687450097508
30
0
10
-4.3996954473286003
20
-6.1210059246434962
30
0
0
SPLINE
5
316
100
AcDbEntity
8
0
100
AcDbSpline
70
0
71
2
72
6
73
3
74
0
42
0.000000001
43
0.0000000001
44
0.0000000001
40
0
40
0
40
0
40
1
40
1
40
1
10
-4.3996954473286003
20
-6.1210059246434962
30
0
10
-4.3629048049813175
20
-6.2885431042772417
30
0
10
-4.3374635969421735
20
-6.634172030215657
30
0
0
SPLINE
5
317
100
AcDbEntity
8
0
100
AcDbSpline
70
0
71
2
72
6
73
3
74
0
42
0.000000001
43
0.0000000001
44
0.0000000001
40
0
40
0
40
0
40
1
40
1
40
1
10
-4.3374635969421735
20
-6.634172030215657
30
0
10
-4.3172655447851946
20
-6.9220295585840432
30
0
10
-4.3006227559205135
20
-7.0116916790204309
30
0
0
SPLINE
5
318
100
AcDbEntity
8
0
100
AcDbSpline
70
0
71
2
72
6
73
3
74
0
42
0.000000001
43
0.0000000001
44
0.0000000001
40
0
40
0
40
0
40
1
40
1
40
1
10
-4.3006227559205135
20
-7.0116916790204309
30
0
10
-4.2839798683996131
20
-7.1013539171818776
30
0
10
-4.2539549441634303
20
-7.1737576941372883
30
0
0
LINE
5
319
100
AcDbEntity
8
0
100
AcDbLine
10
-4.2539549441634303
20
-7.1737576941372883
30
0
11
-3.6773962123674626
21
-6.3801926796035291
31
0
0
SPLINE
5
320
100
AcDbEntity
8
0
100
AcDbSpline
70
0
71
2
72
6
73
3
74
0
42
0.000000001
43
0.0000000001
44
0.0000000001
40
0
40
0
40
0
40
1
40
1
40
1
10
-4.1296701416058994
20
-5.7261377828261448
30
0
10
-4.4166338454382492
20
-5.5176464479980076
30
0
10
-4.5486702519826157
20
-5.331498654754637
30
0
0
SPLINE
5
321
100
AcDbEntity
8
0
100
AcDbSpline
70
0
71
2
72
6
73
3
74
0
42
0.000000001
43
0.0000000001
44
0.0000000001
40
0
40
0
40
0
40
1
40
1
40
1
10
-4.5486702519826157
20
-5.331498654754637
30
0
10
-4.6807065709401545
20
-5.1453507409583397
30
0
10
-4.6910260353857183
20
-4.9599472143050916
30
0
0
SPLINE
5
322
100
AcDbEntity
8
0
100
AcDbSpline
70
0
71
2
72
6
73
3
74
0
42
0.000000001
43
0.0000000001
44
0.0000000001
40
0
40
0
40
0
40
1
40
1
40
1
10
-4.6910260353857183
20
-4.9599472143050916
30
0
10
-4.7013454122444545
20
-4.7745435670989176
30
0
10
-4.5730430590876638
20
-4.5979505278600037
30
0
0
SPLINE
5
323
100
AcDbEntity
8
0
100
AcDbSpline
70
0
71
2
72
6
73
3
74
0
42
0.000000001
43
0.0000000001
44
0.0000000001
40
0
40
0
40
0
40
1
40
1
40
1
10
-4.5730430590876638
20
-4.5979505278600037
30
0
10
-4.4784200309359523
20
-4.4677131026517536
30
0
10
-4.3546257744769621
20
-4.4075729624497679
30
0
0
SPLINE
5
324
100
AcDbEntity
8
0
100
AcDbSpline
70
0
71
2
72
6
73
3
74
0
42
0.000000001
43
0.0000000001
44
0.0000000001
40
0
40
0
40
0
40
1
40
1
40
1
10
-4.3546257744769621
20
-4.4075729624497679
30
0
10
-4.2308315180179719
20
-4.3474328222477823
30
0
10
-4.085540245301357
20
-4.3551871851076465
30
0
0
SPLINE
5
325
100
AcDbEntity
8
0
100
AcDbSpline
70
0
71
2
72
6
73
3
74
0
42
0.000000001
43
0.0000000001
44
0.0000000001
40
0
40
0
40
0
40
1
40
1
40
1
10
-4.085540245301357
20
-4.3551871851076465
30
0
10
-3.9402489179640128
20
-4.3629412192748296
30
0
10
-3.7719601862411896
20
-4.4295616422284576
30
0
0
SPLINE
5
326
100
AcDbEntity
8
0
100
AcDbSpline
70
0
71
2
72
6
73
3
74
0
42
0.000000001
43
0.0000000001
44
0.0000000001
40
0
40
0
40
0
40
1
40
1
40
1
10
-3.7719601862411896
20
-4.4295616422284576
30
0
10
-3.6036714545183663
20
-4.4961820651820856
30
0
10
-3.363063364716679
20
-4.6709940750051446
30
0
0
SPLINE
5
327
100
AcDbEntity
8
0
100
AcDbSpline
70
0
71
2
72
6
73
3
74
0
42
0.000000001
43
0.0000000001
44
0.0000000001
40
0
40
0
40
0
40
1
40
1
40
1
10
-3.363063364716679
20
-4.6709940750051446
30
0
10
-3.0783069849670319
20
-4.8778816950141071
30
0
10
-2.9458697810981138
20
-5.0634778380661931
30
0
0
SPLINE
5
328
100
AcDbEntity
8
0
100
AcDbSpline
70
0
71
2
72
6
73
3
74
0
42
0.000000001
43
0.0000000001
44
0.0000000001
40
0
40
0
40
0
40
1
40
1
40
1
10
-2.9458697810981138
20
-5.0634778380661931
30
0
10
-2.8134324020555401
20
-5.2490737400124239
30
0
10
-2.8025611338996645
20
-5.434878359716806
30
0
0
SPLINE
5
329
100
AcDbEntity
8
0
100
AcDbSpline
70
0
71
2
72
6
73
3
74
0
42
0.000000001
43
0.0000000001
44
0.0000000001
40
0
40
0
40
0
40
1
40
1
40
1
10
-2.8025611338996645
20
-5.434878359716806
30
0
10
-2.7916899862967162
20
-5.6206828918343597
30
0
10
-2.9207941968630937
20
-5.7983795931146247
30
0
0
SPLINE
5
330
100
AcDbEntity
8
0
100
AcDbSpline
70
0
71
2
72
6
73
3
74
0
42
0.000000001
43
0.0000000001
44
0.0000000001
40
0
40
0
40
0
40
1
40
1
40
1
10
-2.9207941968630937
20
-5.7983795931146247
30
0
10
-3.0907947994681457
20
-6.0323653490094227
30
0
10
-3.3555868686847679
20
-6.044026649775045
30
0
0
SPLINE
5
331
100
AcDbEntity
8
0
100
AcDbSpline
70
0
71
2
72
6
73
3
74
0
42
0.000000001
43
0.0000000001
44
0.0000000001
40
0
40
0
40
0
40
1
40
1
40
1
10
-3.3555868686847679
20
-6.044026649775045
30
0
10
-3.673839273929949
20
-6.0573182937703072
30
0
10
-4.1296701416058994
20
-5.7261377828261448
30
0
0
SPLINE
5
332
100
AcDbEntity
8
0
100
AcDbSpline
70
0
71
2
72
6
73
3
74
0
42
0.000000001
43
0.0000000001
44
0.0000000001
40
0
40
0
40
0
40
1
40
1
40
1
10
-3.9813205649279793
20
-5.5219521075771034
30
0
10
-3.5828824139079138
20
-5.8114343690730044
30
0
10
-3.3832297252659798
20
-5.8139969872211186
30
0
0
SPLINE
5
333
100
AcDbEntity
8
0
100
AcDbSpline
70
0
71
2
72
6
73
3
74
0
42
0.000000001
43
0.0000000001
44
0.0000000001
40
0
40
0
40
0
40
1
40
1
40
1
10
-3.3832297252659798
20
-5.8139969872211186
30
0
10
-3.1835770366240457
20
-5.8165596053692328
30
0
10
-3.0841426888411561
20
-5.6796999668070205
30
0
0
SPLINE
5
334
100
AcDbEntity
8
0
100
AcDbSpline
70
0
71
2
72
6
73
3
74
0
42
0.000000001
43
0.0000000001
44
0.0000000001
40
0
40
0
40
0
40
1
40
1
40
1
10
-3.0841426888411561
20
-5.6796999668070205
30
0
10
-2.984708341058266
20
-5.5428403282448073
30
0
10
-3.0493935883937806
20
-5.3533503783286287
30
0
0
SPLINE
5
335
100
AcDbEntity
8
0
100
AcDbSpline
70
0
71
2
72
6
73
3
74
0
42
0.000000001
43
0.0000000001
44
0.0000000001
40
0
40
0
40
0
40
1
40
1
40
1
10
-3.0493935883937806
20
-5.3533503783286287
30
0
10
-3.1140785400027133
20
-5.163860274893425
30
0
10
-3.5114130289814267
20
-4.875179870807111
30
0
0
SPLINE
5
336
100
AcDbEntity
8
0
100
AcDbSpline
70
0
71
2
72
6
73
3
74
0
42
0.000000001
43
0.0000000001
44
0.0000000001
40
0
40
0
40
0
40
1
40
1
40
1
10
-3.5114130289814267
20
-4.875179870807111
30
0
10
-3.9109548420428428
20
-4.5848957519016249
30
0
10
-4.1100557269744664
20
-4.5827342268046447
30
0
0
SPLINE
5
337
100
AcDbEntity
8
0
100
AcDbSpline
70
0
71
2
72
6
73
3
74
0
42
0.000000001
43
0.0000000001
44
0.0000000001
40
0
40
0
40
0
40
1
40
1
40
1
10
-4.1100557269744664
20
-4.5827342268046447
30
0
10
-4.3091564367324331
20
-4.5805724606018119
30
0
10
-4.4101945869213255
20
-4.7196395437996541
30
0
0
SPLINE
5
338
100
AcDbEntity
8
0
100
AcDbSpline
70
0
71
2
72
6
73
3
74
0
42
0.000000001
43
0.0000000001
44
0.0000000001
40
0
40
0
40
0
40
1
40
1
40
1
10
-4.4101945869213255
20
-4.7196395437996541
30
0
10
-4.5096289347042156
20
-4.8564991823618664
30
0
10
-4.4530795319519703
20
-5.022371872243836
30
0
0
SPLINE
5
339
100
AcDbEntity
8
0
100
AcDbSpline
70
0
71
2
72
6
73
3
74
0
42
0.000000001
43
0.0000000001
44
0.0000000001
40
0
40
0
40
0
40
1
40
1
40
1
10
-4.4530795319519703
20
-5.022371872243836
30
0
10
-4.3797585953951179
20
-5.2324699336680327
30
0
10
-3.9813205649279793
20
-5.5219521075771034
30
0
0
LINE
5
340
100
AcDbEntity
8
0
100
AcDbLine
10
3.7550880075371107
20
6.8886612816237305
30
0
11
4.1424890559319536
21
6.6071979445710136
31
0
0
LINE
5
341
100
AcDbEntity
8
0
100
AcDbLine
10
4.1424890559319545
20
6.6071979445710136
30
0
11
4.652490984178999
21
7.3091553780156824
31
0
0
LINE
5
342
100
AcDbEntity
8
0
100
AcDbLine
10
4.6524909841789981
20
7.3091553780156824
30
0
11
4.834602574730523
21
7.1768435626373002
31
0
0
LINE
5
343
100
AcDbEntity
8
0
100
AcDbLine
10
4.834602574730523
20
7.1768435626373002
30
0
11
5.3466596748392803
21
5.6766684655216988
31
0
0
LINE
5
344
100
AcDbEntity
8
0
100
AcDbLine
10
5.3466596748392803
20
5.6766684655216979
30
0
11
5.2287818621478488
21
5.5144235753085251
31
0
0
LINE
5
345
100
AcDbEntity
8
0
100
AcDbLine
10
5.2287818621478488
20
5.5144235753085251
30
0
11
4.1802604882337366
21
6.2762189449797381
31
0
0
LINE
5
346
100
AcDbEntity
8
0
100
AcDbLine
10
4.1802604882337366
20
6.2762189449797381
30
0
11
4.0214862835036298
21
6.0576850001520306
31
0
0
LINE
5
347
100
AcDbEntity
8
0
100
AcDbLine
10
4.0214862835036307
20
6.0576850001520306
30
0
11
3.8393746929521062
21
6.1899968155304128
31
0
0
LINE
5
348
100
AcDbEntity
8
0
100
AcDbLine
10
3.8393746929521058
20
6.1899968155304128
30
0
11
3.9981488976822122
21
6.4085307603581203
31
0
0
LINE
5
349
100
AcDbEntity
8
0
100
AcDbLine
10
3.9981488976822122
20
6.4085307603581203
30
0
11
3.6107478492873692
21
6.6899940974108363
31
0
0
LINE
5
350
100
AcDbEntity
8
0
100
AcDbLine
10
3.6107478492873684
20
6.6899940974108363
30
0
11
3.7550880075371107
21
6.8886612816237305
31
0
0
LINE
5
351
100
AcDbEntity
8
0
100
AcDbLine
10
4.3246006464834785
20
6.4748861291926314
30
0
11
5.0541507912838535
21
5.9448369226826898
31
0
0
LINE
5
352
100
AcDbEntity
8
0
100
AcDbLine
10
5.0541507912838535
20
5.9448369226826898
30
0
11
4.6926680762963695
21
6.9814874851013888
31
0
0
LINE
5
353
100
AcDbEntity
8
0
100
AcDbLine
10
4.6926680762963704
20
6.9814874851013888
30
0
11
4.3246006464834785
21
6.4748861291926314
31
0
0
LINE
5
354
100
AcDbEntity
8
0
100
AcDbLine
10
3.7282492676834922
20
5.9604524567644122
30
0
11
3.5943514021727516
21
5.73902164816975
31
0
0
SPLINE
5
355
100
AcDbEntity
8
0
100
AcDbSpline
70
0
71
2
72
6
73
3
74
0
42
0.000000001
43
0.0000000001
44
0.0000000001
40
0
40
0
40
0
40
1
40
1
40
1
10
3.5943514021727516
20
5.7390216481697509
30
0
10
3.4252001859710313
20
5.8265045703292051
30
0
10
3.2871480995262878
20
5.7978024323907507
30
0
0
SPLINE
5
356
100
AcDbEntity
8
0
100
AcDbSpline
70
0
71
2
72
6
73
3
74
0
42
0.000000001
43
0.0000000001
44
0.0000000001
40
0
40
0
40
0
40
1
40
1
40
1
10
3.2871480995262878
20
5.7978024323907507
30
0
10
3.1490958049417901
20
5.7691002614861979
30
0
10
3.0624917012332622
20
5.6498999389031681
30
0
0
SPLINE
5
357
100
AcDbEntity
8
0
100
AcDbSpline
70
0
71
2
72
6
73
3
74
0
42
0.000000001
43
0.0000000001
44
0.0000000001
40
0
40
0
40
0
40
1
40
1
40
1
10
3.0624917012332622
20
5.6498999389031681
30
0
10
2.9582460338191927
20
5.5064180869869928
30
0
10
2.9942392295149345
20
5.3284991376136777
30
0
0
SPLINE
5
358
100
AcDbEntity
8
0
100
AcDbSpline
70
0
71
2
72
6
73
3
74
0
42
0.000000001
43
0.0000000001
44
0.0000000001
40
0
40
0
40
0
40
1
40
1
40
1
10
2.9942392295149345
20
5.3284991376136777
30
0
10
3.0302324798314051
20
5.1505805169330445
30
0
10
3.2090329637059485
20
5.0206743613702525
30
0
0
SPLINE
5
359
100
AcDbEntity
8
0
100
AcDbSpline
70
0
71
2
72
6
73
3
74
0
42
0.000000001
43
0.0000000001
44
0.0000000001
40
0
40
0
40
0
40
1
40
1
40
1
10
3.2090329637059485
20
5.0206743613702525
30
0
10
3.3790037895908998
20
4.8971833278446404
30
0
10
3.5465970268453022
20
4.9212855714672319
30
0
0
SPLINE
5
360
100
AcDbEntity
8
0
100
AcDbSpline
70
0
71
2
72
6
73
3
74
0
42
0.000000001
43
0.0000000001
44
0.0000000001
40
0
40
0
40
0
40
1
40
1
40
1
10
3.5465970268453022
20
4.9212855714672319
30
0
10
3.7141904392733616
20
4.9453880561956769
30
0
10
3.8264550311306134
20
5.0999070107370734
30
0
0
SPLINE
5
361
100
AcDbEntity
8
0
100
AcDbSpline
70
0
71
2
72
6
73
3
74
0
42
0.000000001
43
0.0000000001
44
0.0000000001
40
0
40
0
40
0
40
1
40
1
40
1
10
3.8264550311306134
20
5.0999070107370734
30
0
10
3.8962194285431879
20
5.1959294660283071
30
0
10
3.9087553258209926
20
5.3048635809867033
30
0
0
SPLINE
5
362
100
AcDbEntity
8
0
100
AcDbSpline
70
0
71
2
72
6
73
3
74
0
42
0.000000001
43
0.0000000001
44
0.0000000001
40
0
40
0
40
0
40
1
40
1
40
1
10
3.9087553258209926
20
5.3048635809867033
30
0
10
3.9212912230987977
20
5.4137976959450977
30
0
10
3.8838332314093185
20
5.5084651047809174
30
0
0
LINE
5
363
100
AcDbEntity
8
0
100
AcDbLine
10
3.8838332314093185
20
5.5084651047809174
30
0
11
4.0436340933460233
21
5.6773499003452343
31
0
0
LINE
5
364
100
AcDbEntity
8
0
100
AcDbLine
10
4.0436340933460224
20
5.6773499003452343
30
0
11
4.7608569380738164
21
4.9168005555770264
31
0
0
LINE
5
365
100
AcDbEntity
8
0
100
AcDbLine
10
4.7608569380738164
20
4.9168005555770264
30
0
11
4.1762792380412508
21
4.1121983781415823
31
0
0
LINE
5
366
100
AcDbEntity
8
0
100
AcDbLine
10
4.1762792380412508
20
4.1121983781415823
30
0
11
3.9864417720944125
21
4.25012337056073
31
0
0
LINE
5
367
100
AcDbEntity
8
0
100
AcDbLine
10
3.9864417720944125
20
4.25012337056073
30
0
11
4.4555472754577217
21
4.8957917041835177
31
0
0
LINE
5
368
100
AcDbEntity
8
0
100
AcDbLine
10
4.4555472754577217
20
4.8957917041835177
30
0
11
4.0840361934001592
21
5.2989292290922974
31
0
0
SPLINE
5
369
100
AcDbEntity
8
0
100
AcDbSpline
70
0
71
2
72
6
73
3
74
0
42
0.000000001
43
0.0000000001
44
0.0000000001
40
0
40
0
40
0
40
1
40
1
40
1
10
4.0840361934001592
20
5.2989292290922974
30
0
10
4.079727730183933
20
5.0794660729063255
30
0
10
3.9634536761050896
20
4.9194285670523188
30
0
0
SPLINE
5
370
100
AcDbEntity
8
0
100
AcDbSpline
70
0
71
2
72
6
73
3
74
0
42
0.000000001
43
0.0000000001
44
0.0000000001
40
0
40
0
40
0
40
1
40
1
40
1
10
3.9634536761050896
20
4.9194285670523188
30
0
10
3.8094907472127479
20
4.7075167753021105
30
0
10
3.5568484063863481
20
4.6684789265328899
30
0
0
SPLINE
5
371
100
AcDbEntity
8
0
100
AcDbSpline
70
0
71
2
72
6
73
3
74
0
42
0.000000001
43
0.0000000001
44
0.0000000001
40
0
40
0
40
0
40
1
40
1
40
1
10
3.5568484063863481
20
4.6684789265328899
30
0
10
3.3042059450070225
20
4.6294411653504977
30
0
10
3.0735312957892056
20
4.7970361081399604
30
0
0
SPLINE
5
372
100
AcDbEntity
8
0
100
AcDbSpline
70
0
71
2
72
6
73
3
74
0
42
0.000000001
43
0.0000000001
44
0.0000000001
40
0
40
0
40
0
40
1
40
1
40
1
10
3.0735312957892056
20
4.7970361081399604
30
0
10
2.853893628643684
20
4.9566122140730675
30
0
10
2.786875381501484
20
5.2009160405847776
30
0
0
SPLINE
5
373
100
AcDbEntity
8
0
100
AcDbSpline
70
0
71
2
72
6
73
3
74
0
42
0.000000001
43
0.0000000001
44
0.0000000001
40
0
40
0
40
0
40
1
40
1
40
1
10
2.786875381501484
20
5.2009160405847776
30
0
10
2.7034821185014235
20
5.4992751773576067
30
0
10
2.8991432092551994
20
5.7685795652107732
30
0
0
SPLINE
5
374
100
AcDbEntity
8
0
100
AcDbSpline
70
0
71
2
72
6
73
3
74
0
42
0.000000001
43
0.0000000001
44
0.0000000001
40
0
40
0
40
0
40
1
40
1
40
1
10
2.8991432092551994
20
5.7685795652107732
30
0
10
3.0595211725978944
20
5.9893208943976459
30
0
10
3.2845752989995276
20
6.0391281274059967
30
0
0
SPLINE
5
375
100
AcDbEntity
8
0
100
AcDbSpline
70
0
71
2
72
6
73
3
74
0
42
0.000000001
43
0.0000000001
44
0.0000000001
40
0
40
0
40
0
40
1
40
1
40
1
10
3.2845752989995276
20
6.0391281274059967
30
0
10
3.5096295459540872
20
6.088935272827519
30
0
10
3.7282492676834922
20
5.9604524567644122
30
0
0
LINE
5
376
100
AcDbEntity
8
0
100
AcDbLine
10
7.0869835228476781
20
3.3658586934356602
30
0
11
7.2349575560571653
21
2.910441447497397
31
0
0
LINE
5
377
100
AcDbEntity
8
0
100
AcDbLine
10
7.2349575560571662
20
2.910441447497397
30
0
11
8.0601580102888697
21
3.1785653284176183
31
0
0
LINE
5
378
100
AcDbEntity
8
0
100
AcDbLine
10
8.0601580102888697
20
3.1785653284176183
30
0
11
8.1297184481342484
21
2.9644803140221958
31
0
0
LINE
5
379
100
AcDbEntity
8
0
100
AcDbLine
10
8.1297184481342484
20
2.9644803140221954
30
0
11
7.6622005462716061
21
1.4498335541420084
31
0
0
LINE
5
380
100
AcDbEntity
8
0
100
AcDbLine
10
7.6622005462716061
20
1.4498335541420087
30
0
11
7.4714702388173757
21
1.3878615205815714
31
0
0
LINE
5
381
100
AcDbEntity
8
0
100
AcDbLine
10
7.4714702388173757
20
1.3878615205815716
30
0
11
7.0709707119129224
21
2.6204723211818859
31
0
0
LINE
5
382
100
AcDbEntity
8
0
100
AcDbLine
10
7.0709707119129224
20
2.6204723211818859
30
0
11
6.8140686521228764
21
2.5369997819532966
31
0
0
LINE
5
383
100
AcDbEntity
8
0
100
AcDbLine
10
6.8140686521228755
20
2.5369997819532966
30
0
11
6.7445082142774968
21
2.7510847963487191
31
0
0
LINE
5
384
100
AcDbEntity
8
0
100
AcDbLine
10
6.7445082142774986
20
2.7510847963487182
30
0
11
7.0014102740675446
21
2.8345573355773079
31
0
0
LINE
5
385
100
AcDbEntity
8
0
100
AcDbLine
10
7.0014102740675446
20
2.8345573355773084
30
0
11
6.8534362408580574
21
3.2899745815155716
31
0
0
LINE
5
386
100
AcDbEntity
8
0
100
AcDbLine
10
6.8534362408580574
20
3.2899745815155716
30
0
11
7.0869835228476799
21
3.3658586934356602
31
0
0
LINE
5
387
100
AcDbEntity
8
0
100
AcDbLine
10
7.304517993902544
20
2.6963564331019745
30
0
11
7.5831813527188796
21
1.8387188012589766
31
0
0
LINE
5
388
100
AcDbEntity
8
0
100
AcDbLine
10
7.5831813527188796
20
1.8387188012589766
30
0
11
7.9000636054916189
21
2.8898609323123372
31
0
0
LINE
5
389
100
AcDbEntity
8
0
100
AcDbLine
10
7.9000636054916189
20
2.8898609323123372
30
0
11
7.304517993902544
21
2.6963564331019745
31
0
0
SPLINE
5
390
100
AcDbEntity
8
0
100
AcDbSpline
70
0
71
2
72
6
73
3
74
0
42
0.000000001
43
0.0000000001
44
0.0000000001
40
0
40
0
40
0
40
1
40
1
40
1
10
6.6625981802670253
20
2.1908499067214549
30
0
10
6.7722085615934251
20
1.853503840609694
30
0
10
6.7696133307487747
20
1.625298059877941
30
0
0
SPLINE
5
391
100
AcDbEntity
8
0
100
AcDbSpline
70
0
71
2
72
6
73
3
74
0
42
0.000000001
43
0.0000000001
44
0.0000000001
40
0
40
0
40
0
40
1
40
1
40
1
10
6.7696133307487747
20
1.625298059877941
30
0
10
6.7670179581856607
20
1.3970922330990676
30
0
10
6.6663891216051763
20
1.2410320002068826
30
0
0
SPLINE
5
392
100
AcDbEntity
8
0
100
AcDbSpline
70
0
71
2
72
6
73
3
74
0
42
0.000000001
43
0.0000000001
44
0.0000000001
40
0
40
0
40
0
40
1
40
1
40
1
10
6.6663891216051763
20
1.2410320002068826
30
0
10
6.5657601433062274
20
1.0849717212675771
30
0
10
6.3581625750619484
20
1.0175191824549561
30
0
0
SPLINE
5
393
100
AcDbEntity
8
0
100
AcDbSpline
70
0
71
2
72
6
73
3
74
0
42
0.000000001
43
0.0000000001
44
0.0000000001
40
0
40
0
40
0
40
1
40
1
40
1
10
6.3581625750619484
20
1.0175191824549561
30
0
10
6.2050592993940414
20
0.96777291263267684
30
0
10
6.0695581546311779
20
0.99188295543028504
30
0
0
SPLINE
5
394
100
AcDbEntity
8
0
100
AcDbSpline
70
0
71
2
72
6
73
3
74
0
42
0.000000001
43
0.0000000001
44
0.0000000001
40
0
40
0
40
0
40
1
40
1
40
1
10
6.0695581546311779
20
0.99188295543028504
30
0
10
5.934057009868317
20
1.0159929982278932
30
0
10
5.8210718012361617
20
1.1076664769517033
30
0
0
SPLINE
5
395
100
AcDbEntity
8
0
100
AcDbSpline
70
0
71
2
72
6
73
3
74
0
42
0.000000001
43
0.0000000001
44
0.0000000001
40
0
40
0
40
0
40
1
40
1
40
1
10
5.8210718012361617
20
1.1076664769517033
30
0
10
5.7080863552141992
20
1.1993397218628079
30
0
10
5.611096413402259
20
1.3521544108384198
30
0
0
SPLINE
5
396
100
AcDbEntity
8
0
100
AcDbSpline
70
0
71
2
72
6
73
3
74
0
42
0.000000001
43
0.0000000001
44
0.0000000001
40
0
40
0
40
0
40
1
40
1
40
1
10
5.611096413402259
20
1.3521544108384198
30
0
10
5.5141064715903179
20
1.5049690998140319
30
0
10
5.4222023592542605
20
1.7878208733494212
30
0
0
SPLINE
5
397
100
AcDbEntity
8
0
100
AcDbSpline
70
0
71
2
72
6
73
3
74
0
42
0.000000001
43
0.0000000001
44
0.0000000001
40
0
40
0
40
0
40
1
40
1
40
1
10
5.4222023592542605
20
1.7878208733494212
30
0
10
5.3134351007032681
20
2.1225720743754963
30
0
10
5.3153818278541918
20
2.3505671434840787
30
0
0
SPLINE
5
398
100
AcDbEntity
8
0
100
AcDbSpline
70
0
71
2
72
6
73
3
74
0
42
0.000000001
43
0.0000000001
44
0.0000000001
40
0
40
0
40
0
40
1
40
1
40
1
10
5.3153818278541918
20
2.3505671434840787
30
0
10
5.3173282715681891
20
2.5785621204984195
30
0
10
5.4177464461497262
20
2.7352711865683785
30
0
0
SPLINE
5
399
100
AcDbEntity
8
0
100
AcDbSpline
70
0
71
2
72
6
73
3
74
0
42
0.000000001
43
0.0000000001
44
0.0000000001
40
0
40
0
40
0
40
1
40
1
40
1
10
5.4177464461497262
20
2.7352711865683785
30
0
10
5.5181646667783832
20
2.8919801109198726
30
0
10
5.7270596675655048
20
2.9598542111201978
30
0
0
SPLINE
5
400
100
AcDbEntity
8
0
100
AcDbSpline
70
0
71
2
72
6
73
3
74
0
42
0.000000001
43
0.0000000001
44
0.0000000001
40
0
40
0
40
0
40
1
40
1
40
1
10
5.7270596675655048
20
2.9598542111201978
30
0
10
6.0021264206884428
20
3.0492288169886739
30
0
10
6.223202045272977
20
2.9030221342750417
30
0
0
SPLINE
5
401
100
AcDbEntity
8
0
100
AcDbSpline
70
0
71
2
72
6
73
3
74
0
42
0.000000001
43
0.0000000001
44
0.0000000001
40
0
40
0
40
0
40
1
40
1
40
1
10
6.223202045272977
20
2.9030221342750417
30
0
10
6.4884862819361686
20
2.7267112298406646
30
0
10
6.6625981802670253
20
2.1908499067214549
30
0
0
SPLINE
5
402
100
AcDbEntity
8
0
100
AcDbSpline
70
0
71
2
72
6
73
3
74
0
42
0.000000001
43
0.0000000001
44
0.0000000001
40
0
40
0
40
0
40
1
40
1
40
1
10
6.4225635229854925
20
2.1128579187921694
30
0
10
6.2703736917104909
20
2.5812500570327201
30
0
10
6.1103575427812356
20
2.7006761646289079
30
0
0
SPLINE
5
403
100
AcDbEntity
8
0
100
AcDbSpline
70
0
71
2
72
6
73
3
74
0
42
0.000000001
43
0.0000000001
44
0.0000000001
40
0
40
0
40
0
40
1
40
1
40
1
10
6.1103575427812356
20
2.7006761646289079
30
0
10
5.9503413938519785
20
2.8201022722250957
30
0
10
5.7894532394900855
20
2.7678265419823567
30
0
0
SPLINE
5
404
100
AcDbEntity
8
0
100
AcDbSpline
70
0
71
2
72
6
73
3
74
0
42
0.000000001
43
0.0000000001
44
0.0000000001
40
0
40
0
40
0
40
1
40
1
40
1
10
5.7894532394900855
20
2.7678265419823567
30
0
10
5.6285650851281925
20
2.7155508117396177
30
0
10
5.5695171514896007
20
2.5242291875694645
30
0
0
SPLINE
5
405
100
AcDbEntity
8
0
100
AcDbSpline
70
0
71
2
72
6
73
3
74
0
42
0.000000001
43
0.0000000001
44
0.0000000001
40
0
40
0
40
0
40
1
40
1
40
1
10
5.5695171514896007
20
2.5242291875694645
30
0
10
5.5104688883669599
20
2.3329076130235351
30
0
10
5.662237158254257
20
1.8658129073258269
30
0
0
SPLINE
5
406
100
AcDbEntity
8
0
100
AcDbSpline
70
0
71
2
72
6
73
3
74
0
42
0.000000001
43
0.0000000001
44
0.0000000001
40
0
40
0
40
0
40
1
40
1
40
1
10
5.662237158254257
20
1.8658129073258269
30
0
10
5.8148485509169623
20
1.396123336542433
30
0
10
5.9746540378472712
20
1.2773460621240196
30
0
0
SPLINE
5
407
100
AcDbEntity
8
0
100
AcDbSpline
70
0
71
2
72
6
73
3
74
0
42
0.000000001
43
0.0000000001
44
0.0000000001
40
0
40
0
40
0
40
1
40
1
40
1
10
5.9746540378472712
20
1.2773460621240196
30
0
10
6.1344592413406502
20
1.158568695611365
30
0
10
6.2979424025066955
20
1.2116875946766312
30
0
0
SPLINE
5
408
100
AcDbEntity
8
0
100
AcDbSpline
70
0
71
2
72
6
73
3
74
0
42
0.000000001
43
0.0000000001
44
0.0000000001
40
0
40
0
40
0
40
1
40
1
40
1
10
6.2979424025066955
20
1.2116875946766312
30
0
10
6.4588305568685893
20
1.2639633249193707
30
0
10
6.5105786498909746
20
1.4313960549002869
30
0
0
SPLINE
5
409
100
AcDbEntity
8
0
100
AcDbSpline
70
0
71
2
72
6
73
3
74
0
42
0.000000001
43
0.0000000001
44
0.0000000001
40
0
40
0
40
0
40
1
40
1
40
1
10
6.5105786498909746
20
1.4313960549002869
30
0
10
6.5747533082133733
20
1.644465922270083
30
0
10
6.4225635229854925
20
2.1128579187921694
30
0
0
LINE
5
410
100
AcDbEntity
8
0
100
AcDbLine
10
8.3739418225932347
20
-2.2128380550563858
30
0
11
8.1302766263024377
21
-2.1680935909968735
31
0
0
SPLINE
5
411
100
AcDbEntity
8
0
100
AcDbSpline
70
0
71
2
72
6
73
3
74
0
42
0.000000001
43
0.0000000001
44
0.0000000001
40
0
40
0
40
0
40
1
40
1
40
1
10
8.1302766263024377
20
-2.1680935909968739
30
0
10
8.1545560586693018
20
-1.9565095431472044
30
0
10
8.0863500048412682
20
-1.8375216430047578
30
0
0
SPLINE
5
412
100
AcDbEntity
8
0
100
AcDbSpline
70
0
71
2
72
6
73
3
74
0
42
0.000000001
43
0.0000000001
44
0.0000000001
40
0
40
0
40
0
40
1
40
1
40
1
10
8.0863500048412682
20
-1.8375216430047578
30
0
10
8.0181439510132311
20
-1.7185337428623113
30
0
10
7.8793130001904546
20
-1.6734248324932492
30
0
0
SPLINE
5
413
100
AcDbEntity
8
0
100
AcDbSpline
70
0
71
2
72
6
73
3
74
0
42
0.000000001
43
0.0000000001
44
0.0000000001
40
0
40
0
40
0
40
1
40
1
40
1
10
7.8793130001904546
20
-1.6734248324932492
30
0
10
7.7145324064815677
20
-1.6198843720402794
30
0
10
7.5639036023190869
20
-1.6971750175879028
30
0
0
SPLINE
5
414
100
AcDbEntity
8
0
100
AcDbSpline
70
0
71
2
72
6
73
3
74
0
42
0.000000001
43
0.0000000001
44
0.0000000001
40
0
40
0
40
0
40
1
40
1
40
1
10
7.5639036023190869
20
-1.6971750175879028
30
0
10
7.4132747272973738
20
-1.7744656401119654
30
0
10
7.3584695366341748
20
-1.9431386731678459
30
0
0
SPLINE
5
415
100
AcDbEntity
8
0
100
AcDbSpline
70
0
71
2
72
6
73
3
74
0
42
0.000000001
43
0.0000000001
44
0.0000000001
40
0
40
0
40
0
40
1
40
1
40
1
10
7.3584695366341748
20
-1.9431386731678459
30
0
10
7.306193806391434
20
-2.1040268275297396
30
0
10
7.3773530438154866
20
-2.2426221817408747
30
0
0
SPLINE
5
416
100
AcDbEntity
8
0
100
AcDbSpline
70
0
71
2
72
6
73
3
74
0
42
0.000000001
43
0.0000000001
44
0.0000000001
40
0
40
0
40
0
40
1
40
1
40
1
10
7.3773530438154866
20
-2.2426221817408747
30
0
10
7.4485122812395401
20
-2.3812175359520098
30
0
10
7.6106978681442765
20
-2.4339148275824525
30
0
0
SPLINE
5
417
100
AcDbEntity
8
0
100
AcDbSpline
70
0
71
2
72
6
73
3
74
0
42
0.000000001
43
0.0000000001
44
0.0000000001
40
0
40
0
40
0
40
1
40
1
40
1
10
7.6106978681442765
20
-2.4339148275824525
30
0
10
7.6768696204800921
20
-2.4554153332506048
30
0
10
7.7839100473666871
20
-2.4615056566610916
30
0
0
LINE
5
418
100
AcDbEntity
8
0
100
AcDbLine
10
7.7839100473666871
20
-2.4615056566610916
30
0
11
7.6913509530137443
21
-2.6580767982239966
31
0
0
SPLINE
5
419
100
AcDbEntity
8
0
100
AcDbSpline
70
0
71
2
72
6
73
3
74
0
42
0.000000001
43
0.0000000001
44
0.0000000001
40
0
40
0
40
0
40
1
40
1
40
1
10
7.6913509530137461
20
-2.6580767982239966
30
0
10
7.6688393900829688
20
-2.6478932223928808
30
0
10
7.6545670652378375
20
-2.6432558629396627
30
0
0
SPLINE
5
420
100
AcDbEntity
8
0
100
AcDbSpline
70
0
71
2
72
6
73
3
74
0
42
0.000000001
43
0.0000000001
44
0.0000000001
40
0
40
0
40
0
40
1
40
1
40
1
10
7.6545670652378375
20
-2.6432558629396627
30
0
10
7.5053562997761558
20
-2.5947743463511741
30
0
10
7.3606929911079693
20
-2.6338382034571794
30
0
0
SPLINE
5
421
100
AcDbEntity
8
0
100
AcDbSpline
70
0
71
2
72
6
73
3
74
0
42
0.000000001
43
0.0000000001
44
0.0000000001
40
0
40
0
40
0
40
1
40
1
40
1
10
7.3606929911079693
20
-2.6338382034571794
30
0
10
7.2160296363926602
20
-2.6729022022816498
30
0
10
7.1633323447622166
20
-2.8350877891863862
30
0
0
SPLINE
5
422
100
AcDbEntity
8
0
100
AcDbSpline
70
0
71
2
72
6
73
3
74
0
42
0.000000001
43
0.0000000001
44
0.0000000001
40
0
40
0
40
0
40
1
40
1
40
1
10
7.1633323447622166
20
-2.8350877891863862
30
0
10
7.1215960636361419
20
-2.9635388545110253
30
0
10
7.1811249207774006
20
-3.0761211121695324
30
0
0
SPLINE
5
423
100
AcDbEntity
8
0
100
AcDbSpline
70
0
71
2
72
6
73
3
74
0
42
0.000000001
43
0.0000000001
44
0.0000000001
40
0
40
0
40
0
40
1
40
1
40
1
10
7.1811249207774006
20
-3.0761211121695324
30
0
10
7.2406538487778915
20
-3.1887033928515995
30
0
10
7.378187225339361
20
-3.2333906957858378
30
0
0
SPLINE
5
424
100
AcDbEntity
8
0
100
AcDbSpline
70
0
71
2
72
6
73
3
74
0
42
0.000000001
43
0.0000000001
44
0.0000000001
40
0
40
0
40
0
40
1
40
1
40
1
10
7.378187225339361
20
-3.2333906957858378
30
0
10
7.5144232047876027
20
-3.2776564488441529
30
0
10
7.6330713702331101
20
-3.2215328524192621
30
0
0
SPLINE
5
425
100
AcDbEntity
8
0
100
AcDbSpline
70
0
71
2
72
6
73
3
74
0
42
0.000000001
43
0.0000000001
44
0.0000000001
40
0
40
0
40
0
40
1
40
1
40
1
10
7.6330713702331101
20
-3.2215328524192621
30
0
10
7.751719454201881
20
-3.1654093862010555
30
0
10
7.8333175274329498
20
-3.0025729194484923
30
0
0
LINE
5
426
100
AcDbEntity
8
0
100
AcDbLine
10
7.8333175274329498
20
-3.0025729194484923
30
0
11
8.0533742924506235
21
-3.1199765733611295
31
0
0
SPLINE
5
427
100
AcDbEntity
8
0
100
AcDbSpline
70
0
71
2
72
6
73
3
74
0
42
0.000000001
43
0.0000000001
44
0.0000000001
40
0
40
0
40
0
40
1
40
1
40
1
10
8.0533742924506253
20
-3.11997657336113
30
0
10
7.9342515861542644
20
-3.3409092688813953
30
0
10
7.7404988105216823
20
-3.420684305718988
30
0
0
SPLINE
5
428
100
AcDbEntity
8
0
100
AcDbSpline
70
0
71
2
72
6
73
3
74
0
42
0.000000001
43
0.0000000001
44
0.0000000001
40
0
40
0
40
0
40
1
40
1
40
1
10
7.7404988105216823
20
-3.420684305718988
30
0
10
7.5467460348891002
20
-3.5004593425565811
30
0
10
7.320983596163849
20
-3.4271046795451721
30
0
0
SPLINE
5
429
100
AcDbEntity
8
0
100
AcDbSpline
70
0
71
2
72
6
73
3
74
0
42
0.000000001
43
0.0000000001
44
0.0000000001
40
0
40
0
40
0
40
1
40
1
40
1
10
7.320983596163849
20
-3.4271046795451721
30
0
10
7.1652853845510229
20
-3.3765152639239258
30
0
10
7.055950717479142
20
-3.2671154622744392
30
0
0
SPLINE
5
430
100
AcDbEntity
8
0
100
AcDbSpline
70
0
71
2
72
6
73
3
74
0
42
0.000000001
43
0.0000000001
44
0.0000000001
40
0
40
0
40
0
40
1
40
1
40
1
10
7.055950717479142
20
-3.2671154622744392
30
0
10
6.9466160255951497
20
-3.1577154958829272
30
0
10
6.9147211041035543
20
-3.0196848906996046
30
0
0
SPLINE
5
431
100
AcDbEntity
8
0
100
AcDbSpline
70
0
71
2
72
6
73
3
74
0
42
0.000000001
43
0.0000000001
44
0.0000000001
40
0
40
0
40
0
40
1
40
1
40
1
10
6.9147211041035543
20
-3.0196848906996046
30
0
10
6.8828261826119599
20
-2.8816542855162819
30
0
10
6.9249840251257382
20
-2.7519057876487993
30
0
0
SPLINE
5
432
100
AcDbEntity
8
0
100
AcDbSpline
70
0
71
2
72
6
73
3
74
0
42
0.000000001
43
0.0000000001
44
0.0000000001
40
0
40
0
40
0
40
1
40
1
40
1
10
6.9249840251257382
20
-2.7519057876487993
30
0
10
6.9650339686067584
20
-2.6286447359324616
30
0
10
7.0640887028314552
20
-2.5489413473762723
30
0
0
SPLINE
5
433
100
AcDbEntity
8
0
100
AcDbSpline
70
0
71
2
72
6
73
3
74
0
42
0.000000001
43
0.0000000001
44
0.0000000001
40
0
40
0
40
0
40
1
40
1
40
1
10
7.0640887028314552
20
-2.5489413473762723
30
0
10
7.1631435327274939
20
-2.4692381465856683
30
0
10
7.3122846372303734
20
-2.4517116829147736
30
0
0
SPLINE
5
434
100
AcDbEntity
8
0
100
AcDbSpline
70
0
71
2
72
6
73
3
74
0
42
0.000000001
43
0.0000000001
44
0.0000000001
40
0
40
0
40
0
40
1
40
1
40
1
10
7.3122846372303734
20
-2.4517116829147736
30
0
10
7.1562589523239133
20
-2.3579819570631759
30
0
10
7.1026793103698722
20
-2.2050159336192632
30
0
0
SPLINE
5
435
100
AcDbEntity
8
0
100
AcDbSpline
70
0
71
2
72
6
73
3
74
0
42
0.000000001
43
0.0000000001
44
0.0000000001
40
0
40
0
40
0
40
1
40
1
40
1
10
7.1026793103698722
20
-2.2050159336192632
30
0
10
7.0490994806502485
20
-2.0520500058466946
30
0
10
7.1089635921543683
20
-1.8678072154028409
30
0
0
SPLINE
5
436
100
AcDbEntity
8
0
100
AcDbSpline
70
0
71
2
72
6
73
3
74
0
42
0.000000001
43
0.0000000001
44
0.0000000001
40
0
40
0
40
0
40
1
40
1
40
1
10
7.1089635921543683
20
-1.8678072154028409
30
0
10
7.1899066939860585
20
-1.6186899634475487
30
0
10
7.4278352730758357
20
-1.5044966696191748
30
0
0
SPLINE
5
437
100
AcDbEntity
8
0
100
AcDbSpline
70
0
71
2
72
6
73
3
74
0
42
0.000000001
43
0.0000000001
44
0.0000000001
40
0
40
0
40
0
40
1
40
1
40
1
10
7.4278352730758357
20
-1.5044966696191748
30
0
10
7.6657639230248451
20
-1.3903033988143609
30
0
10
7.9434256829519345
20
-1.4805211735053647
30
0
0
SPLINE
5
438
100
AcDbEntity
8
0
100
AcDbSpline
70
0
71
2
72
6
73
3
74
0
42
0.000000001
43
0.0000000001
44
0.0000000001
40
0
40
0
40
0
40
1
40
1
40
1
10
7.9434256829519345
20
-1.4805211735053647
30
0
10
8.1938403320204536
20
-1.5618858252129775
30
0
10
8.3107881023887114
20
-1.7648479026807127
30
0
0
SPLINE
5
439
100
AcDbEntity
8
0
100
AcDbSpline
70
0
71
2
72
6
73
3
74
0
42
0.000000001
43
0.0000000001
44
0.0000000001
40
0
40
0
40
0
40
1
40
1
40
1
10
8.3107881023887114
20
-1.7648479026807127
30
0
10
8.4277359081865875
20
-1.9678099916602274
30
0
10
8.3739418225932347
20
-2.2128380550563858
30
0
0
LINE
5
440
100
AcDbEntity
8
0
100
AcDbLine
10
6.8986686290024117
20
-1.7291893620315881
30
0
11
6.6466986996266026
21
-1.6702708074535233
31
0
0
SPLINE
5
441
100
AcDbEntity
8
0
100
AcDbSpline
70
0
71
2
72
6
73
3
74
0
42
0.000000001
43
0.0000000001
44
0.0000000001
40
0
40
0
40
0
40
1
40
1
40
1
10
6.6466986996266026
20
-1.6702708074535233
30
0
10
6.6776293023853714
20
-1.4823647313807742
30
0
10
6.6076715062470566
20
-1.3599388433772357
30
0
0
SPLINE
5
442
100
AcDbEntity
8
0
100
AcDbSpline
70
0
71
2
72
6
73
3
74
0
42
0.000000001
43
0.0000000001
44
0.0000000001
40
0
40
0
40
0
40
1
40
1
40
1
10
6.6076715062470566
20
-1.3599388433772357
30
0
10
6.5377136144373971
20
-1.2375127676081121
30
0
10
6.3975852310717771
20
-1.1919822958513464
30
0
0
SPLINE
5
443
100
AcDbEntity
8
0
100
AcDbSpline
70
0
71
2
72
6
73
3
74
0
42
0.000000001
43
0.0000000001
44
0.0000000001
40
0
40
0
40
0
40
1
40
1
40
1
10
6.3975852310717771
20
-1.1919822958513464
30
0
10
6.2289121980158964
20
-1.137177105188147
30
0
10
6.0708237309938662
20
-1.2263886474745589
30
0
0
SPLINE
5
444
100
AcDbEntity
8
0
100
AcDbSpline
70
0
71
2
72
6
73
3
74
0
42
0.000000001
43
0.0000000001
44
0.0000000001
40
0
40
0
40
0
40
1
40
1
40
1
10
6.0708237309938662
20
-1.2263886474745589
30
0
10
5.912735593455885
20
-1.3156001401367468
30
0
10
5.8444398858207371
20
-1.5257927151851758
30
0
0
SPLINE
5
445
100
AcDbEntity
8
0
100
AcDbSpline
70
0
71
2
72
6
73
3
74
0
42
0.000000001
43
0.0000000001
44
0.0000000001
40
0
40
0
40
0
40
1
40
1
40
1
10
5.8444398858207371
20
-1.5257927151851758
30
0
10
5.7795168074285748
20
-1.7256054047354681
30
0
10
5.8542285617370986
20
-1.8775480422313218
30
0
0
SPLINE
5
446
100
AcDbEntity
8
0
100
AcDbSpline
70
0
71
2
72
6
73
3
74
0
42
0.000000001
43
0.0000000001
44
0.0000000001
40
0
40
0
40
0
40
1
40
1
40
1
10
5.8542285617370986
20
-1.8775480422313218
30
0
10
5.9289405994825479
20
-2.0294907718214161
30
0
10
6.1105885248407166
20
-2.0885117605501295
30
0
0
SPLINE
5
447
100
AcDbEntity
8
0
100
AcDbSpline
70
0
71
2
72
6
73
3
74
0
42
0.000000001
43
0.0000000001
44
0.0000000001
40
0
40
0
40
0
40
1
40
1
40
1
10
6.1105885248407166
20
-2.0885117605501295
30
0
10
6.2234696910589182
20
-2.1251890747881639
30
0
10
6.3309459962355259
20
-2.1034489287924885
30
0
0
SPLINE
5
448
100
AcDbEntity
8
0
100
AcDbSpline
70
0
71
2
72
6
73
3
74
0
42
0.000000001
43
0.0000000001
44
0.0000000001
40
0
40
0
40
0
40
1
40
1
40
1
10
6.3309459962355259
20
-2.1034489287924885
30
0
10
6.4384223014121336
20
-2.0817087827968135
30
0
10
6.5168812014590127
20
-2.0168302775694946
30
0
0
LINE
5
449
100
AcDbEntity
8
0
100
AcDbLine
10
6.5168812014590127
20
-2.0168302775694946
30
0
11
6.7268813688378373
21
-2.1166216567030673
31
0
0
LINE
5
450
100
AcDbEntity
8
0
100
AcDbLine
10
6.7268813688378373
20
-2.1166216567030673
30
0
11
6.225190006306855
21
-3.0337637894112901
31
0
0
LINE
5
451
100
AcDbEntity
8
0
100
AcDbLine
10
6.225190006306855
20
-3.0337637894112897
30
0
11
5.2793234185889233
21
-2.7264331050531236
31
0
0
LINE
5
452
100
AcDbEntity
8
0
100
AcDbLine
10
5.2793234185889251
20
-2.7264331050531236
30
0
11
5.3518348782424665
21
-2.5032657794208713
31
0
0
LINE
5
453
100
AcDbEntity
8
0
100
AcDbLine
10
5.3518348782424665
20
-2.5032657794208713
30
0
11
6.1108635269939278
21
-2.7498891374052699
31
0
0
LINE
5
454
100
AcDbEntity
8
0
100
AcDbLine
10
6.1108635269939278
20
-2.7498891374052703
30
0
11
6.3794668590671098
21
-2.2719847556714958
31
0
0
SPLINE
5
455
100
AcDbEntity
8
0
100
AcDbSpline
70
0
71
2
72
6
73
3
74
0
42
0.000000001
43
0.0000000001
44
0.0000000001
40
0
40
0
40
0
40
1
40
1
40
1
10
6.3794668590671098
20
-2.2719847556714954
30
0
10
6.1694136059362865
20
-2.3357050085551139
30
0
10
5.981278234426977
20
-2.2745761207936428
30
0
0
SPLINE
5
456
100
AcDbEntity
8
0
100
AcDbSpline
70
0
71
2
72
6
73
3
74
0
42
0.000000001
43
0.0000000001
44
0.0000000001
40
0
40
0
40
0
40
1
40
1
40
1
10
5.981278234426977
20
-2.2745761207936428
30
0
10
5.732160982471683
20
-2.1936330189619531
30
0
10
5.6169630052035471
20
-1.9654192331204732
30
0
0
SPLINE
5
457
100
AcDbEntity
8
0
100
AcDbSpline
70
0
71
2
72
6
73
3
74
0
42
0.000000001
43
0.0000000001
44
0.0000000001
40
0
40
0
40
0
40
1
40
1
40
1
10
5.6169630052035471
20
-1.9654192331204732
30
0
10
5.5017650739825319
20
-1.7372053055605285
30
0
10
5.5898749496407785
20
-1.4660309917845837
30
0
0
SPLINE
5
458
100
AcDbEntity
8
0
100
AcDbSpline
70
0
71
2
72
6
73
3
74
0
42
0.000000001
43
0.0000000001
44
0.0000000001
40
0
40
0
40
0
40
1
40
1
40
1
10
5.5898749496407785
20
-1.4660309917845837
30
0
10
5.6737690732806314
20
-1.2078314285924625
30
0
10
5.8854060421402732
20
-1.0685992537542472
30
0
0
SPLINE
5
459
100
AcDbEntity
8
0
100
AcDbSpline
70
0
71
2
72
6
73
3
74
0
42
0.000000001
43
0.0000000001
44
0.0000000001
40
0
40
0
40
0
40
1
40
1
40
1
10
5.8854060421402732
20
-1.0685992537542472
30
0
10
6.143392507880872
20
-0.89708950387308084
30
0
10
6.4599788029963578
20
-0.99995462671350621
30
0
0
SPLINE
5
460
100
AcDbEntity
8
0
100
AcDbSpline
70
0
71
2
72
6
73
3
74
0
42
0.000000001
43
0.0000000001
44
0.0000000001
40
0
40
0
40
0
40
1
40
1
40
1
10
6.4599788029963578
20
-0.99995462671350621
30
0
10
6.7194757987313221
20
-1.0842703117410624
30
0
10
6.8363908419548576
20
-1.2829182237320758
30
0
0
SPLINE
5
461
100
AcDbEntity
8
0
100
AcDbSpline
70
0
71
2
72
6
73
3
74
0
42
0.000000001
43
0.0000000001
44
0.0000000001
40
0
40
0
40
0
40
1
40
1
40
1
10
6.8363908419548576
20
-1.2829182237320758
30
0
10
6.9533058391312714
20
-1.4815662774415539
30
0
10
6.8986686290024117
20
-1.7291893620315881
30
0
0
LINE
5
462
100
AcDbEntity
8
0
100
AcDbLine
10
5.4739876699113417
20
-6.7123030992156778
30
0
11
5.3031585212702934
21
-6.5328812585106535
31
0
0
SPLINE
5
463
100
AcDbEntity
8
0
100
AcDbSpline
70
0
71
2
72
6
73
3
74
0
42
0.000000001
43
0.0000000001
44
0.0000000001
40
0
40
0
40
0
40
1
40
1
40
1
10
5.3031585212702934
20
-6.5328812585106535
30
0
10
5.447166977615244
20
-6.3759772603409033
30
0
10
5.4619264538540904
20
-6.2396235144434895
30
0
0
SPLINE
5
464
100
AcDbEntity
8
0
100
AcDbSpline
70
0
71
2
72
6
73
3
74
0
42
0.000000001
43
0.0000000001
44
0.0000000001
40
0
40
0
40
0
40
1
40
1
40
1
10
5.4619264538540904
20
-6.2396235144434895
30
0
10
5.4766859300929376
20
-6.1032697685460757
30
0
10
5.3908836837939953
20
-5.9851731080043979
30
0
0
SPLINE
5
465
100
AcDbEntity
8
0
100
AcDbSpline
70
0
71
2
72
6
73
3
74
0
42
0.000000001
43
0.0000000001
44
0.0000000001
40
0
40
0
40
0
40
1
40
1
40
1
10
5.3908836837939953
20
-5.9851731080043979
30
0
10
5.289043676195516
20
-5.8450023627652037
30
0
10
5.1217521121926355
20
-5.8189944188622844
30
0
0
SPLINE
5
466
100
AcDbEntity
8
0
100
AcDbSpline
70
0
71
2
72
6
73
3
74
0
42
0.000000001
43
0.0000000001
44
0.0000000001
40
0
40
0
40
0
40
1
40
1
40
1
10
5.1217521121926355
20
-5.8189944188622844
30
0
10
4.9544605043963417
20
-5.7929864146829013
30
0
10
4.8109786524801663
20
-5.8972320820969699
30
0
0
SPLINE
5
467
100
AcDbEntity
8
0
100
AcDbSpline
70
0
71
2
72
6
73
3
74
0
42
0.000000001
43
0.0000000001
44
0.0000000001
40
0
40
0
40
0
40
1
40
1
40
1
10
4.8109786524801663
20
-5.8972320820969699
30
0
10
4.674119013917954
20
-5.99666642987986
30
0
10
4.6502237410592171
20
-6.1506187771003207
30
0
0
SPLINE
5
468
100
AcDbEntity
8
0
100
AcDbSpline
70
0
71
2
72
6
73
3
74
0
42
0.000000001
43
0.0000000001
44
0.0000000001
40
0
40
0
40
0
40
1
40
1
40
1
10
4.6502237410592171
20
-6.1506187771003207
30
0
10
4.626328468200481
20
-6.3045711243207805
30
0
10
4.726564673392958
20
-6.4425344249243448
30
0
0
SPLINE
5
469
100
AcDbEntity
8
0
100
AcDbSpline
70
0
71
2
72
6
73
3
74
0
42
0.000000001
43
0.0000000001
44
0.0000000001
40
0
40
0
40
0
40
1
40
1
40
1
10
4.726564673392958
20
-6.4425344249243448
30
0
10
4.7674610654316325
20
-6.4988234795388777
30
0
10
4.8504787875856605
20
-6.5666674390022317
30
0
0
LINE
5
470
100
AcDbEntity
8
0
100
AcDbLine
10
4.8504787875856605
20
-6.5666674390022317
30
0
11
4.6600552892332052
21
-6.6712919625040987
31
0
0
SPLINE
5
471
100
AcDbEntity
8
0
100
AcDbSpline
70
0
71
2
72
6
73
3
74
0
42
0.000000001
43
0.0000000001
44
0.0000000001
40
0
40
0
40
0
40
1
40
1
40
1
10
4.6600552892332052
20
-6.6712919625040996
30
0
10
4.6478288079413979
20
-6.6498213118964555
30
0
10
4.6390080260886268
20
-6.6376805472298823
30
0
0
SPLINE
5
472
100
AcDbEntity
8
0
100
AcDbSpline
70
0
71
2
72
6
73
3
74
0
42
0.000000001
43
0.0000000001
44
0.0000000001
40
0
40
0
40
0
40
1
40
1
40
1
10
4.6390080260886268
20
-6.6376805472298823
30
0
10
4.5467907015459188
20
-6.5107542889750771
30
0
10
4.406794467266276
20
-6.4573266538566738
30
0
0
SPLINE
5
473
100
AcDbEntity
8
0
100
AcDbSpline
70
0
71
2
72
6
73
3
74
0
42
0.000000001
43
0.0000000001
44
0.0000000001
40
0
40
0
40
0
40
1
40
1
40
1
10
4.406794467266276
20
-6.4573266538566738
30
0
10
4.2667981124337064
20
-6.4038991063251007
30
0
10
4.1288348118301421
20
-6.5041353115175777
30
0
0
SPLINE
5
474
100
AcDbEntity
8
0
100
AcDbSpline
70
0
71
2
72
6
73
3
74
0
42
0.000000001
43
0.0000000001
44
0.0000000001
40
0
40
0
40
0
40
1
40
1
40
1
10
4.1288348118301421
20
-6.5041353115175777
30
0
10
4.0195678092780565
20
-6.5835224357793374
30
0
10
4.0015534756395921
20
-6.7095935798036264
30
0
0
SPLINE
5
475
100
AcDbEntity
8
0
100
AcDbSpline
70
0
71
2
72
6
73
3
74
0
42
0.000000001
43
0.0000000001
44
0.0000000001
40
0
40
0
40
0
40
1
40
1
40
1
10
4.0015534756395921
20
-6.7095935798036264
30
0
10
3.9835391857945406
20
-6.8356647841043783
30
0
10
4.068539487097067
20
-6.9526576620517764
30
0
0
SPLINE
5
476
100
AcDbEntity
8
0
100
AcDbSpline
70
0
71
2
72
6
73
3
74
0
42
0.000000001
43
0.0000000001
44
0.0000000001
40
0
40
0
40
0
40
1
40
1
40
1
10
4.068539487097067
20
-6.9526576620517764
30
0
10
4.1527379528867128
20
-7.0685469080960566
30
0
10
4.2817149573677042
20
-7.0928816066633047
30
0
0
SPLINE
5
477
100
AcDbEntity
8
0
100
AcDbSpline
70
0
71
2
72
6
73
3
74
0
42
0.000000001
43
0.0000000001
44
0.0000000001
40
0
40
0
40
0
40
1
40
1
40
1
10
4.2817149573677042
20
-7.0928816066633047
30
0
10
4.4106918193990623
20
-7.1172163626791507
30
0
10
4.5724189210438198
20
-7.0334410378330592
30
0
0
LINE
5
478
100
AcDbEntity
8
0
100
AcDbLine
10
4.5724189210438198
20
-7.0334410378330592
30
0
11
4.6814404473351932
21
-7.2577687101946768
31
0
0
SPLINE
5
479
100
AcDbEntity
8
0
100
AcDbSpline
70
0
71
2
72
6
73
3
74
0
42
0.000000001
43
0.0000000001
44
0.0000000001
40
0
40
0
40
0
40
1
40
1
40
1
10
4.6814404473351932
20
-7.2577687101946768
30
0
10
4.4552071733494678
20
-7.3664884455094697
30
0
10
4.2515672950011663
20
-7.3171427819304045
30
0
0
SPLINE
5
480
100
AcDbEntity
8
0
100
AcDbSpline
70
0
71
2
72
6
73
3
74
0
42
0.000000001
43
0.0000000001
44
0.0000000001
40
0
40
0
40
0
40
1
40
1
40
1
10
4.2515672950011663
20
-7.3171427819304045
30
0
10
4.0479274166528656
20
-7.2677971183513401
30
0
10
3.9083985561375951
20
-7.0757521173541784
30
0
0
SPLINE
5
481
100
AcDbEntity
8
0
100
AcDbSpline
70
0
71
2
72
6
73
3
74
0
42
0.000000001
43
0.0000000001
44
0.0000000001
40
0
40
0
40
0
40
1
40
1
40
1
10
3.9083985561375951
20
-7.0757521173541784
30
0
10
3.8121717693732955
20
-6.9433073077867613
30
0
10
3.7880217556511071
20
-6.7905357042019183
30
0
0
SPLINE
5
482
100
AcDbEntity
8
0
100
AcDbSpline
70
0
71
2
72
6
73
3
74
0
42
0.000000001
43
0.0000000001
44
0.0000000001
40
0
40
0
40
0
40
1
40
1
40
1
10
3.7880217556511071
20
-6.7905357042019183
30
0
10
3.7638718186884308
20
-6.6377639527537848
30
0
10
3.8192006392592375
20
-6.5073474829408315
30
0
0
SPLINE
5
483
100
AcDbEntity
8
0
100
AcDbSpline
70
0
71
2
72
6
73
3
74
0
42
0.000000001
43
0.0000000001
44
0.0000000001
40
0
40
0
40
0
40
1
40
1
40
1
10
3.8192006392592375
20
-6.5073474829408315
30
0
10
3.8745294598300446
20
-6.37693101312788
30
0
10
3.9849001244234818
20
-6.2967420314565326
30
0
0
SPLINE
5
484
100
AcDbEntity
8
0
100
AcDbSpline
70
0
71
2
72
6
73
3
74
0
42
0.000000001
43
0.0000000001
44
0.0000000001
40
0
40
0
40
0
40
1
40
1
40
1
10
3.9849001244234818
20
-6.2967420314565326
30
0
10
4.0897522377043067
20
-6.2205625120067767
30
0
10
4.2167376774164449
20
-6.2143040281025765
30
0
0
SPLINE
5
485
100
AcDbEntity
8
0
100
AcDbSpline
70
0
71
2
72
6
73
3
74
0
42
0.000000001
43
0.0000000001
44
0.0000000001
40
0
40
0
40
0
40
1
40
1
40
1
10
4.2167376774164449
20
-6.2143040281025765
30
0
10
4.3437230841624839
20
-6.2080457523381307
30
0
10
4.4746825691357532
20
-6.2815294871144847
30
0
0
SPLINE
5
486
100
AcDbEntity
8
0
100
AcDbSpline
70
0
71
2
72
6
73
3
74
0
42
0.000000001
43
0.0000000001
44
0.0000000001
40
0
40
0
40
0
40
1
40
1
40
1
10
4.4746825691357532
20
-6.2815294871144847
30
0
10
4.4035480890444232
20
-6.1139909494555873
30
0
10
4.4501124208332357
20
-5.9587455135638105
30
0
0
SPLINE
5
487
100
AcDbEntity
8
0
100
AcDbSpline
70
0
71
2
72
6
73
3
74
0
42
0.000000001
43
0.0000000001
44
0.0000000001
40
0
40
0
40
0
40
1
40
1
40
1
10
4.4501124208332357
20
-5.9587455135638105
30
0
10
4.4966765444822947
20
-5.8035000447059337
30
0
10
4.6534028231063953
20
-5.6896317380295081
30
0
0
SPLINE
5
488
100
AcDbEntity
8
0
100
AcDbSpline
70
0
71
2
72
6
73
3
74
0
42
0.000000001
43
0.0000000001
44
0.0000000001
40
0
40
0
40
0
40
1
40
1
40
1
10
4.6534028231063953
20
-5.6896317380295081
30
0
10
4.8653146148566027
20
-5.5356688091371664
30
0
10
5.1249240128107365
20
-5.583135403674234
30
0
0
SPLINE
5
489
100
AcDbEntity
8
0
100
AcDbSpline
70
0
71
2
72
6
73
3
74
0
42
0.000000001
43
0.0000000001
44
0.0000000001
40
0
40
0
40
0
40
1
40
1
40
1
10
5.1249240128107365
20
-5.583135403674234
30
0
10
5.3845334545582837
20
-5.6306020584877654
30
0
10
5.5561378595693363
20
-5.8667952590181933
30
0
0
SPLINE
5
490
100
AcDbEntity
8
0
100
AcDbSpline
70
0
71
2
72
6
73
3
74
0
42
0.000000001
43
0.0000000001
44
0.0000000001
40
0
40
0
40
0
40
1
40
1
40
1
10
5.5561378595693363
20
-5.8667952590181933
30
0
10
5.7109026239745582
20
-6.0798106826715212
30
0
10
5.6862172417465633
20
-6.3127506272675129
30
0
0
SPLINE
5
491
100
AcDbEntity
8
0
100
AcDbSpline
70
0
71
2
72
6
73
3
74
0
42
0.000000001
43
0.0000000001
44
0.0000000001
40
0
40
0
40
0
40
1
40
1
40
1
10
5.6862172417465633
20
-6.3127506272675129
30
0
10
5.6615318814152733
20
-6.545690602001736
30
0
10
5.4739876699113417
20
-6.7123030992156778
30
0
0
SPLINE
5
492
100
AcDbEntity
8
0
100
AcDbSpline
70
0
71
2
72
6
73
3
74
0
42
0.000000001
43
0.0000000001
44
0.0000000001
40
0
40
0
40
0
40
1
40
1
40
1
10
4.1905915323141514
20
-5.7257199587466401
30
0
10
3.9036278284818016
20
-5.9342112935747773
30
0
10
3.6857892632253222
20
-6.0022625468293969
30
0
0
SPLINE
5
493
100
AcDbEntity
8
0
100
AcDbSpline
70
0
71
2
72
6
73
3
74
0
42
0.000000001
43
0.0000000001
44
0.0000000001
40
0
40
0
40
0
40
1
40
1
40
1
10
3.6857892632253222
20
-6.0022625468293969
30
0
10
3.4679506103820144
20
-6.0703136795310906
30
0
10
3.288432488327814
20
-6.0228352328838177
30
0
0
SPLINE
5
494
100
AcDbEntity
8
0
100
AcDbSpline
70
0
71
2
72
6
73
3
74
0
42
0.000000001
43
0.0000000001
44
0.0000000001
40
0
40
0
40
0
40
1
40
1
40
1
10
3.288432488327814
20
-6.0228352328838177
30
0
10
3.1089142786867852
20
-5.975356665683619
30
0
10
2.980611925529995
20
-5.7987636264447051
30
0
0
SPLINE
5
495
100
AcDbEntity
8
0
100
AcDbSpline
70
0
71
2
72
6
73
3
74
0
42
0.000000001
43
0.0000000001
44
0.0000000001
40
0
40
0
40
0
40
1
40
1
40
1
10
2.980611925529995
20
-5.7987636264447051
30
0
10
2.8859888973782839
20
-5.668526201236455
30
0
10
2.8670467542001199
20
-5.5322065415847144
30
0
0
SPLINE
5
496
100
AcDbEntity
8
0
100
AcDbSpline
70
0
71
2
72
6
73
3
74
0
42
0.000000001
43
0.0000000001
44
0.0000000001
40
0
40
0
40
0
40
1
40
1
40
1
10
2.8670467542001199
20
-5.5322065415847144
30
0
10
2.8481046110219559
20
-5.3958868819329719
30
0
10
2.9003769207533461
20
-5.260102900159267
30
0
0
SPLINE
5
497
100
AcDbEntity
8
0
100
AcDbSpline
70
0
71
2
72
6
73
3
74
0
42
0.000000001
43
0.0000000001
44
0.0000000001
40
0
40
0
40
0
40
1
40
1
40
1
10
2.9003769207533461
20
-5.260102900159267
30
0
10
2.952648934758153
20
-5.1243187648665369
30
0
10
3.068012800190699
20
-4.9848535128076161
30
0
0
SPLINE
5
498
100
AcDbEntity
8
0
100
AcDbSpline
70
0
71
2
72
6
73
3
74
0
42
0.000000001
43
0.0000000001
44
0.0000000001
40
0
40
0
40
0
40
1
40
1
40
1
10
3.068012800190699
20
-4.9848535128076161
30
0
10
3.1833766656232454
20
-4.8453882607486962
30
0
10
3.4239847554249323
20
-4.6705762509256381
30
0
0
SPLINE
5
499
100
AcDbEntity
8
0
100
AcDbSpline
70
0
71
2
72
6
73
3
74
0
42
0.000000001
43
0.0000000001
44
0.0000000001
40
0
40
0
40
0
40
1
40
1
40
1
10
3.4239847554249323
20
-4.6705762509256381
30
0
10
3.7087411351745789
20
-4.4636886309166748
30
0
10
3.9261789031065075
20
-4.3950857274707689
30
0
0
SPLINE
5
500
100
AcDbEntity
8
0
100
AcDbSpline
70
0
71
2
72
6
73
3
74
0
42
0.000000001
43
0.0000000001
44
0.0000000001
40
0
40
0
40
0
40
1
40
1
40
1
10
3.9261789031065075
20
-4.3950857274707689
30
0
10
4.1436164958647792
20
-4.3264825829190094
30
0
10
4.323686596802947
20
-4.3735601776210009
30
0
0
SPLINE
5
501
100
AcDbEntity
8
0
100
AcDbSpline
70
0
71
2
72
6
73
3
74
0
42
0.000000001
43
0.0000000001
44
0.0000000001
40
0
40
0
40
0
40
1
40
1
40
1
10
4.323686596802947
20
-4.3735601776210009
30
0
10
4.503756577188188
20
-4.4206378599098208
30
0
10
4.6328607877545656
20
-4.5983345611900859
30
0
0
SPLINE
5
502
100
AcDbEntity
8
0
100
AcDbSpline
70
0
71
2
72
6
73
3
74
0
42
0.000000001
43
0.0000000001
44
0.0000000001
40
0
40
0
40
0
40
1
40
1
40
1
10
4.6328607877545656
20
-4.5983345611900859
30
0
10
4.8028613903596176
20
-4.8323203170848839
30
0
10
4.7321266970775966
20
-5.0877560800897248
30
0
0
SPLINE
5
503
100
AcDbEntity
8
0
100
AcDbSpline
70
0
71
2
72
6
73
3
74
0
42
0.000000001
43
0.0000000001
44
0.0000000001
40
0
40
0
40
0
40
1
40
1
40
1
10
4.7321266970775966
20
-5.0877560800897248
30
0
10
4.6464223999901018
20
-5.3945394478024777
30
0
10
4.1905915323141514
20
-5.7257199587466401
30
0
0
SPLINE
5
504
100
AcDbEntity
8
0
100
AcDbSpline
70
0
71
2
72
6
73
3
74
0
42
0.000000001
43
0.0000000001
44
0.0000000001
40
0
40
0
40
0
40
1
40
1
40
1
10
4.0422419556362321
20
-5.5215342834975978
30
0
10
4.4406801066562975
20
-5.2320520220016986
30
0
10
4.5048133751078447
20
-5.0429629240308005
30
0
0
SPLINE
5
505
100
AcDbEntity
8
0
100
AcDbSpline
70
0
71
2
72
6
73
3
74
0
42
0.000000001
43
0.0000000001
44
0.0000000001
40
0
40
0
40
0
40
1
40
1
40
1
10
4.5048133751078447
20
-5.0429629240308005
30
0
10
4.5689466435593928
20
-4.8538738260599033
30
0
10
4.4695122957765037
20
-4.7170141874976901
30
0
0
SPLINE
5
506
100
AcDbEntity
8
0
100
AcDbSpline
70
0
71
2
72
6
73
3
74
0
42
0.000000001
43
0.0000000001
44
0.0000000001
40
0
40
0
40
0
40
1
40
1
40
1
10
4.4695122957765037
20
-4.7170141874976901
30
0
10
4.3700779479936136
20
-4.5801545489354778
30
0
10
4.1698734556413681
20
-4.5831182601347251
30
0
0
SPLINE
5
507
100
AcDbEntity
8
0
100
AcDbSpline
70
0
71
2
72
6
73
3
74
0
42
0.000000001
43
0.0000000001
44
0.0000000001
40
0
40
0
40
0
40
1
40
1
40
1
10
4.1698734556413681
20
-4.5831182601347251
30
0
10
3.9696689086683934
20
-4.5860816426412931
30
0
10
3.57233441968968
20
-4.8747620467276054
30
0
0
SPLINE
5
508
100
AcDbEntity
8
0
100
AcDbSpline
70
0
71
2
72
6
73
3
74
0
42
0.000000001
43
0.0000000001
44
0.0000000001
40
0
40
0
40
0
40
1
40
1
40
1
10
3.57233441968968
20
-4.8747620467276054
30
0
10
3.172792606628263
20
-5.1650461656330924
30
0
10
3.1092113170606823
20
-5.3537344116587091
30
0
0
SPLINE
5
509
100
AcDbEntity
8
0
100
AcDbSpline
70
0
71
2
72
6
73
3
74
0
42
0.000000001
43
0.0000000001
44
0.0000000001
40
0
40
0
40
0
40
1
40
1
40
1
10
3.1092113170606823
20
-5.3537344116587091
30
0
10
3.0456298523194461
20
-5.5424224165784732
30
0
10
3.1466680025083376
20
-5.6814894997763155
30
0
0
SPLINE
5
510
100
AcDbEntity
8
0
100
AcDbSpline
70
0
71
2
72
6
73
3
74
0
42
0.000000001
43
0.0000000001
44
0.0000000001
40
0
40
0
40
0
40
1
40
1
40
1
10
3.1466680025083376
20
-5.6814894997763155
30
0
10
3.2461023502912276
20
-5.8183491383385277
30
0
10
3.421331379351078
20
-5.8158249404346209
30
0
0
SPLINE
5
511
100
AcDbEntity
8
0
100
AcDbSpline
70
0
71
2
72
6
73
3
74
0
42
0.000000001
43
0.0000000001
44
0.0000000001
40
0
40
0
40
0
40
1
40
1
40
1
10
3.421331379351078
20
-5.8158249404346209
30
0
10
3.6438039251690935
20
-5.8110164574066703
30
0
10
4.0422419556362321
20
-5.5215342834975978
30
0
0
ENDSEC
0
SECTION
2
OBJECTS
0
DICTIONARY
5
C
100
AcDbDictionary
3
ACAD_GROUP
350
D
3
ACAD_MLINESTYLE
350
17
0
DICTIONARY
5
D
100
AcDbDictionary
0
DICTIONARY
5
1A
330
C
100
AcDbDictionary
0
DICTIONARY
5
17
100
AcDbDictionary
0
ENDSEC
0
EOF
